<?xml version="1.0" standalone="no"?>
<!DOCTYPE svg PUBLIC "-//W3C//DTD SVG 20010904//EN"
 "http://www.w3.org/TR/2001/REC-SVG-20010904/DTD/svg10.dtd">
<svg version="1.0" xmlns="http://www.w3.org/2000/svg"
 width="300.000000pt" height="300.000000pt" viewBox="0 0 300.000000 300.000000"
 preserveAspectRatio="xMidYMid meet">
<metadata>
Created by potrace 1.10, written by Peter Selinger 2001-2011
</metadata>
<g transform="translate(0.000000,300.000000) scale(0.100000,-0.100000)"
fill="#000000" stroke="none">
<path d="M1114 2992 c3 -6 2 -13 -4 -17 -6 -4 -8 -11 -4 -16 4 -7 12 -5 22 4
10 8 24 17 32 20 10 4 8 6 -5 4 -11 -1 -26 2 -34 7 -9 6 -12 5 -7 -2z"/>
<path d="M1305 2991 c-3 -5 -1 -12 5 -16 5 -3 10 -1 10 5 0 6 5 8 10 5 6 -4 8
-11 5 -16 -4 -5 -3 -14 1 -20 4 -8 9 -7 15 2 5 8 2 20 -8 31 -18 20 -29 23
-38 9z"/>
<path d="M1804 2961 c-4 -20 -11 -42 -17 -48 -6 -9 -6 -13 2 -13 6 0 14 13 17
30 4 16 13 35 20 41 18 15 18 26 -1 26 -9 0 -17 -14 -21 -36z"/>
<path d="M1924 2992 c-13 -8 -23 -61 -12 -61 18 -1 37 12 43 27 5 13 2 13 -15
-3 -11 -10 -20 -14 -20 -8 0 12 41 50 45 43 2 -3 7 -2 11 3 10 9 -37 9 -52 -1z"/>
<path d="M2043 2984 c-53 -26 -87 -76 -39 -58 9 4 15 13 12 20 -3 8 1 14 9 14
8 0 15 5 15 11 0 5 4 8 9 5 4 -3 17 1 27 9 25 19 7 18 -33 -1z"/>
<path d="M1020 2979 c-12 -8 -10 -9 8 -4 15 4 22 2 20 -6 -2 -6 8 -13 21 -14
l24 -2 -22 19 c-27 21 -31 21 -51 7z"/>
<path d="M1390 2970 c21 -21 27 -46 8 -34 -7 4 -8 3 -4 -4 10 -17 33 -4 31 18
-2 24 -10 33 -35 37 -20 3 -20 3 0 -17z"/>
<path d="M1246 2954 c-3 -7 0 -16 6 -20 7 -4 8 -3 4 4 -4 7 -1 12 9 12 10 0
13 -5 9 -12 -4 -7 -3 -10 1 -5 5 4 17 -1 28 -10 19 -17 20 -17 8 4 -19 36 -56
52 -65 27z"/>
<path d="M794 2895 c11 -8 24 -15 29 -15 4 0 6 -4 3 -9 -3 -5 7 -11 22 -14 15
-3 35 -9 45 -12 9 -4 17 -3 17 2 0 6 -15 15 -32 20 -21 6 -32 15 -30 24 2 8 1
11 -3 7 -4 -3 -21 -2 -38 3 -30 8 -30 7 -13 -6z"/>
<path d="M888 2875 c17 -8 32 -21 32 -29 0 -10 6 -13 17 -9 10 4 14 2 10 -4
-5 -7 0 -9 13 -6 20 5 20 7 4 24 -9 10 -33 23 -53 29 -51 14 -62 12 -23 -5z"/>
<path d="M1270 2886 c0 -2 13 -18 29 -36 29 -33 45 -31 30 5 -8 20 -8 20 -9 0
0 -17 -3 -16 -18 8 -14 23 -32 36 -32 23z"/>
<path d="M2210 2870 c12 -8 12 -10 -3 -16 -9 -3 -26 -4 -37 -1 -13 3 -21 -1
-25 -13 -4 -14 -13 -17 -33 -14 -23 4 -24 3 -9 -7 14 -8 26 -8 47 1 16 7 34 9
41 4 8 -5 9 -3 4 6 -5 9 -2 10 14 5 12 -4 29 0 41 8 21 14 20 15 -11 26 -39
13 -49 14 -29 1z"/>
<path d="M1126 2862 c-5 -8 58 -102 68 -102 2 0 1 11 -2 25 -2 14 -9 25 -14
25 -5 0 -8 7 -6 16 3 19 -37 50 -46 36z"/>
<path d="M1238 2818 c18 -26 37 -50 42 -53 5 -3 26 -30 46 -60 20 -30 40 -55
46 -55 6 0 8 -7 5 -14 -4 -10 -1 -13 9 -9 10 4 12 9 4 18 -5 6 -6 16 -2 20 4
5 2 5 -5 1 -14 -8 -79 79 -76 103 2 10 0 11 -3 3 -9 -19 -66 48 -59 67 3 9 3
12 -1 8 -4 -4 -14 -1 -23 6 -8 6 0 -9 17 -35z"/>
<path d="M2275 2810 c3 -6 -4 -10 -17 -10 -14 0 -33 -6 -44 -14 -15 -12 -8
-12 39 1 37 11 53 19 45 25 -18 11 -30 10 -23 -2z"/>
<path d="M714 2765 c0 -20 3 -22 19 -13 14 7 17 7 13 -1 -4 -6 -3 -11 3 -11
15 0 19 13 10 35 -4 11 -8 14 -8 7 -1 -9 -6 -10 -19 -3 -15 8 -18 6 -18 -14z"/>
<path d="M1900 2754 c-13 -14 -25 -33 -26 -41 -3 -15 6 -12 9 4 1 4 16 20 32
35 17 15 26 27 20 28 -5 0 -21 -12 -35 -26z"/>
<path d="M1125 2761 c-3 -6 -1 -12 5 -16 5 -3 10 -3 10 1 0 4 9 -1 20 -11 11
-10 20 -14 20 -9 0 5 5 1 11 -10 8 -13 8 -20 1 -25 -11 -7 -2 -115 11 -128 4
-3 7 -1 7 5 0 6 11 9 25 6 25 -4 26 -4 9 21 -9 14 -13 25 -10 25 4 0 0 10 -8
22 -21 30 -20 44 1 27 13 -11 12 -6 -4 21 -24 38 -89 85 -98 71z m82 -97 c0
-15 5 -29 10 -33 5 -3 4 -16 -3 -29 -11 -22 -12 -21 -16 25 -4 41 -2 63 5 63
1 0 3 -12 4 -26z"/>
<path d="M857 2746 c-10 -8 -27 -11 -39 -8 -14 3 -19 1 -14 -6 4 -7 17 -12 29
-12 23 0 122 -69 122 -85 1 -6 8 -24 18 -41 9 -17 14 -34 12 -36 -3 -3 1 -5 9
-5 14 0 13 5 -12 54 -16 30 -15 46 1 37 8 -5 7 -2 -2 9 -8 10 -16 15 -19 12
-3 -3 -21 9 -39 27 -19 18 -36 32 -39 31 -10 -7 -24 -2 -24 8 0 5 4 8 8 5 5
-3 9 1 9 9 0 8 -1 15 -1 15 -1 0 -9 -7 -19 -14z"/>
<path d="M775 2740 c-4 -7 -16 -10 -26 -7 -10 3 -22 1 -25 -4 -3 -5 4 -9 15
-9 10 0 25 -2 33 -3 7 -2 9 -2 4 1 -4 2 -2 8 5 13 7 4 11 11 7 14 -3 4 -9 1
-13 -5z"/>
<path d="M620 2731 c0 -4 -22 -6 -49 -4 -27 3 -52 0 -55 -5 -4 -6 21 -10 63
-11 47 0 71 4 74 12 3 7 -3 14 -14 14 -10 1 -19 -2 -19 -6z"/>
<path d="M1709 2708 c-7 -13 -14 -32 -15 -43 -2 -11 -5 -31 -8 -45 -5 -23 -3
-22 22 10 15 19 27 38 27 42 0 4 10 15 23 23 12 9 22 22 22 28 0 8 -3 8 -8 2
-8 -12 -22 -13 -39 -2 -7 5 -17 -1 -24 -15z"/>
<path d="M1825 2698 c-14 -13 -27 -31 -29 -41 -1 -10 -8 -22 -16 -27 -7 -4
-10 -15 -7 -24 4 -9 2 -16 -3 -16 -6 0 -10 -5 -10 -12 0 -6 9 -3 20 7 11 10
19 23 17 29 -3 6 4 20 14 31 9 11 19 27 21 35 2 8 10 20 18 27 8 7 12 13 8 13
-4 0 -19 -10 -33 -22z"/>
<path d="M1290 2685 c0 -11 8 -32 17 -45 10 -14 17 -26 15 -27 -1 -2 -2 -6 -2
-10 0 -5 5 -1 10 7 8 13 10 12 10 -2 0 -10 3 -17 8 -17 19 3 32 -2 30 -13 -2
-7 3 -12 10 -13 6 0 12 -4 11 -8 0 -5 10 -18 23 -29 l23 -20 -30 2 c-54 4 -51
-3 5 -10 30 -3 57 -3 58 2 2 4 8 8 13 8 6 0 7 -5 3 -12 -4 -7 -3 -8 5 -4 18
12 2 27 -24 22 -18 -3 -30 3 -45 24 -11 15 -20 33 -20 39 0 6 -3 10 -7 9 -15
-5 -93 55 -93 71 0 9 -5 23 -10 31 -8 12 -10 11 -10 -5z"/>
<path d="M591 2681 c-8 -5 4 -8 33 -7 25 1 48 5 51 8 9 8 -69 8 -84 -1z"/>
<path d="M2348 2674 c-5 -5 -27 -11 -50 -13 -3 -1 -5 -9 -4 -18 2 -10 -4 -21
-13 -25 -40 -17 29 -6 84 13 55 19 60 19 71 4 16 -22 34 -11 27 15 -4 15 -14
20 -42 20 -20 0 -43 -6 -50 -12 -10 -11 -11 -10 -6 5 7 16 -5 24 -17 11z"/>
<path d="M809 2659 c37 -15 12 -35 -27 -21 -22 8 -29 7 -29 -4 0 -7 4 -11 9
-8 4 3 24 1 44 -5 36 -10 64 -6 64 9 0 10 -58 40 -74 39 -6 0 0 -5 13 -10z"/>
<path d="M1108 2649 c-3 -9 -2 -22 3 -30 13 -21 11 -72 -3 -63 -6 4 -4 -3 4
-15 14 -20 15 -27 2 -57 -8 -19 -11 -34 -7 -34 4 0 -2 -7 -13 -16 -10 -8 -13
-12 -5 -8 9 4 12 2 9 -7 -3 -8 -11 -13 -17 -11 -6 1 -17 -10 -23 -25 -22 -51
-59 -104 -67 -98 -5 3 -7 -3 -4 -14 6 -22 43 -17 43 5 0 8 5 14 11 14 5 0 7 4
4 10 -3 5 5 21 18 35 22 24 36 59 67 162 7 23 17 40 22 37 4 -3 5 -10 2 -16
-4 -6 -1 -9 6 -6 16 5 33 48 20 48 -6 0 -10 -4 -10 -9 0 -6 -9 -9 -20 -8 -16
1 -20 9 -21 37 -1 51 -13 90 -21 69z"/>
<path d="M1437 2634 c-8 -8 11 -34 25 -34 6 0 4 8 -3 17 -10 13 -5 11 23 -5
33 -20 36 -21 32 -4 -3 10 -13 18 -22 18 -9 1 -24 4 -33 8 -8 4 -18 4 -22 0z"/>
<path d="M1992 2618 c-20 -21 -22 -21 -22 -4 0 21 -13 14 -16 -9 -1 -9 2 -12
9 -8 6 4 8 0 4 -10 -4 -10 -10 -24 -13 -32 -5 -11 -2 -13 10 -9 10 4 15 12 12
19 -5 15 20 55 35 55 6 0 7 -5 4 -11 -4 -6 2 -5 14 2 14 10 17 15 8 21 -17 11
-20 10 -45 -14z"/>
<path d="M2383 2614 c0 -8 4 -14 8 -14 5 0 6 -7 2 -16 -3 -9 -12 -13 -22 -9
-12 5 -13 3 -4 -5 8 -9 16 -9 30 -1 10 6 14 11 9 11 -5 0 -1 9 9 20 10 11 14
20 9 21 -5 0 -16 2 -25 4 -9 1 -16 -4 -16 -11z"/>
<path d="M2430 2595 c-10 -12 -9 -15 5 -15 14 0 15 -3 5 -15 -10 -12 -10 -15
4 -15 9 0 15 -3 15 -7 -4 -27 4 -41 26 -45 27 -6 34 6 10 16 -8 3 -15 18 -15
33 -1 26 -20 63 -32 63 -3 0 -11 -7 -18 -15z"/>
<path d="M860 2584 c0 -7 -6 -14 -12 -17 -7 -2 -2 -2 10 0 14 2 21 0 18 -6 -4
-5 2 -12 11 -15 10 -3 0 -3 -22 -1 -37 4 -38 4 -12 -6 15 -6 25 -15 22 -20 -4
-5 1 -6 9 -3 9 3 16 1 16 -5 0 -5 10 -16 23 -22 21 -12 22 -11 4 8 -10 11 -20
30 -22 43 -2 12 -9 28 -15 34 -5 7 -8 15 -5 18 3 2 -2 5 -10 5 -8 0 -15 -6
-15 -13z"/>
<path d="M1836 2591 c-6 -9 31 -45 57 -54 21 -8 21 -6 1 29 -13 23 -15 25 -11
6 3 -12 1 -20 -4 -16 -5 3 -9 13 -9 22 0 15 -2 15 -10 2 -9 -13 -14 -7 -11 13
1 10 -7 9 -13 -2z"/>
<path d="M2491 2594 c-1 -5 6 -19 14 -30 8 -10 15 -29 15 -41 0 -34 17 -28 18
7 0 17 -4 30 -9 30 -5 0 -9 7 -9 16 0 8 -4 13 -9 10 -5 -4 -12 0 -14 6 -3 7
-6 8 -6 2z"/>
<path d="M523 2570 c1 -9 -12 -16 -42 -22 -25 -4 -47 -12 -50 -16 -3 -5 -16
-12 -28 -16 -13 -4 -23 -12 -23 -17 0 -6 -4 -8 -9 -4 -5 3 -13 -4 -16 -16 -6
-17 -9 -19 -16 -8 -5 8 -9 9 -9 4 0 -6 5 -16 12 -23 9 -9 7 -12 -12 -13 -14 0
-19 -3 -12 -6 6 -2 12 -12 12 -20 0 -12 -3 -13 -13 -4 -14 11 -16 5 -18 -42 0
-9 -4 -15 -9 -12 -10 6 -8 -15 3 -32 5 -8 3 -13 -4 -13 -10 0 -10 -3 -1 -12
16 -16 15 -48 0 -48 -7 0 -2 -7 10 -16 12 -8 20 -20 17 -25 -3 -5 5 -21 19
-36 15 -15 26 -31 26 -34 0 -13 46 -57 64 -61 22 -4 49 -91 33 -107 -5 -5 -4
-12 4 -16 8 -5 10 -4 5 3 -9 16 7 15 22 0 21 -21 26 1 5 25 -11 12 -25 41 -32
65 -6 23 -18 42 -26 42 -18 0 -61 52 -91 111 -44 87 -26 205 41 272 45 44 92
62 167 62 36 0 64 4 61 8 -9 15 81 -35 117 -64 38 -32 77 -38 86 -14 4 8 11
12 18 8 6 -4 5 1 -3 10 -14 17 -26 24 -17 9 2 -4 1 -14 -3 -21 -9 -15 -51 -6
-51 10 0 6 6 7 13 3 7 -4 9 -3 4 2 -5 5 -14 9 -20 9 -7 1 -11 7 -9 14 1 7 -2
10 -8 6 -5 -3 -10 -2 -10 3 0 5 -11 7 -25 4 -36 -6 -31 11 8 27 20 8 27 15 18
18 -7 3 -17 -1 -22 -8 -7 -11 -16 -11 -54 4 -35 12 -52 14 -66 6 -11 -6 -28
-8 -37 -6 -12 3 -11 5 5 6 36 2 34 16 -3 16 -24 0 -33 -4 -31 -15z"/>
<path d="M1674 2568 c3 -13 6 -28 6 -34 0 -7 9 -14 21 -17 20 -5 20 -5 2 15
-10 11 -17 22 -15 24 6 11 1 34 -9 34 -7 0 -9 -9 -5 -22z"/>
<path d="M935 2555 c4 -16 8 -36 8 -43 0 -7 13 -20 29 -28 19 -10 28 -21 24
-30 -3 -8 -2 -12 3 -9 5 3 12 -3 14 -12 3 -10 3 -2 1 17 -4 44 -22 100 -24 80
-1 -8 -2 -18 -1 -22 0 -5 -3 -8 -8 -8 -9 0 -22 23 -27 49 -1 7 -8 19 -15 25
-9 8 -10 4 -4 -19z"/>
<path d="M1470 2572 c0 -7 7 -15 15 -18 8 -4 12 -10 9 -15 -3 -5 0 -10 5 -10
6 -1 17 -2 24 -3 6 -1 11 -8 9 -15 -1 -7 2 -10 7 -6 9 5 37 -34 32 -45 -1 -2
3 -6 10 -9 7 -2 9 1 5 8 -4 6 -3 11 3 11 5 0 13 -5 17 -11 5 -8 10 -6 16 6 14
23 -5 43 -26 26 -11 -9 -18 -7 -34 13 -10 14 -18 37 -17 51 2 16 -2 25 -11 25
-17 0 -19 -16 -3 -26 8 -5 8 -9 -1 -14 -8 -5 -22 2 -36 19 -13 14 -24 20 -24
13z"/>
<path d="M1020 2516 c13 -35 33 -66 43 -66 4 0 5 5 2 10 -3 6 1 10 10 10 12 0
14 4 6 19 -6 10 -7 22 -3 26 4 5 2 5 -4 2 -7 -4 -17 0 -24 8 -21 25 -41 19
-30 -9z"/>
<path d="M2181 2527 c-9 -12 -9 -15 1 -13 7 0 14 -3 16 -9 1 -5 -6 -10 -15
-10 -10 0 -24 -4 -32 -9 -8 -5 -16 -4 -21 4 -6 9 -12 9 -29 -1 -31 -20 -26
-28 17 -22 20 3 44 5 52 5 8 0 24 9 36 20 13 11 28 16 40 13 18 -6 18 -6 1 5
-9 6 -21 8 -26 5 -6 -3 -14 2 -19 10 -7 14 -10 14 -21 2z"/>
<path d="M2301 2535 c9 -9 99 -12 99 -4 0 5 -23 9 -52 9 -28 0 -49 -2 -47 -5z"/>
<path d="M1872 2517 c-8 -10 -6 -13 10 -14 12 -1 24 -6 27 -11 3 -5 21 -8 39
-7 17 1 32 -3 32 -8 0 -5 14 -25 30 -44 17 -18 30 -40 30 -48 0 -18 21 -20 38
-3 7 7 12 8 12 4 0 -5 6 -3 14 4 8 6 12 18 9 26 -3 8 1 14 8 14 7 0 10 2 7 5
-11 11 -37 -7 -31 -22 4 -11 2 -14 -8 -11 -8 3 -14 12 -13 20 1 8 -7 14 -19
14 -11 -1 -22 6 -24 14 -4 13 -3 13 6 0 9 -13 11 -12 11 3 0 14 -5 17 -21 12
-19 -6 -21 -4 -16 14 3 12 1 19 -4 15 -13 -8 -11 10 4 26 6 8 3 7 -9 -3 -11
-9 -24 -14 -27 -10 -4 3 -7 1 -7 -7 0 -10 -4 -10 -17 1 -11 10 -14 10 -9 2 11
-19 -8 -15 -37 7 -20 16 -27 17 -35 7z"/>
<path d="M2415 2520 c-3 -5 -18 -10 -33 -11 l-27 0 24 -10 c19 -8 28 -5 43 11
10 11 14 20 9 20 -5 0 -13 -4 -16 -10z"/>
<path d="M2242 2453 c-24 -9 -41 -18 -38 -20 7 -8 116 -7 123 1 4 3 -6 6 -20
6 -15 0 -27 5 -27 11 0 6 9 8 20 4 11 -4 20 -2 20 4 0 14 -25 12 -78 -6z"/>
<path d="M1170 2443 c0 -11 -5 -24 -11 -30 -8 -8 -7 -13 1 -18 7 -4 21 2 34
16 l21 23 -22 -18 c-25 -21 -29 -16 -13 14 7 13 7 21 0 25 -5 3 -10 -2 -10
-12z"/>
<path d="M1442 2433 c-7 -10 -10 -12 -7 -5 4 7 -2 12 -15 12 -14 0 -19 -4 -14
-12 5 -8 2 -9 -10 -5 -10 4 -15 3 -11 -3 3 -6 -2 -10 -12 -11 -10 0 -13 -3 -6
-5 7 -3 21 -1 31 5 11 6 22 7 26 4 4 -4 19 -8 34 -9 15 -1 19 0 10 3 -21 5
-23 14 -6 31 7 7 8 12 2 12 -5 0 -15 -8 -22 -17z"/>
<path d="M1578 2419 c16 -15 35 -28 41 -30 7 -3 13 -14 14 -26 1 -14 14 -29
34 -40 18 -10 33 -22 33 -28 0 -5 5 -2 11 8 5 9 20 17 32 17 18 0 19 2 7 10
-13 8 -13 11 3 27 10 11 17 13 17 5 0 -7 8 -12 17 -12 15 0 15 1 -2 13 -10 8
-15 19 -10 26 5 9 1 9 -14 -1 -12 -7 -21 -16 -21 -21 0 -4 -5 -5 -10 -2 -6 4
-7 11 -4 17 4 7 2 8 -4 4 -6 -4 -8 -14 -5 -22 7 -20 -18 -38 -29 -21 -6 9 -10
8 -18 -3 -8 -13 -10 -12 -11 5 -1 11 -1 24 0 28 1 5 -4 5 -10 1 -7 -4 -10 -2
-7 6 7 21 26 23 30 3 3 -13 6 -10 10 10 3 15 1 30 -5 34 -5 3 -7 1 -4 -4 4 -6
-2 -13 -13 -16 -13 -3 -21 1 -25 14 -7 20 -8 21 -56 23 l-30 1 29 -26z"/>
<path d="M820 2413 c0 -6 11 -8 25 -5 33 6 32 -3 -2 -23 -16 -9 -19 -13 -8
-10 34 11 65 13 71 4 3 -5 -1 -12 -9 -15 -7 -2 -14 -12 -14 -21 0 -13 3 -12
14 3 8 11 23 18 35 16 13 -2 18 0 13 7 -3 6 -11 8 -17 5 -6 -4 -8 -2 -5 3 4 6
1 16 -6 21 -18 15 -97 27 -97 15z"/>
<path d="M960 2388 c0 -13 4 -29 9 -37 7 -11 10 -10 15 6 7 23 -2 53 -15 53
-5 0 -9 -10 -9 -22z"/>
<path d="M1827 2393 c-14 -13 -6 -19 21 -17 45 4 48 5 27 14 -25 11 -40 12
-48 3z"/>
<path d="M2127 2378 c-22 -8 -27 -15 -24 -30 4 -12 1 -18 -6 -15 -7 2 -11 14
-9 26 3 20 1 21 -16 10 -20 -12 -19 -14 11 -40 17 -15 35 -25 39 -23 5 3 15
-2 24 -10 8 -9 12 -16 7 -16 -5 0 -14 5 -21 12 -7 7 -12 8 -12 2 0 -14 33 -44
48 -44 7 0 12 -7 12 -15 0 -9 14 -24 30 -33 17 -9 32 -24 35 -34 3 -9 13 -19
21 -22 8 -3 12 -10 9 -16 -3 -5 -1 -10 5 -10 6 0 23 -11 38 -25 15 -14 31 -25
37 -25 5 0 3 5 -5 10 -12 8 -12 10 -1 10 8 0 11 7 8 19 -3 14 -1 18 9 14 8 -3
14 -2 14 1 0 9 -39 46 -47 46 -5 0 -21 5 -38 11 l-30 12 30 7 c29 7 29 8 4 9
-38 2 -90 22 -83 32 3 5 12 5 23 0 13 -7 18 -6 18 4 0 8 -14 19 -32 25 -17 6
-47 23 -66 39 l-34 29 25 11 c22 8 22 10 5 11 -19 1 -19 2 -1 9 30 12 5 20
-27 9z"/>
<path d="M1223 2330 c-3 -11 -9 -18 -13 -15 -11 7 -6 -22 5 -32 4 -5 5 -2 0 6
-6 11 -4 13 7 8 12 -4 14 -1 11 14 -4 15 -2 18 13 12 17 -6 17 -5 5 10 -17 22
-22 21 -28 -3z"/>
<path d="M1930 2335 c0 -8 -6 -15 -12 -15 -7 0 4 -16 25 -36 20 -19 37 -42 37
-50 0 -8 5 -14 11 -14 7 0 8 -11 3 -32 -6 -29 -5 -31 10 -19 18 15 21 46 6 56
-6 4 -8 10 -5 15 3 5 1 11 -4 15 -6 3 -8 12 -4 21 3 8 2 14 -3 13 -23 -4 -42
2 -41 14 1 30 -4 47 -13 47 -5 0 -10 -7 -10 -15z"/>
<path d="M1432 2323 c-13 -26 -6 -91 13 -119 9 -14 13 -29 10 -35 -4 -5 -3 -9
2 -8 4 1 15 1 23 0 12 -1 12 -4 -3 -15 -11 -8 -14 -17 -8 -20 5 -4 12 -2 16 4
3 5 17 10 31 10 13 0 25 3 25 8 6 33 5 51 -2 46 -5 -3 -9 -11 -9 -19 0 -24
-28 -24 -44 0 -21 32 -20 52 4 82 22 29 27 67 8 61 -7 -3 -13 -14 -14 -25 -2
-27 -12 -43 -30 -43 -25 0 -16 47 14 69 l27 20 -27 1 c-16 0 -31 -7 -36 -17z"/>
<path d="M2196 2321 c-4 -6 1 -11 11 -11 10 0 29 -3 43 -6 17 -5 22 -4 15 4
-15 16 -62 25 -69 13z"/>
<path d="M28 2279 c-33 -31 -35 -39 -10 -39 14 0 15 2 2 10 -10 7 -11 10 -2
11 21 3 26 4 56 20 29 16 29 16 5 20 -16 3 -33 -5 -51 -22z"/>
<path d="M1105 2292 c22 -27 95 -65 95 -51 0 6 4 8 8 5 5 -3 9 1 9 9 0 8 -14
19 -30 24 -25 9 -28 9 -17 -4 10 -12 9 -15 -4 -15 -9 0 -16 5 -16 12 0 6 -3 8
-7 5 -3 -4 -18 3 -32 15 l-26 23 20 -23z"/>
<path d="M1804 2298 c-5 -7 -3 -8 5 -3 9 5 12 2 9 -11 -2 -11 -10 -18 -16 -16
-7 1 -15 -5 -19 -13 -5 -13 -8 -13 -20 5 -8 11 -18 18 -23 15 -4 -3 -11 1 -13
7 -3 7 -5 -6 -4 -29 1 -23 4 -41 7 -40 3 1 17 -7 32 -17 26 -17 27 -19 11 -42
-14 -23 -14 -24 5 -24 11 0 23 -7 26 -16 3 -8 11 -12 17 -8 9 5 7 11 -5 20 -9
6 -18 22 -19 34 -1 12 -12 29 -25 38 -16 11 -20 17 -11 23 7 4 23 0 36 -8 25
-17 32 -3 8 17 -21 18 -19 35 3 19 9 -7 14 -10 10 -5 -12 14 15 35 30 24 7 -6
15 -8 19 -4 3 3 1 6 -7 6 -10 0 -10 3 -1 14 10 12 8 13 -10 9 -15 -4 -20 -3
-15 5 4 7 1 12 -8 12 -8 0 -18 -5 -22 -12z"/>
<path d="M2025 2301 c-4 -7 -2 -18 4 -25 6 -7 9 -22 6 -34 -4 -25 7 -29 24 -8
9 10 8 16 -4 26 -8 7 -13 15 -11 19 3 4 1 13 -3 20 -6 10 -10 10 -16 2z"/>
<path d="M830 2293 c32 -6 45 -19 29 -28 -7 -5 -10 -4 -5 3 4 7 -3 10 -21 8
-16 -2 -35 -4 -43 -5 -13 -1 -13 -2 0 -11 8 -5 25 -7 36 -4 12 3 25 1 28 -5 4
-6 19 -5 42 5 20 8 33 11 30 6 -3 -6 1 -13 10 -16 11 -4 15 -2 11 8 -3 7 -1
18 4 23 12 12 -41 15 -56 3 -9 -7 -16 -6 -25 5 -7 8 -24 14 -39 14 l-26 -2 25
-4z"/>
<path d="M1063 2254 c4 -7 0 -17 -8 -24 -12 -10 -21 -10 -42 -1 -23 11 -29 9
-58 -19 -17 -17 -34 -27 -38 -23 -7 7 -45 -38 -38 -46 1 -2 -1 -7 -6 -10 -5
-3 -17 -21 -26 -39 -14 -29 -14 -33 -2 -28 20 7 19 1 -2 -20 -17 -17 -17 -18
0 -11 10 4 25 7 34 7 12 0 12 2 -1 16 -20 19 -12 34 17 35 21 0 21 1 2 9 -18
8 -17 10 13 21 33 14 42 33 20 43 -7 3 -1 3 15 1 15 -2 25 0 22 5 -9 14 5 38
26 43 20 5 63 -6 115 -31 17 -8 37 -12 45 -9 8 3 1 8 -19 12 -41 10 -50 23
-21 33 l23 9 -22 5 c-13 4 -20 2 -19 -5 1 -6 -9 -13 -22 -15 -15 -2 -21 0 -16
7 3 6 10 9 15 6 11 -7 7 22 -5 32 -4 4 -5 3 -2 -3z"/>
<path d="M2422 2248 c-19 -19 -14 -62 8 -81 11 -9 20 -13 20 -9 0 4 5 0 10 -8
6 -10 10 -11 10 -2 0 6 0 15 0 19 0 4 -7 8 -16 9 -9 2 -21 7 -27 13 -12 12 -4
14 43 12 23 0 22 1 -7 14 -43 20 -42 26 3 13 20 -5 38 -7 41 -5 2 3 -11 8 -29
12 -18 4 -36 11 -39 16 -3 5 -10 4 -17 -3z"/>
<path d="M1860 2237 c0 -8 7 -18 16 -21 25 -9 36 -7 32 7 -3 6 -9 12 -14 12
-5 0 -15 4 -21 8 -8 5 -13 3 -13 -6z"/>
<path d="M1553 2229 c20 -12 22 -41 5 -69 -16 -25 -4 -37 17 -17 29 30 16 97
-19 97 -19 -1 -19 -2 -3 -11z"/>
<path d="M1833 2216 c0 -8 5 -14 11 -13 5 1 10 -6 11 -17 0 -10 16 -30 35 -43
l35 -26 -31 30 c-33 32 -36 60 -3 43 13 -7 19 -7 19 0 0 9 -23 14 -34 8 -2 -2
-13 5 -23 15 -16 14 -20 14 -20 3z"/>
<path d="M766 2195 c18 -13 16 -14 -26 -15 -58 0 -90 -9 -90 -25 0 -6 -11 -17
-25 -23 -14 -6 -25 -18 -25 -26 0 -7 -6 -19 -14 -26 -8 -6 -12 -18 -9 -26 3
-8 8 -13 10 -10 3 3 12 -2 21 -10 11 -11 12 -18 3 -27 -8 -8 -11 -8 -11 2 0
11 -3 11 -15 1 -8 -6 -20 -8 -26 -4 -7 4 -9 3 -5 -4 3 -5 0 -13 -6 -16 -7 -3
-2 -3 12 0 17 4 11 -3 -18 -20 -24 -14 -48 -24 -52 -21 -4 3 -21 -2 -36 -10
-16 -8 -25 -15 -21 -15 8 0 -2 -13 -45 -60 -16 -18 -22 -31 -15 -34 7 -2 1 -5
-12 -5 -20 -1 -21 -3 -11 -16 13 -16 55 -21 45 -6 -3 5 5 17 17 25 12 9 18 16
13 16 -5 0 7 17 26 37 21 23 24 30 9 18 l-25 -20 19 22 c10 13 22 20 27 17 5
-2 27 8 50 23 23 15 53 36 67 45 32 21 44 41 30 49 -7 4 5 10 25 14 41 8 73
35 41 35 -11 0 -33 -9 -51 -19 -17 -11 -34 -17 -37 -14 -10 10 -7 45 4 38 6
-4 7 1 3 12 -6 15 -4 16 9 5 13 -10 16 -10 14 0 0 7 4 13 9 13 6 0 9 -4 7 -8
-1 -5 2 -6 8 -2 5 3 10 2 10 -4 0 -6 7 -8 17 -4 14 5 13 8 -5 14 -12 5 -22 12
-22 17 0 14 29 36 37 29 3 -4 13 -1 22 6 14 11 14 10 2 -5 -7 -10 -16 -16 -20
-14 -4 3 -13 1 -21 -5 -35 -21 26 -8 76 18 l53 27 -26 13 c-33 17 -42 17 -17
-2z"/>
<path d="M1920 2202 c0 -4 8 -18 17 -31 9 -14 11 -21 5 -17 -6 3 -14 1 -18 -5
-4 -8 -3 -9 4 -5 8 4 16 -3 22 -19 13 -34 13 -48 -1 -40 -6 4 -5 -2 3 -14 7
-12 21 -21 31 -21 15 0 16 3 6 21 -19 36 -28 78 -18 84 16 11 9 24 -21 40 -16
9 -30 12 -30 7z"/>
<path d="M1332 2190 c2 -8 -8 -16 -22 -19 -14 -3 -26 -12 -27 -18 -3 -14 22
-12 52 4 20 10 36 10 82 -2 27 -6 32 10 6 19 -10 3 -26 11 -37 18 -15 11 -19
11 -23 0 -4 -10 -8 -10 -20 -1 -11 10 -14 10 -11 -1z"/>
<path d="M1609 2188 c-7 -14 -3 -55 6 -52 14 6 18 54 5 54 -6 0 -11 -1 -11 -2z"/>
<path d="M2053 2169 c-53 -26 -58 -42 -33 -92 16 -31 18 -42 9 -48 -9 -5 -1
-13 24 -25 20 -9 33 -22 30 -27 -4 -6 -1 -7 7 -2 10 6 7 14 -13 31 l-26 23 27
6 c18 3 34 18 46 39 10 18 23 33 29 33 54 -1 61 16 22 53 -14 13 -25 20 -25
15 0 -4 8 -14 18 -21 15 -12 15 -12 -6 -7 -12 3 -25 9 -28 14 -3 5 -15 9 -27
9 -18 0 -19 2 -7 10 27 18 -4 10 -47 -11z m51 -54 c7 -28 -19 -74 -43 -75 -9
0 -7 5 6 18 10 9 14 14 9 10 -14 -11 -38 -10 -32 1 3 5 -1 11 -9 15 -9 3 -12
12 -8 23 15 41 67 46 77 8z"/>
<path d="M1633 2134 c-13 -19 -18 -32 -12 -29 6 4 10 1 9 -6 -1 -8 1 -23 5
-35 5 -16 13 -19 36 -16 16 2 32 9 36 15 4 6 1 7 -7 2 -7 -4 -16 -2 -21 6 -6
10 -9 10 -9 2 0 -7 -7 -10 -15 -7 -8 4 -12 10 -9 15 3 6 0 16 -6 24 -9 11 -9
15 -1 15 6 0 11 7 11 15 0 8 7 15 16 15 8 0 12 5 9 10 -10 16 -19 11 -42 -26z"/>
<path d="M2486 2141 c-15 -17 -15 -19 -1 -25 29 -11 36 -7 26 13 -6 10 -7 21
-4 25 3 3 4 6 1 6 -3 0 -13 -8 -22 -19z"/>
<path d="M820 2109 c-21 -47 -26 -74 -11 -65 11 7 43 98 36 104 -2 3 -14 -15
-25 -39z"/>
<path d="M1335 2124 c-10 -11 -28 -15 -54 -12 -22 2 -37 0 -35 -4 9 -14 -4 -9
-20 8 -9 9 -16 11 -16 4 0 -16 -61 -66 -77 -62 -7 2 -13 -2 -13 -8 0 -6 5 -8
12 -4 8 5 9 2 5 -9 -10 -27 9 -20 21 8 6 14 15 25 19 26 68 6 93 2 133 -19 69
-37 98 -43 135 -27 30 12 35 12 51 -6 10 -11 20 -16 23 -11 10 15 69 -16 76
-39 6 -18 0 -28 -25 -49 -21 -17 -27 -27 -17 -27 9 0 18 6 21 13 3 7 25 12 55
12 28 1 59 5 69 11 11 6 22 8 25 4 4 -3 14 0 24 8 11 9 14 10 9 2 -13 -23 10
-14 32 12 14 16 32 25 52 25 20 0 30 5 30 16 0 10 -5 12 -12 7 -19 -11 -37
-12 -44 -2 -8 13 -44 11 -44 -2 0 -6 7 -9 15 -5 26 9 16 -10 -10 -22 -33 -15
-38 -15 -29 1 4 6 -4 2 -18 -10 -24 -23 -55 -32 -43 -13 10 16 -5 12 -32 -10
-14 -11 -30 -17 -36 -13 -6 4 1 15 16 27 30 24 36 42 11 32 -17 -7 -66 22 -59
35 3 4 -4 6 -15 4 -11 -2 -24 3 -30 13 -5 9 -10 13 -10 8 0 -12 -50 42 -50 54
0 16 -57 40 -94 40 -19 0 -42 -7 -51 -16z m94 -23 c19 -12 6 -58 -18 -66 -43
-13 -97 35 -56 51 8 4 12 10 9 15 -7 12 47 11 65 0z"/>
<path d="M786 2105 c-9 -13 -16 -29 -16 -34 0 -6 -6 -8 -12 -6 -7 2 -23 -11
-35 -30 l-22 -35 38 0 c22 0 44 -6 51 -15 14 -17 40 -20 40 -5 0 5 -7 6 -17 3
-10 -4 -14 -2 -10 4 4 6 -3 14 -16 18 -13 3 -17 8 -10 11 8 4 10 16 6 36 -5
24 -3 29 7 23 9 -5 11 -4 6 3 -4 6 -2 21 4 32 15 28 6 25 -14 -5z"/>
<path d="M1568 2114 c-10 -9 4 -44 16 -44 20 0 26 11 15 31 -10 19 -21 24 -31
13z"/>
<path d="M2210 2116 c0 -2 16 -36 35 -75 22 -45 35 -85 35 -110 0 -22 4 -51
10 -66 7 -19 7 -24 -1 -19 -8 5 -10 -3 -7 -24 2 -17 0 -33 -5 -35 -5 -1 -2 -9
7 -16 14 -12 16 -12 10 4 -5 13 -4 16 4 11 9 -5 9 -1 3 17 -8 21 -6 26 11 30
16 5 19 9 11 19 -6 7 -9 21 -8 31 3 15 1 16 -11 6 -12 -10 -14 -4 -14 34 0 40
-8 66 -53 170 -10 22 -27 37 -27 23z"/>
<path d="M2415 2090 c-3 -5 4 -12 15 -15 17 -5 19 -10 9 -21 -10 -12 -6 -13
22 -9 20 3 27 2 17 -2 -11 -5 -14 -13 -9 -21 11 -17 40 -5 36 16 -2 9 -4 20
-4 23 -1 4 -9 9 -18 13 -10 3 -28 10 -40 15 -13 6 -25 6 -28 1z"/>
<path d="M1729 2088 c-11 -45 1 -57 33 -32 l23 16 -23 -5 c-12 -3 -20 -1 -17
3 3 5 1 11 -5 15 -5 3 -10 5 -11 3z"/>
<path d="M1834 2080 c16 -5 39 -18 51 -30 19 -18 24 -19 34 -6 10 12 9 13 -10
9 -17 -5 -20 -3 -14 7 5 8 4 11 -2 7 -6 -4 -13 -1 -16 6 -2 7 -20 13 -38 14
l-34 2 29 -9z"/>
<path d="M2165 2078 c6 -14 -38 -81 -47 -73 -2 3 -4 -5 -3 -18 2 -12 8 -21 14
-19 6 1 11 -2 11 -6 0 -5 11 -22 24 -37 14 -16 23 -32 20 -37 -3 -4 2 -5 10
-2 17 6 50 64 37 64 -4 0 -13 -10 -19 -22 -6 -13 -11 -17 -11 -10 -1 8 -6 10
-13 6 -7 -4 -10 -4 -6 1 4 4 -4 16 -17 27 -30 23 -32 48 -5 48 11 0 20 -4 20
-10 0 -5 10 -10 23 -9 l22 0 -23 10 c-14 5 -20 13 -16 21 5 8 2 9 -9 5 -10 -3
-17 -4 -17 -1 0 3 14 10 30 15 38 14 38 20 0 42 -21 13 -28 14 -25 5z"/>
<path d="M2299 2037 c11 -18 20 -34 19 -37 0 -14 56 -130 60 -125 3 3 14 -2
24 -12 10 -9 18 -13 18 -10 0 4 9 -1 19 -10 11 -9 18 -20 15 -24 -2 -4 6 -5
18 -2 19 4 21 3 8 -7 -13 -10 -12 -11 3 -6 10 3 24 6 30 6 7 0 3 7 -7 15 -13
10 -15 15 -6 15 7 0 10 3 7 6 -4 4 -13 1 -22 -6 -14 -11 -19 -7 -16 12 0 4 -6
5 -14 2 -8 -4 -17 1 -21 10 -3 9 -12 16 -20 16 -14 0 -16 6 -17 45 0 16 -1 17
-4 2 -3 -9 -9 -15 -14 -11 -5 3 -7 10 -4 15 4 5 1 9 -6 9 -7 0 -9 3 -6 7 4 3
-9 28 -28 54 -21 30 -30 49 -22 52 6 2 1 6 -11 9 l-23 6 20 -31z"/>
<path d="M25 2044 c-26 -12 -27 -14 -5 -9 14 2 36 5 50 5 20 0 22 2 10 10 -19
12 -19 12 -55 -6z"/>
<path d="M1215 2030 c3 -5 15 -10 26 -10 11 0 19 -7 19 -16 0 -11 6 -15 20
-11 10 3 24 -1 31 -9 6 -8 8 -14 3 -14 -5 -1 4 -8 19 -16 16 -9 31 -13 34 -10
4 3 12 1 20 -6 7 -6 16 -8 20 -4 3 3 1 6 -6 6 -7 0 -9 5 -5 12 5 7 3 8 -6 3
-8 -5 -11 -4 -7 3 11 17 40 7 60 -20 19 -25 19 -26 -2 -47 -13 -13 -21 -34
-21 -57 0 -22 -4 -33 -11 -29 -6 4 -9 1 -8 -6 8 -38 -28 -106 -58 -114 -14 -3
-23 -8 -21 -10 8 -8 77 18 72 27 -3 4 2 22 10 40 9 17 16 37 16 44 0 7 12 27
27 46 21 25 22 28 5 14 -26 -23 -29 -11 -4 17 9 11 11 17 5 13 -7 -4 -13 -5
-13 -2 0 3 13 12 30 21 26 14 30 13 38 -1 6 -11 11 -13 16 -5 4 6 3 11 -1 11
-5 0 -9 9 -10 20 -1 11 4 20 10 19 7 -1 21 -1 32 0 16 1 17 3 6 10 -8 5 -20 7
-27 4 -6 -2 -15 0 -19 6 -3 6 2 11 12 11 17 1 16 2 -2 16 -11 9 -29 20 -40 25
-18 9 -19 9 -2 -4 9 -8 17 -24 17 -36 0 -22 -10 -27 -25 -12 -6 5 -39 17 -74
26 -36 9 -82 25 -103 36 -39 20 -94 26 -83 9z m276 -98 c-6 -2 -9 -8 -5 -13 3
-5 1 -9 -5 -9 -9 0 -31 31 -31 44 0 3 12 0 26 -6 15 -7 21 -14 15 -16z"/>
<path d="M1700 2028 c0 -6 -7 -19 -16 -29 -10 -11 -12 -19 -5 -24 6 -3 16 6
23 20 7 16 17 24 26 20 12 -4 13 -3 2 10 -15 18 -30 20 -30 3z"/>
<path d="M985 2000 c-4 -6 -13 -9 -21 -6 -9 3 -11 0 -7 -11 5 -12 2 -15 -10
-10 -9 3 -16 3 -16 -1 1 -4 0 -9 -1 -12 -7 -18 -7 -39 0 -35 5 3 11 1 15 -4 3
-5 -3 -15 -12 -21 -17 -10 -16 -10 2 -8 11 2 19 -2 18 -9 -2 -8 4 -10 14 -6
12 5 14 3 8 -7 -5 -9 -4 -11 4 -6 6 4 9 12 6 17 -4 5 -1 9 4 9 6 0 11 5 11 11
0 7 -10 9 -25 5 -14 -4 -25 -3 -24 1 1 5 0 11 -1 16 -10 31 11 59 40 50 12 -4
12 -3 1 5 -11 8 -11 10 0 14 8 3 11 8 8 12 -4 4 -10 2 -14 -4z"/>
<path d="M1900 1990 c-24 -8 -24 -8 -2 -10 37 -4 40 -5 48 -12 11 -12 26 -10
19 2 -3 6 1 7 10 3 10 -3 12 -8 7 -12 -6 -3 0 -11 14 -18 13 -6 22 -7 18 -2
-3 5 2 9 10 9 8 0 18 5 22 12 5 7 0 9 -14 6 -12 -4 -20 -1 -19 4 1 6 -9 12
-23 13 -14 2 -34 5 -45 8 -11 3 -31 2 -45 -3z"/>
<path d="M2445 1972 c4 -4 12 -7 18 -7 7 -1 11 -7 9 -14 -2 -8 3 -11 12 -8 9
4 21 -2 28 -11 7 -9 20 -18 28 -18 8 -1 33 -4 55 -8 22 -3 33 -3 25 0 -38 17
-66 27 -78 30 -21 4 -27 14 -9 14 9 0 19 5 22 11 5 7 -4 8 -28 4 -20 -4 -42
-3 -49 1 -16 11 -42 15 -33 6z"/>
<path d="M635 1940 c-10 -11 -15 -20 -11 -20 4 0 1 -10 -5 -22 -19 -35 11 -7
34 31 20 35 10 41 -18 11z"/>
<path d="M1940 1940 c0 -5 3 -9 8 -9 19 3 33 -2 27 -11 -6 -10 19 -14 63 -10
12 1 22 -3 22 -9 0 -6 -8 -8 -17 -5 -15 5 -15 4 -3 -5 11 -7 19 -6 31 5 16 15
16 17 1 35 -14 16 -18 17 -25 4 -10 -19 -46 -19 -71 0 -23 17 -36 19 -36 5z"/>
<path d="M760 1931 c-8 -6 -18 -7 -22 -5 -4 3 -5 -2 -2 -10 3 -9 -2 -17 -14
-20 -11 -4 -26 -14 -33 -22 -10 -12 99 45 120 62 10 8 -35 3 -49 -5z"/>
<path d="M1848 1926 c-20 -15 -24 -31 -5 -20 9 5 9 4 1 -5 -13 -14 -44 -4 -44
15 0 17 -16 18 -26 2 -4 -7 -3 -8 4 -4 7 4 12 1 12 -8 0 -21 -9 -20 -33 2 -11
9 -17 11 -13 4 6 -9 1 -11 -18 -8 -16 3 -25 0 -23 -7 1 -6 -15 -14 -36 -17
-32 -6 -37 -5 -32 9 4 13 3 13 -8 -1 -8 -10 -17 -15 -20 -12 -3 3 -10 -4 -16
-15 -9 -15 -20 -20 -47 -19 -19 1 -40 -4 -46 -10 -21 -21 -32 -13 -13 8 10 11
15 20 11 20 -10 0 -43 -38 -57 -65 -10 -20 -10 -20 5 -1 9 11 16 14 16 8 0 -7
16 -2 40 13 54 34 51 24 -6 -19 -25 -19 -45 -38 -46 -43 -1 -20 -20 -43 -30
-37 -7 5 -9 2 -5 -8 3 -9 0 -21 -6 -28 -10 -10 -7 -12 10 -7 13 3 50 -4 84
-14 34 -11 71 -17 81 -13 26 8 15 17 -25 20 -56 5 -110 19 -114 29 -8 25 57
91 123 125 80 41 104 45 104 18 0 -15 -5 -18 -22 -13 -13 3 -18 3 -12 -2 6 -4
13 -19 16 -33 4 -22 0 -26 -20 -28 -14 -1 -28 -5 -31 -8 -3 -4 6 -4 22 -2 18
4 27 1 27 -8 0 -15 34 -36 44 -27 12 12 6 23 -14 23 -11 0 -20 5 -20 10 0 6 5
10 10 10 7 0 8 6 1 17 -6 12 -5 26 4 44 8 15 11 29 8 33 -6 6 57 36 76 36 6 0
13 -11 17 -25 8 -33 32 -33 29 0 -3 21 -1 23 15 12 14 -8 16 -15 9 -23 -8 -9
-5 -11 11 -7 24 6 44 38 34 54 -4 8 4 9 26 4 24 -5 31 -4 25 5 -5 8 -20 10
-42 7 -29 -5 -33 -4 -23 8 15 18 11 19 -12 1z"/>
<path d="M1120 1920 c0 -6 -5 -8 -12 -4 -7 4 -8 3 -4 -5 4 -6 12 -9 17 -5 5 3
15 -9 21 -27 l11 -32 17 23 c10 13 22 20 27 17 5 -3 10 0 10 8 0 19 -11 19
-27 0 -11 -13 -16 -12 -36 10 -13 15 -24 21 -24 15z"/>
<path d="M2078 1892 c-6 -7 -8 -16 -4 -19 4 -4 11 -1 16 6 7 12 11 12 24 -2 9
-9 23 -14 31 -11 21 8 19 24 -2 24 -14 0 -15 2 -5 9 9 5 3 8 -18 7 -17 -1 -36
-7 -42 -14z"/>
<path d="M1314 1888 c-4 -6 -3 -8 4 -4 15 9 26 -12 13 -28 -9 -10 -7 -17 6
-27 16 -13 17 -12 5 3 -14 17 -6 27 18 23 9 -2 16 5 16 15 0 10 -4 17 -7 14
-4 -2 -10 0 -14 6 -8 14 -32 13 -41 -2z"/>
<path d="M1955 1890 c-3 -5 0 -11 7 -12 7 0 18 -2 23 -2 6 -1 16 -5 23 -10 8
-5 19 -3 25 3 9 9 8 11 -4 6 -10 -4 -19 0 -23 12 -6 15 -8 15 -16 3 -7 -10
-10 -11 -10 -2 0 14 -16 16 -25 2z"/>
<path d="M1234 1879 c-4 -7 -2 -15 5 -17 9 -3 9 -7 0 -18 -8 -10 -8 -14 0 -14
6 0 11 -7 11 -16 0 -13 3 -14 13 -5 9 7 17 7 24 0 7 -7 14 -5 22 5 9 10 9 16
1 21 -8 5 -8 11 1 21 8 10 8 14 0 14 -6 0 -12 -4 -12 -10 -1 -5 -2 -16 -3 -22
-1 -7 -10 -11 -21 -10 -29 6 -30 9 -9 34 10 13 15 20 10 16 -5 -4 -15 -3 -22
3 -9 7 -14 6 -20 -2z"/>
<path d="M2208 1885 c-3 -3 -1 -16 5 -29 8 -16 17 -22 32 -18 18 5 19 4 5 -14
-10 -13 -10 -15 0 -7 7 7 15 27 16 45 3 29 2 31 -9 16 -12 -15 -15 -15 -28 -2
-9 8 -18 12 -21 9z"/>
<path d="M2593 1874 c30 -16 44 -14 32 5 -3 6 -18 11 -33 11 l-27 -1 28 -15z"/>
<path d="M823 1862 c3 -12 1 -19 -4 -16 -5 3 -11 -1 -14 -8 -3 -7 -16 -14 -30
-14 -14 -1 -23 2 -20 6 3 4 -1 8 -8 7 -33 -1 -48 4 -41 14 4 8 0 8 -15 0 -24
-13 -28 -23 -6 -15 14 6 20 -6 16 -29 -1 -5 4 -5 10 -1 7 4 27 8 46 10 27 2
33 -1 29 -13 -3 -8 8 -1 25 16 25 25 28 34 19 48 -10 16 -11 15 -7 -5z"/>
<path d="M2589 1839 c17 -18 31 -36 31 -40 0 -13 61 -72 67 -65 3 3 1 6 -5 6
-7 0 -12 11 -12 24 0 13 -7 26 -15 29 -8 4 -12 15 -10 26 2 14 -4 22 -23 29
-15 6 -35 13 -45 17 -12 5 -8 -4 12 -26z"/>
<path d="M571 1849 c-13 -5 -21 -12 -18 -15 3 -3 14 -1 25 5 14 8 29 8 47 1
37 -14 44 -12 15 5 -29 17 -37 17 -69 4z"/>
<path d="M1720 1819 c0 -48 49 -94 111 -104 50 -9 79 -24 79 -42 0 -7 6 -13
13 -13 8 0 20 -12 28 -27 8 -15 22 -35 32 -45 9 -10 18 -26 18 -35 1 -10 2
-25 3 -33 3 -30 -14 -47 -61 -59 -26 -7 -67 -19 -91 -28 -35 -12 -46 -13 -60
-2 -9 7 -14 9 -10 5 4 -5 3 -15 -3 -23 -9 -10 -15 -11 -26 -2 -10 9 -12 9 -8
-2 7 -20 -83 -65 -98 -50 -17 17 -22 13 -22 -12 0 -22 3 -23 35 -16 54 13 58
11 65 -23 6 -32 15 -55 49 -128 12 -24 15 -27 11 -10 -18 81 -19 76 14 90 23
9 32 21 37 48 4 20 13 42 20 50 11 10 16 9 28 -10 20 -32 66 -189 66 -226 0
-31 22 -58 39 -47 12 7 11 55 -2 55 -4 0 -5 5 -1 11 3 6 1 15 -7 20 -11 6 -9
12 6 31 11 13 13 17 5 11 -25 -22 -35 -14 -35 26 0 26 -9 51 -23 70 -24 33
-22 36 36 49 37 9 41 8 46 -13 3 -12 0 -43 -8 -69 -16 -51 -12 -61 7 -17 12
29 13 29 35 11 23 -19 23 -19 6 -70 -9 -27 -20 -53 -25 -56 -5 -3 -9 -12 -9
-21 0 -9 -7 -24 -16 -34 -16 -17 -11 -65 5 -55 20 13 -8 -68 -33 -94 -21 -23
-27 -37 -22 -54 4 -15 1 -26 -6 -29 -7 -2 -5 -3 4 -2 10 2 21 -1 24 -6 3 -5
10 -9 15 -9 5 0 2 11 -7 25 -9 14 -12 25 -8 25 5 0 3 4 -4 8 -9 6 -1 18 28 41
23 18 37 37 34 43 -5 8 -1 9 11 4 13 -4 27 2 47 20 15 15 30 25 33 23 12 -12
-18 -76 -52 -111 -20 -21 -33 -38 -29 -38 5 0 -2 -9 -15 -20 -21 -17 -22 -21
-9 -30 23 -15 50 -12 44 5 -3 8 4 34 15 59 18 36 26 43 43 38 16 -4 19 -2 13
8 -6 10 -1 11 21 6 43 -11 90 -76 55 -76 -5 0 -11 9 -14 20 -3 11 -11 20 -19
20 -9 0 -9 -3 -2 -8 6 -4 15 -17 19 -30 4 -13 9 -21 12 -18 3 3 17 -9 30 -25
14 -16 28 -28 31 -25 3 3 -1 12 -8 21 -7 8 -9 15 -5 15 5 0 1 8 -8 18 -8 9
-15 19 -14 22 0 3 -7 17 -17 32 -10 15 -15 32 -11 38 4 6 -9 10 -34 10 -23 0
-41 5 -41 10 0 6 5 10 11 10 5 0 7 5 4 10 -3 6 -1 10 4 10 6 0 11 5 11 12 0 6
-3 9 -6 5 -4 -3 -14 3 -24 15 -19 24 -36 18 -51 -16 -10 -22 -6 105 5 154 5
23 42 102 65 140 5 8 16 32 23 53 l14 38 14 -28 c8 -15 16 -30 17 -32 4 -6 43
31 43 40 0 5 -7 6 -16 2 -8 -3 -25 4 -39 17 -14 13 -29 19 -36 15 -7 -5 -10
-4 -5 3 6 11 -23 25 -42 20 -5 -2 -10 0 -11 5 -2 17 -26 35 -33 24 -4 -7 -11
-7 -22 2 -12 10 -14 24 -9 59 5 38 13 54 46 84 29 27 38 42 34 57 -3 12 -1 18
4 15 5 -3 16 2 25 10 8 9 21 16 28 16 16 0 34 35 41 80 5 27 3 32 -6 23 -9 -9
-18 -9 -32 -2 -10 6 -33 8 -51 5 -87 -17 -110 -17 -162 -1 -71 22 -121 14
-130 -20 -7 -27 -34 -35 -34 -9 0 9 -5 12 -12 8 -7 -4 -25 8 -45 32 l-33 39 0
-36z m288 -51 c6 -6 12 -7 12 -2 0 4 7 -1 15 -12 8 -10 14 -14 13 -8 -2 7 0
11 3 10 3 0 14 6 24 14 17 14 18 13 12 -10 -5 -21 -4 -22 6 -9 7 8 21 19 32
23 16 6 17 9 5 17 -11 7 -6 8 15 3 17 -4 32 -8 34 -10 2 -2 -12 -20 -32 -39
-26 -25 -37 -45 -37 -65 0 -20 -7 -33 -22 -41 -13 -6 -31 -21 -41 -33 -17 -21
-17 -21 -11 9 4 17 10 35 14 40 10 14 10 55 1 55 -5 0 -12 -20 -15 -45 -9 -54
-17 -61 -47 -36 -20 16 -22 22 -12 44 18 38 5 65 -43 93 -24 14 -44 30 -44 34
0 10 99 -17 118 -32z m-82 -19 c36 -22 49 -64 17 -52 -45 17 -82 45 -76 59 7
19 20 18 59 -7z m151 -317 c-10 -10 -17 -26 -17 -35 0 -14 -6 -16 -30 -12 -18
3 -30 1 -30 -5 0 -7 -6 -8 -19 0 -12 6 -22 6 -25 1 -7 -11 -86 8 -86 20 0 5 0
12 0 16 0 5 18 8 40 9 21 0 37 -3 34 -7 -7 -12 58 1 75 15 11 8 13 8 7 -1 -9
-17 -5 -16 30 2 38 19 41 19 21 -3z m-258 -71 c-9 -60 -25 -91 -44 -91 -12 0
-15 14 -15 60 0 54 3 62 23 70 41 16 44 13 36 -39z m321 26 c0 -23 -64 -127
-79 -127 -5 0 -11 9 -14 20 -3 11 -1 20 4 20 5 0 8 13 7 29 -2 34 17 61 43 61
11 0 19 5 19 10 0 6 5 10 10 10 6 0 10 -10 10 -23z m-85 -320 c0 -49 -4 -74
-12 -74 -8 0 -10 18 -7 56 4 50 12 91 18 91 1 0 2 -33 1 -73z"/>
<path d="M1156 1828 c-9 -20 9 -42 39 -45 18 -2 18 -2 -2 8 -12 7 -24 21 -26
33 -3 19 -4 19 -11 4z"/>
<path d="M2360 1823 c1 -5 9 -18 19 -30 21 -25 73 -31 101 -13 11 7 6 8 -17 4
-22 -4 -33 -3 -33 5 0 6 -5 11 -11 11 -6 0 -17 7 -25 15 -16 16 -34 20 -34 8z"/>
<path d="M640 1803 c0 -6 -10 -14 -22 -16 -14 -3 -8 -5 12 -4 53 2 86 32 35
32 -14 0 -25 -5 -25 -12z"/>
<path d="M1334 1788 c-10 -12 -14 -18 -7 -15 23 14 22 -11 -2 -33 -25 -24 -36
-15 -12 9 9 11 9 12 0 7 -7 -4 -18 -16 -24 -28 -9 -16 -8 -19 3 -13 7 3 5 0
-4 -8 -10 -8 -14 -18 -10 -22 4 -5 2 -6 -3 -2 -6 3 -17 2 -25 -4 -12 -6 -9 -9
11 -9 23 0 77 29 55 30 -6 0 -1 6 10 14 10 8 19 20 19 28 0 7 9 12 20 11 11
-1 14 0 7 3 -6 3 -10 10 -6 15 3 5 2 9 -3 8 -22 -4 -25 2 -7 16 10 8 14 15 8
15 -6 0 -19 -10 -30 -22z"/>
<path d="M1573 1791 c-21 -12 -29 -22 -23 -30 6 -10 11 -9 21 6 8 10 25 24 39
30 14 6 18 12 10 12 -8 0 -29 -8 -47 -18z"/>
<path d="M326 1781 c-9 -9 -16 -24 -16 -32 0 -12 2 -12 9 0 5 7 13 11 19 7 5
-3 12 3 15 14 7 27 -7 33 -27 11z"/>
<path d="M539 1772 c-11 -14 -11 -15 1 -4 17 14 34 16 25 2 -4 -6 5 -10 22 -9
17 1 21 3 10 6 -9 2 -15 8 -13 12 10 15 -33 9 -45 -7z"/>
<path d="M2315 1770 c-6 -20 0 -40 14 -40 4 0 7 14 6 30 0 34 -11 40 -20 10z"/>
<path d="M690 1765 c7 -9 19 -14 26 -11 9 4 13 -2 11 -17 -1 -12 3 -22 8 -22
6 0 16 -4 23 -8 8 -5 12 -2 13 10 1 10 3 28 4 41 2 21 1 22 -15 7 -13 -12 -20
-13 -25 -5 -4 6 -13 9 -21 6 -8 -3 -14 -1 -14 4 0 6 -5 10 -11 10 -8 0 -7 -5
1 -15z"/>
<path d="M2376 1768 c16 -29 37 -47 48 -41 6 3 6 0 -1 -7 -10 -11 -16 -10 -35
6 l-22 19 20 -27 c23 -32 50 -36 57 -8 3 13 10 18 21 14 9 -3 16 -2 16 3 0 11
-40 36 -48 29 -3 -3 1 -6 8 -6 7 0 11 -2 8 -5 -3 -4 -22 3 -43 15 -20 11 -33
15 -29 8z"/>
<path d="M2258 1741 c-12 -50 -10 -87 3 -74 5 5 9 32 7 59 -3 47 -3 48 -10 15z"/>
<path d="M1490 1739 c0 -9 64 -29 92 -29 9 0 20 -5 23 -10 4 -6 12 -10 18 -9
17 3 68 -12 92 -26 30 -19 73 -26 80 -15 4 6 -9 10 -32 11 -21 0 -32 3 -25 6
6 2 12 9 12 15 0 6 -6 8 -13 5 -8 -3 -20 -1 -28 4 -11 7 -11 9 -1 9 7 0 10 5
7 10 -5 8 -11 8 -20 0 -9 -7 -25 -8 -51 -1 -22 5 -65 16 -96 24 -32 8 -58 11
-58 6z"/>
<path d="M341 1706 c-15 -16 -19 -26 -12 -31 6 -3 9 -11 5 -16 -3 -5 -10 -6
-16 -3 -7 5 -8 2 -3 -6 4 -7 2 -16 -6 -21 -11 -7 -10 -9 4 -9 24 0 21 -13 -10
-44 -14 -14 -23 -29 -20 -33 4 -3 7 -2 7 4 0 5 7 10 15 10 11 0 12 -4 4 -13
-6 -7 -8 -18 -4 -25 4 -6 1 -15 -6 -20 -10 -6 -11 -11 -2 -20 12 -12 5 -48
-18 -90 -11 -22 -11 -23 4 -10 12 9 17 10 17 2 0 -7 5 -9 11 -5 8 5 8 9 -1 14
-8 5 -6 19 10 53 12 26 20 52 17 59 -3 7 -6 2 -6 -12 -1 -17 -4 -21 -12 -13
-8 8 -7 17 1 34 7 12 13 46 14 76 0 29 5 53 9 53 5 0 5 5 2 10 -3 6 -1 10 4
10 6 0 11 9 11 19 0 11 5 23 10 26 12 7 13 25 2 25 -5 0 -19 -11 -31 -24z"/>
<path d="M522 1719 c-12 -5 -25 -15 -28 -24 -4 -8 -10 -15 -16 -15 -5 0 -6 6
-2 13 4 6 -2 4 -14 -7 -12 -10 -19 -22 -17 -27 7 -10 64 22 62 35 -1 6 12 12
28 16 17 3 26 8 20 12 -5 3 -20 2 -33 -3z"/>
<path d="M2654 1705 c18 -75 27 -105 35 -110 5 -3 7 -15 5 -28 -4 -20 -4 -20
5 -2 4 11 6 25 2 30 -17 29 -29 80 -21 91 7 7 3 17 -12 30 l-21 19 7 -30z"/>
<path d="M2334 1703 c3 -8 6 -17 6 -19 0 -2 10 -4 23 -3 12 0 16 3 9 6 -6 2
-10 8 -7 13 3 4 -5 10 -16 13 -15 4 -19 2 -15 -10z"/>
<path d="M887 1690 c-8 -11 -16 -18 -19 -15 -2 3 -5 -1 -5 -7 0 -7 -4 -20 -7
-29 -5 -11 -1 -19 10 -23 14 -5 15 -4 4 9 -13 15 -3 21 25 15 6 -1 7 2 3 6 -4
4 -2 14 5 22 9 13 9 14 0 8 -16 -9 -17 6 -1 22 7 7 9 12 6 12 -4 0 -13 -9 -21
-20z"/>
<path d="M2505 1703 c17 -2 40 -9 52 -15 13 -6 26 -8 30 -5 3 4 -1 7 -11 7 -9
0 -14 5 -11 10 4 6 -12 9 -42 9 -31 -1 -38 -3 -18 -6z"/>
<path d="M2380 1670 c-19 -4 -27 -8 -18 -9 9 0 20 -6 24 -12 4 -8 0 -9 -15 -4
-16 5 -20 3 -15 -9 5 -12 11 -13 24 -6 24 13 43 13 35 0 -4 -6 8 -10 29 -10
19 0 37 -4 41 -10 3 -5 12 -7 21 -3 11 4 6 12 -21 30 -19 13 -35 28 -35 33 0
11 -18 11 -70 0z"/>
<path d="M826 1645 c2 -11 4 -35 4 -54 0 -19 3 -31 8 -27 4 4 7 27 7 51 0 24
-2 39 -6 33 -5 -7 -8 -6 -12 3 -2 8 -3 5 -1 -6z"/>
<path d="M1605 1641 l-30 -7 39 -8 c21 -4 40 -5 43 -2 6 6 -6 26 -15 25 -4 -1
-20 -4 -37 -8z"/>
<path d="M1677 1637 c-8 -20 17 -35 58 -34 17 0 24 2 17 4 -6 3 -10 9 -7 13 3
5 -4 7 -16 5 -13 -3 -27 2 -34 12 -11 15 -12 14 -18 0z"/>
<path d="M730 1623 c0 -14 -2 -15 -9 -5 -7 11 -10 10 -15 -3 -9 -25 -8 -27 13
-15 31 16 46 13 30 -7 -10 -11 -10 -14 -1 -9 8 4 12 1 12 -9 0 -11 -5 -15 -16
-11 -12 5 -14 1 -9 -15 4 -11 3 -25 -2 -32 -12 -16 -14 -57 -3 -57 5 0 10 8
12 17 2 13 9 8 25 -19 16 -27 27 -36 42 -33 11 2 22 -2 24 -9 3 -7 16 -12 29
-11 12 1 28 -2 35 -7 8 -7 11 -4 10 11 -1 14 -5 17 -16 11 -19 -10 -63 9 -54
24 4 6 0 5 -9 -2 -11 -9 -18 -10 -23 -2 -3 6 -11 7 -17 4 -8 -5 -9 -1 -4 12 4
10 4 15 0 11 -4 -4 -14 2 -21 13 -8 11 -19 18 -24 15 -15 -10 -10 4 14 40 13
19 27 32 30 28 4 -3 7 -1 7 5 0 7 -4 12 -10 12 -5 0 -10 7 -10 15 0 9 -7 18
-15 21 -8 4 -12 10 -9 15 3 5 0 9 -5 9 -6 0 -11 -8 -11 -17z"/>
<path d="M1379 1638 c-4 -13 -7 -38 -4 -38 1 0 17 6 35 14 25 10 29 14 15 20
-16 6 -44 8 -46 4z"/>
<path d="M2180 1627 c-25 -10 -24 -10 14 -20 22 -5 41 -6 45 -1 10 14 34 16
41 4 5 -8 13 -6 25 7 17 17 17 18 1 21 -9 2 -29 -1 -45 -6 -15 -5 -34 -6 -42
-2 -8 4 -25 3 -39 -3z"/>
<path d="M520 1603 c-27 -12 -54 -33 -60 -45 l-11 -23 17 23 c15 21 42 33 30
13 -4 -5 3 -7 14 -4 15 4 19 1 15 -9 -3 -8 2 -21 12 -29 16 -12 17 -12 6 2
-11 13 -10 19 5 33 10 9 22 14 25 11 4 -3 5 -2 2 2 -8 11 -36 13 -29 2 6 -11
-4 -11 -31 1 -19 8 -19 9 3 9 12 1 24 0 25 -1 2 -2 12 4 22 12 11 8 16 10 12
3 -5 -8 2 -11 23 -11 16 1 30 5 30 10 0 4 -3 7 -7 7 -27 -4 -33 5 -8 11 29 8
29 8 -8 7 -21 -1 -60 -11 -87 -24z"/>
<path d="M2378 1612 c-10 -2 -18 -8 -18 -14 0 -5 7 -7 16 -4 9 4 13 2 8 -5 -4
-8 1 -9 16 -4 16 5 20 4 15 -5 -4 -7 -18 -9 -34 -6 -14 3 -20 3 -13 0 19 -9
14 -27 -5 -19 -14 5 -15 4 -6 -6 10 -10 20 -7 50 13 21 14 45 28 53 31 14 5
-23 12 -44 8 -5 -1 -12 2 -15 6 -3 5 -14 7 -23 5z"/>
<path d="M1430 1601 c-8 -6 -18 -7 -22 -5 -8 5 -12 -10 -9 -33 1 -7 -8 -10
-24 -7 -22 4 -24 3 -13 -10 9 -10 18 -11 31 -4 10 5 28 6 40 3 15 -4 18 -3 9
3 -24 16 22 21 75 7 27 -7 71 -11 98 -9 27 1 56 -1 66 -6 12 -7 19 -6 22 3 3
8 -8 17 -29 23 -19 6 -34 8 -34 4 0 -3 -22 -6 -50 -6 -37 1 -50 5 -50 16 0 11
-3 11 -12 2 -7 -7 -21 -12 -31 -12 -17 0 -18 2 -6 17 13 15 12 15 -8 5 -53
-28 -60 -30 -72 -22 -8 5 0 13 26 23 21 9 31 16 23 16 -8 1 -22 -3 -30 -8z"/>
<path d="M1793 1603 c15 -2 27 -7 27 -11 0 -4 18 -8 40 -9 22 0 46 -6 54 -12
7 -6 16 -8 19 -4 14 13 6 21 -19 21 -15 0 -29 4 -33 9 -3 5 -31 9 -61 10 -30
0 -43 -2 -27 -4z"/>
<path d="M2460 1575 c-14 -8 -19 -14 -12 -15 8 0 10 -5 6 -12 -5 -8 -2 -9 9
-5 10 3 17 2 17 -3 0 -5 -11 -12 -25 -16 -14 -3 -29 -13 -33 -20 -7 -12 -12
-11 -28 7 -10 12 -14 20 -9 17 6 -4 21 0 35 8 l25 14 -30 -6 c-16 -4 -39 -11
-50 -17 -18 -10 -18 -10 5 -19 13 -5 28 -14 32 -21 5 -8 13 -6 27 8 22 19 39
15 25 -7 -14 -22 -13 -37 3 -31 11 4 12 8 2 14 -9 5 -2 14 22 28 39 24 45 25
54 11 3 -5 1 -10 -5 -10 -6 0 -8 -5 -4 -11 4 -7 0 -9 -14 -5 -11 4 -23 3 -25
-1 -3 -5 2 -9 11 -10 9 -1 28 -4 42 -7 21 -5 22 -5 5 3 -18 8 -19 9 -2 16 9 4
23 3 30 -1 17 -12 -18 20 -51 47 -18 13 -21 19 -9 15 11 -3 31 -9 45 -12 23
-4 24 -4 9 6 -9 6 -34 13 -55 15 -56 5 -59 6 -37 14 11 5 28 5 37 0 9 -5 25
-9 35 -8 10 0 3 6 -17 14 -44 17 -40 17 -70 0z"/>
<path d="M681 1563 c-29 -6 -74 -33 -67 -41 3 -3 12 1 21 8 8 7 15 9 15 5 0
-4 7 -2 15 5 8 7 21 10 28 7 8 -3 14 1 14 9 0 8 -1 13 -1 13 -1 -1 -12 -4 -25
-6z"/>
<path d="M1087 1544 c-20 -27 -16 -44 6 -26 7 6 18 7 26 3 11 -7 9 -11 -5 -20
-11 -6 -14 -11 -8 -11 6 0 17 6 23 14 10 12 8 17 -8 25 -12 7 -18 17 -15 26 9
22 2 18 -19 -11z"/>
<path d="M2190 1549 c0 -4 15 -11 33 -14 17 -4 37 -11 42 -16 16 -12 65 -19
65 -9 0 13 -10 17 -78 33 -34 8 -62 11 -62 6z"/>
<path d="M884 1543 c8 -14 -10 -27 -19 -13 -8 13 -25 3 -25 -13 0 -7 4 -6 10
3 8 13 11 11 16 -7 3 -12 12 -19 18 -17 14 5 15 39 1 51 -4 5 -5 3 -1 -4z"/>
<path d="M476 1518 c-9 -12 -16 -18 -16 -13 0 11 -20 -16 -20 -26 0 -4 7 -10
16 -13 8 -3 12 -2 9 4 -3 6 3 24 15 40 12 17 19 30 16 30 -3 0 -12 -10 -20
-22z"/>
<path d="M1437 1531 c-10 -4 -19 -11 -19 -16 0 -6 -4 -16 -10 -23 -14 -16 24
-3 70 26 l32 19 -27 0 c-16 1 -36 -2 -46 -6z"/>
<path d="M947 1500 c-8 -11 -17 -17 -21 -13 -4 4 -4 0 0 -10 4 -12 2 -16 -7
-14 -8 2 -11 2 -6 0 4 -3 5 -8 2 -13 -3 -4 1 -13 9 -19 10 -9 17 -7 27 5 12
15 11 16 -11 9 -24 -7 -24 -7 -5 9 11 8 16 16 11 16 -4 0 -1 11 8 25 19 30 13
34 -7 5z"/>
<path d="M1516 1511 c-3 -4 -20 -11 -37 -15 -18 -3 -30 -9 -27 -12 11 -11 75
8 75 22 0 16 -4 18 -11 5z"/>
<path d="M1547 1493 c-13 -12 -7 -24 11 -22 9 1 19 0 22 -1 3 -1 17 -3 31 -4
21 -2 25 1 21 16 -5 20 -17 24 -28 7 -4 -8 -9 -8 -17 0 -12 12 -30 14 -40 4z"/>
<path d="M2349 1498 c0 -2 -3 -22 -5 -45 -4 -35 -2 -42 15 -48 17 -5 37 -47
32 -68 -1 -5 3 -6 9 -2 6 3 8 10 5 15 -3 5 -7 23 -9 41 -2 18 -13 39 -26 49
l-23 17 22 6 c11 3 21 11 21 19 0 11 -2 10 -9 -1 -5 -7 -14 -10 -21 -6 -9 6
-9 9 1 16 10 6 11 9 2 9 -7 0 -13 -1 -14 -2z"/>
<path d="M684 1459 c-3 -6 -22 -9 -43 -6 -20 3 -28 3 -18 1 20 -6 22 -20 5
-28 -7 -3 -2 -3 11 0 16 4 21 3 17 -5 -4 -6 -2 -11 4 -11 12 0 49 39 50 53 0
11 -18 8 -26 -4z"/>
<path d="M1454 1464 c-10 -4 -8 -44 2 -44 2 0 20 11 40 25 l37 25 -34 -1 c-19
0 -39 -3 -45 -5z"/>
<path d="M1102 1455 c9 -9 -10 -47 -20 -41 -4 2 -8 -4 -8 -15 0 -18 1 -18 18
3 l17 23 10 -25 10 -25 -2 27 c-1 15 -6 24 -11 21 -5 -4 -7 1 -3 10 3 9 1 19
-6 23 -7 4 -9 4 -5 -1z"/>
<path d="M1513 1442 c-28 -13 -32 -19 -26 -41 3 -14 8 -28 10 -31 7 -8 36 16
39 32 1 8 5 25 9 37 3 11 5 20 3 20 -2 -1 -18 -9 -35 -17z"/>
<path d="M2405 1440 c-8 -13 4 -32 16 -25 5 4 9 -1 9 -10 0 -9 -4 -14 -9 -10
-5 3 -13 0 -17 -6 -4 -8 -3 -9 4 -5 13 8 35 -37 34 -69 -1 -15 1 -16 8 -6 4 8
6 20 3 28 -3 7 1 13 8 13 8 0 6 5 -6 13 -13 10 -15 16 -6 21 9 6 9 11 -1 24
-10 12 -10 14 0 8 17 -10 15 -1 -4 18 -18 18 -30 20 -39 6z"/>
<path d="M713 1433 c-7 -3 -13 -10 -13 -16 0 -6 -10 -22 -22 -36 -12 -14 -5
-9 17 11 38 36 44 50 18 41z"/>
<path d="M1575 1420 c-10 -11 -21 -18 -25 -15 -4 2 -7 -2 -7 -10 0 -22 15 -18
28 6 9 17 13 19 20 8 6 -10 8 -7 6 9 -2 27 0 26 -22 2z"/>
<path d="M2475 1417 c-14 -8 -15 -11 -4 -18 21 -13 32 -11 25 6 -5 13 -1 12
19 -2 13 -10 25 -24 25 -30 0 -7 5 -13 11 -13 5 0 7 -4 4 -10 -3 -5 -4 -10 -1
-10 3 0 10 9 16 20 6 11 7 19 3 18 -12 -4 -64 33 -58 41 6 11 -20 9 -40 -2z"/>
<path d="M324 1361 c-7 -33 -7 -48 0 -44 5 4 7 -1 3 -10 -3 -9 -2 -19 3 -22 6
-4 10 20 10 59 0 36 -1 66 -3 66 -2 0 -8 -22 -13 -49z"/>
<path d="M503 1395 c-6 -11 -8 -26 -6 -33 3 -7 1 -18 -5 -25 -5 -7 -12 -25
-16 -42 -12 -48 9 -17 29 43 17 55 16 93 -2 57z"/>
<path d="M780 1387 c-18 -18 -22 -18 -17 -4 8 23 0 22 -13 -2 -9 -17 -7 -20
19 -19 15 1 34 -3 42 -7 8 -5 6 1 -4 12 -11 13 -14 23 -8 27 5 4 14 -2 20 -11
6 -10 11 -13 11 -7 0 6 -6 16 -13 22 -10 9 -19 6 -37 -11z"/>
<path d="M990 1396 c0 -8 -5 -16 -10 -18 -6 -2 -4 -12 6 -26 8 -12 20 -20 25
-17 14 9 11 25 -5 25 -9 0 -12 8 -8 25 2 14 2 25 -2 25 -3 0 -6 -6 -6 -14z"/>
<path d="M2313 1389 c-9 -9 -10 -16 -2 -26 9 -10 8 -13 -2 -13 -10 0 -10 -3
-2 -11 6 -6 9 -19 6 -28 -4 -12 -3 -13 5 -3 5 8 8 25 6 38 -1 16 2 24 9 21 7
-2 12 -10 12 -18 1 -27 18 -114 24 -126 4 -8 11 -9 21 -3 12 8 12 10 -4 10
-15 0 -16 3 -6 15 10 12 9 23 -3 54 -12 29 -13 41 -4 50 8 9 8 11 1 9 -6 -2
-20 7 -30 20 -15 18 -22 20 -31 11z"/>
<path d="M878 1378 c9 -9 6 -14 -10 -22 -11 -6 -25 -22 -30 -36 l-8 -25 19 24
c12 15 23 21 31 16 8 -5 11 -4 7 2 -4 6 1 17 10 24 10 8 14 9 10 2 -4 -6 -3
-14 3 -18 5 -3 10 1 10 9 0 8 -9 20 -19 26 -26 13 -38 13 -23 -2z"/>
<path d="M2469 1378 c7 -10 11 -25 7 -34 -8 -21 9 -50 34 -57 11 -3 18 -1 14
4 -3 5 -11 9 -17 9 -7 0 -13 14 -14 32 -1 17 -10 39 -20 47 -16 15 -16 15 -4
-1z"/>
<path d="M597 1355 c-20 -14 -37 -28 -37 -31 0 -3 5 -2 10 1 6 3 10 1 10 -5 0
-6 5 -8 11 -5 6 4 8 9 5 12 -2 3 7 16 22 29 35 31 26 30 -21 -1z"/>
<path d="M1497 1337 c-34 -45 -67 -108 -67 -130 0 -10 -4 -26 -9 -36 -5 -9
-11 -37 -14 -60 -2 -28 -11 -49 -22 -57 -18 -14 -18 -14 1 -15 10 0 14 -3 7
-5 -8 -4 -6 -16 9 -42 12 -22 21 -56 21 -84 0 -27 5 -48 10 -48 4 0 6 -13 3
-30 -5 -32 4 -39 23 -17 8 10 7 28 -3 67 -8 30 -12 59 -9 67 3 7 -2 20 -11 28
-18 19 -22 80 -5 91 6 3 15 0 20 -7 13 -22 12 7 -2 33 -9 16 -8 35 2 77 9 38
14 49 17 33 2 -12 8 -20 13 -17 5 4 10 -1 10 -9 3 -30 4 -34 13 -43 5 -5 6 -2
1 6 -6 10 -4 12 4 7 9 -6 9 -11 0 -23 -11 -12 -10 -14 3 -11 9 1 16 -1 15 -7
-1 -5 -8 -9 -15 -9 -10 2 -10 -1 -1 -13 16 -19 63 -43 84 -43 21 0 9 19 -19
30 -20 7 -23 16 -25 67 -1 44 -8 68 -28 97 -18 28 -23 44 -16 55 14 22 31 24
36 4 4 -17 5 -17 6 0 1 13 6 17 20 12 29 -9 44 18 21 38 -18 15 -19 15 -25 -3
-8 -25 -38 -14 -32 11 8 29 -8 23 -36 -14z m43 -154 c0 -16 -22 -17 -38 -1
-13 13 -16 50 -5 61 7 8 43 -42 43 -60z"/>
<path d="M2275 1341 c-5 -16 -3 -26 6 -32 18 -11 22 1 11 32 l-9 24 -8 -24z"/>
<path d="M1021 1336 c-10 -12 -9 -21 3 -43 8 -15 15 -21 16 -13 0 9 9 2 20
-15 11 -16 20 -24 20 -16 0 7 -12 25 -26 38 -17 16 -24 31 -21 43 6 24 3 25
-12 6z"/>
<path d="M628 1323 c-23 -27 -33 -47 -20 -39 7 4 22 9 34 11 21 4 38 21 38 38
0 5 -7 1 -16 -7 -20 -20 -28 -20 -20 -1 7 20 2 19 -16 -2z"/>
<path d="M860 1326 c0 -2 14 -17 30 -34 19 -21 30 -26 30 -17 0 8 -5 15 -11
15 -5 0 -8 3 -5 8 2 4 -7 12 -20 19 -13 6 -24 10 -24 9z"/>
<path d="M939 1325 c-1 -3 -2 -18 -3 -34 -1 -22 2 -27 12 -19 9 8 12 5 12 -12
0 -16 -4 -20 -16 -16 -8 3 -12 2 -9 -4 9 -15 32 -12 38 4 3 8 -1 22 -8 33 -18
23 -19 37 -2 27 8 -5 8 -2 -2 9 -14 17 -20 21 -22 12z"/>
<path d="M534 1313 c4 -8 2 -13 -6 -13 -9 -1 -7 -4 3 -10 23 -13 18 -89 -7
-107 -10 -7 -15 -13 -11 -13 4 0 3 -9 -3 -19 -7 -13 -7 -27 0 -43 l11 -23 -5
24 c-5 23 6 50 34 84 8 10 13 32 12 49 -1 17 3 38 10 47 12 14 11 14 -4 2 -10
-7 -19 -11 -19 -7 -1 3 -2 10 -3 15 0 5 -5 13 -10 18 -5 5 -6 3 -2 -4z"/>
<path d="M789 1301 c-13 -10 -32 -17 -42 -15 -9 1 -15 -1 -12 -6 3 -5 13 -7
23 -5 9 2 22 4 29 4 7 1 17 10 23 21 13 25 9 25 -21 1z"/>
<path d="M2715 1291 c-6 -29 11 -79 22 -67 4 3 1 17 -6 30 -10 18 -10 29 -2
45 7 12 8 21 2 21 -5 0 -12 -13 -16 -29z"/>
<path d="M2235 1290 c3 -5 0 -10 -7 -10 -8 0 -22 -22 -33 -49 -15 -40 -22 -48
-35 -41 -23 12 -21 -25 2 -39 15 -9 19 -7 24 14 4 15 11 22 18 18 7 -5 7 -2
-1 8 -8 9 -9 20 -3 29 8 12 10 11 10 -5 0 -16 3 -14 16 10 8 16 22 37 30 46
19 21 18 29 -7 29 -11 0 -17 -4 -14 -10z"/>
<path d="M2451 1291 c-11 -7 -11 -10 0 -17 22 -14 82 -34 102 -34 10 0 16 -4
12 -9 -9 -16 12 -22 24 -7 9 11 6 16 -18 24 -16 6 -31 8 -34 6 -3 -3 -21 3
-41 14 -19 11 -33 22 -29 26 9 9 0 7 -16 -3z"/>
<path d="M985 1265 c4 -11 10 -33 13 -49 3 -22 2 -27 -8 -21 -9 5 -11 4 -6 -3
4 -7 14 -12 22 -12 11 0 13 -6 8 -22 -3 -13 -3 -20 1 -16 5 4 15 2 23 -5 13
-11 14 -9 2 13 -29 55 -32 62 -21 56 16 -10 2 24 -22 54 -15 19 -18 20 -12 5z"/>
<path d="M335 1253 c-15 -37 -14 -87 1 -104 17 -19 15 -55 -2 -52 -6 1 -11 -4
-11 -11 0 -7 10 -13 21 -12 15 1 22 9 24 28 4 33 -15 71 -30 62 -7 -4 -8 -3
-4 5 4 6 11 9 15 7 4 -3 8 17 8 45 1 50 -9 63 -22 32z"/>
<path d="M605 1223 c-39 -48 -54 -74 -54 -93 0 -11 2 -11 6 -2 4 10 8 10 20 0
12 -10 18 -9 28 6 10 13 14 14 18 4 2 -7 3 -5 2 5 -2 9 1 17 7 17 5 0 8 17 7
38 -2 21 1 36 7 35 6 -1 11 5 11 13 0 24 -21 15 -52 -23z m4 -67 c-13 -28 -24
-33 -35 -15 -4 7 4 20 17 30 29 22 33 19 18 -15z"/>
<path d="M743 1253 c14 -4 16 -8 6 -19 -9 -11 -8 -14 5 -14 10 0 14 5 11 10
-3 6 4 10 17 11 23 1 23 1 -2 9 -14 4 -32 8 -40 8 -9 0 -8 -2 3 -5z"/>
<path d="M2711 1169 c5 -22 7 -43 5 -47 -2 -4 2 -18 9 -32 15 -27 15 -28 0 75
-1 11 -3 26 -4 33 0 6 -5 12 -10 12 -5 0 -5 -17 0 -41z"/>
<path d="M773 1193 c-7 -2 -13 -11 -13 -18 0 -7 -7 -16 -16 -19 -8 -3 -13 -10
-9 -15 3 -5 1 -12 -5 -16 -5 -3 -10 -11 -10 -17 0 -9 41 41 64 80 8 13 7 13
-11 5z"/>
<path d="M1095 1189 c-8 -12 24 -51 36 -44 4 3 11 0 15 -6 5 -8 2 -10 -7 -4
-8 4 0 -4 16 -18 35 -30 49 -26 16 4 -15 14 -19 24 -12 33 6 7 6 17 1 26 -7
11 -10 12 -10 2 0 -7 -4 -11 -9 -8 -5 4 -11 1 -13 -6 -2 -6 -10 -8 -17 -4 -7
5 -10 14 -7 22 6 16 0 19 -9 3z"/>
<path d="M2355 1180 c2 -4 24 -10 47 -14 23 -4 47 -11 53 -16 6 -5 16 -5 23
-1 9 5 8 12 -3 27 -8 10 -15 15 -14 9 3 -21 -1 -30 -9 -19 -8 12 -104 26 -97
14z"/>
<path d="M830 1151 c-7 -17 -21 -32 -33 -34 -22 -4 -22 -4 0 -6 15 -1 27 8 37
27 9 15 15 20 16 12 0 -13 1 -13 10 0 13 21 12 30 -4 30 -7 0 -19 -13 -26 -29z"/>
<path d="M2247 1159 c6 -20 47 -51 57 -42 3 3 -6 14 -19 25 -14 11 -23 23 -21
27 3 4 -1 8 -8 8 -8 0 -11 -8 -9 -18z"/>
<path d="M464 1147 c-13 -15 -13 -67 1 -67 5 0 1 -7 -9 -15 -11 -8 -14 -15 -8
-15 8 0 12 -23 12 -72 0 -117 12 -268 22 -268 4 0 7 6 6 13 -2 6 3 11 10 9 8
-1 11 2 7 8 -3 6 -12 7 -18 3 -8 -4 -7 -1 1 9 13 17 9 75 -9 109 -5 10 -3 21
4 29 7 8 8 14 2 16 -6 2 -9 41 -8 91 0 48 -3 97 -7 109 -6 15 -5 24 2 26 6 2
9 9 7 15 -3 8 -7 8 -15 0z"/>
<path d="M904 1145 c-11 -27 0 -36 24 -19 12 8 20 20 17 25 -9 14 -35 11 -41
-6z"/>
<path d="M1230 1136 c0 -9 9 -16 20 -16 10 0 24 -8 29 -17 6 -10 11 -13 11 -7
0 11 -23 34 -47 48 -8 4 -13 1 -13 -8z"/>
<path d="M2500 1139 c0 -5 -4 -7 -10 -4 -5 3 -10 1 -10 -5 0 -6 -5 -8 -12 -4
-6 4 -8 3 -5 -4 4 -5 16 -8 26 -5 11 3 27 1 36 -5 16 -8 16 -9 1 -15 -10 -4
-15 -3 -11 3 3 6 -1 10 -11 10 -14 0 -14 -3 -4 -15 7 -9 19 -14 26 -11 8 3 19
-3 26 -13 19 -26 35 -32 33 -13 -2 27 -14 42 -31 35 -8 -3 -14 -2 -12 3 2 5
-7 19 -19 32 -13 12 -23 17 -23 11z"/>
<path d="M1060 1125 c0 -11 9 -26 20 -33 25 -15 25 -4 0 28 -18 23 -20 23 -20
5z"/>
<path d="M2130 1131 c0 -12 71 -54 78 -46 3 3 1 5 -4 5 -5 0 -22 11 -38 25
-32 28 -36 29 -36 16z"/>
<path d="M1207 1101 c-3 -13 4 -28 20 -43 48 -44 102 -119 97 -133 -4 -8 1
-18 10 -21 15 -6 15 -8 -1 -20 -10 -7 -13 -14 -6 -14 7 0 20 -16 29 -35 9 -19
21 -35 26 -35 6 0 5 -6 -2 -15 -11 -13 -8 -15 13 -15 21 0 25 -4 20 -17 -4
-10 -11 -21 -17 -25 -7 -5 -4 -8 7 -8 9 0 17 -5 17 -11 0 -6 5 -9 12 -7 14 5
20 38 7 38 -5 0 -9 7 -9 15 0 9 -11 28 -24 42 -14 15 -22 31 -19 36 3 5 0 12
-6 16 -6 4 -14 20 -17 36 -3 15 -12 42 -21 59 -10 17 -16 34 -15 39 1 4 -4 6
-10 5 -8 -2 -12 5 -10 18 2 17 -2 21 -20 20 -14 -1 -22 4 -20 12 1 8 -2 11 -8
7 -5 -3 -11 -1 -11 4 -3 22 -5 27 -20 49 -16 22 -17 22 -22 3z"/>
<path d="M1590 1119 c0 -18 44 -90 59 -99 14 -7 10 4 -16 43 -37 56 -43 63
-43 56z"/>
<path d="M583 1068 c0 -21 3 -35 8 -32 5 3 9 15 9 28 0 12 4 26 10 32 6 6 4
10 -8 10 -13 0 -17 -9 -19 -38z"/>
<path d="M937 1093 c6 -15 5 -16 -9 -5 -10 8 -19 9 -22 3 -4 -5 -2 -12 4 -16
5 -3 10 -3 10 1 0 4 8 -1 19 -10 10 -9 19 -28 19 -42 l0 -26 -21 20 c-16 17
-24 18 -43 10 -28 -13 -30 -21 -7 -39 9 -8 14 -9 10 -3 -3 6 0 20 7 30 13 17
13 14 6 -23 -4 -24 -3 -40 1 -37 5 3 9 17 9 30 0 16 5 24 13 21 6 -2 11 -10 9
-17 -3 -11 0 -11 12 -1 9 8 14 25 12 42 -2 16 -1 29 3 29 11 0 33 -17 33 -25
0 -4 -6 -12 -14 -16 -7 -5 -8 -9 -2 -9 5 0 19 7 30 15 16 13 16 14 1 9 -13 -5
-16 -2 -11 10 3 9 2 16 -4 16 -6 0 -24 12 -41 26 -25 21 -30 22 -24 7z"/>
<path d="M167 1068 c-28 -39 -46 -72 -22 -43 9 11 19 19 23 19 4 -1 6 3 4 8
-2 6 5 19 14 29 9 11 14 19 11 19 -3 0 -17 -15 -30 -32z"/>
<path d="M2383 1086 c3 -8 1 -18 -4 -22 -6 -4 -2 -15 11 -29 12 -13 22 -29 24
-36 1 -8 5 -20 9 -26 5 -7 5 -13 2 -13 -4 0 8 -19 27 -42 18 -23 33 -47 33
-53 1 -5 7 -9 14 -7 7 1 10 -2 6 -7 -8 -13 24 -63 36 -55 5 3 9 10 9 15 0 6
-5 7 -11 3 -6 -3 -4 5 6 19 16 26 10 38 -22 43 -15 3 -60 44 -47 44 5 0 -2 6
-16 13 -14 7 -26 18 -26 25 -1 7 -2 13 -3 15 -2 1 -4 15 -6 32 -2 16 -11 35
-20 41 -11 8 -13 14 -5 19 6 4 20 -1 31 -11 10 -9 19 -14 19 -9 0 8 -24 29
-54 46 -16 9 -18 9 -13 -5z"/>
<path d="M770 1075 c-11 -13 -15 -13 -23 -3 -6 9 -7 8 -3 -4 3 -11 0 -18 -8
-18 -7 0 -21 -10 -32 -22 -19 -23 -19 -23 1 -7 11 9 35 21 53 29 17 7 32 19
32 26 0 18 -5 18 -20 -1z"/>
<path d="M2127 1083 c-2 -5 7 -18 19 -29 18 -18 24 -19 28 -7 3 8 11 11 17 7
8 -4 9 -3 5 4 -4 6 -13 9 -20 6 -7 -3 -16 2 -19 10 -7 17 -23 21 -30 9z"/>
<path d="M391 1060 c-1 -20 -3 -22 -12 -10 -8 11 -9 7 -4 -18 4 -20 2 -38 -5
-47 -8 -9 -8 -15 -2 -15 5 0 8 -9 5 -20 -3 -11 -9 -18 -13 -15 -5 3 -12 0 -16
-6 -4 -8 -3 -9 4 -5 7 4 12 3 12 -2 0 -5 7 -9 15 -9 14 0 17 10 19 65 1 9 3
19 6 22 3 3 2 23 -1 45 -4 25 -7 31 -8 15z"/>
<path d="M1040 1052 c19 -26 20 -31 7 -61 -10 -23 -16 -29 -21 -20 -3 8 -3 4
0 -8 3 -15 1 -23 -7 -23 -10 0 -10 -3 -1 -12 16 -16 15 -29 0 -25 -7 1 -13 -4
-12 -10 4 -49 3 -48 18 -28 8 11 12 32 10 48 -2 16 1 25 6 22 6 -4 10 6 10 22
0 15 4 33 8 38 11 17 52 16 53 -1 1 -8 3 -18 4 -24 1 -5 3 -14 4 -20 0 -5 6
-10 12 -10 6 0 7 5 2 13 -8 13 -10 18 -12 42 0 9 -9 19 -18 22 -10 4 -28 20
-41 35 -31 36 -49 36 -22 0z"/>
<path d="M529 1035 c-5 -38 11 -165 22 -165 4 0 6 10 4 23 -15 99 -15 110 -3
125 9 10 9 13 1 9 -7 -5 -13 1 -15 15 -4 20 -5 18 -9 -7z"/>
<path d="M1140 1050 c0 -5 5 -10 11 -10 5 0 7 -5 4 -10 -8 -13 4 -50 16 -50 6
0 8 4 4 9 -3 6 3 14 12 20 17 10 17 10 -1 11 -11 0 -17 3 -13 6 3 4 0 13 -8
20 -16 16 -25 18 -25 4z"/>
<path d="M2546 1037 c3 -9 10 -17 14 -17 4 0 20 -25 36 -55 16 -30 32 -55 37
-55 12 0 8 14 -10 40 -16 23 -16 23 3 16 15 -5 16 -4 7 5 -6 6 -9 19 -6 28 4
13 2 13 -10 -2 -10 -12 -17 -14 -22 -8 -3 6 -1 11 4 11 6 0 11 10 11 21 0 18
-2 19 -15 9 -13 -10 -19 -9 -36 6 -17 16 -19 16 -13 1z"/>
<path d="M850 1033 c-29 -11 -50 -36 -45 -54 4 -11 -1 -22 -12 -28 -15 -9 -15
-10 -2 -11 9 0 21 12 27 26 7 14 8 23 2 19 -5 -3 -10 -3 -10 0 0 10 28 35 39
35 5 0 13 5 16 10 7 11 7 11 -15 3z"/>
<path d="M1549 1018 c6 -17 15 -22 35 -20 14 2 26 -2 26 -8 0 -17 43 -29 58
-17 11 8 10 13 -5 21 -10 6 -29 12 -42 14 -13 2 -37 10 -52 18 -28 14 -28 14
-20 -8z"/>
<path d="M2293 1005 c11 -7 25 -11 33 -8 8 3 14 1 12 -4 -2 -5 13 -23 32 -39
l35 -29 -22 31 c-29 40 -50 57 -62 50 -5 -4 -12 -2 -16 4 -3 5 -12 10 -18 10
-7 0 -4 -7 6 -15z"/>
<path d="M1686 987 c-3 -12 -6 -32 -6 -44 0 -13 -5 -23 -11 -23 -5 0 -7 -4 -4
-10 9 -15 -20 -12 -59 7 -30 14 -37 14 -51 3 -16 -13 -15 -15 2 -21 10 -3 24
-2 31 3 9 8 12 5 12 -10 0 -24 15 -36 31 -26 8 4 7 9 -2 15 -11 7 -11 9 2 9
10 0 19 -11 23 -30 8 -44 36 -69 76 -70 19 0 53 -1 75 -1 22 0 66 2 97 4 32 3
60 1 64 -4 3 -5 -22 -9 -56 -9 -44 0 -70 -5 -88 -18 -30 -21 -142 -31 -142
-13 0 6 4 11 10 11 5 0 -2 11 -16 25 -31 32 -45 33 -16 2 31 -33 15 -42 -22
-14 -38 28 -66 40 -66 27 0 -6 8 -10 17 -10 12 0 14 -3 7 -10 -19 -19 -40 -1
-42 38 -1 20 -8 55 -16 77 l-15 40 -1 -37 c0 -20 5 -40 11 -43 6 -4 8 -13 5
-20 -3 -8 0 -16 7 -18 9 -3 9 -8 0 -18 -7 -7 -13 -9 -13 -3 0 5 -8 10 -18 11
-9 1 -24 3 -31 5 -8 2 -16 -4 -18 -13 -3 -11 2 -16 14 -15 12 1 19 -8 23 -28
l5 -29 14 26 c9 16 19 24 25 19 6 -5 24 -14 40 -21 26 -10 28 -10 17 3 -7 8
-8 17 -3 20 6 3 15 -1 22 -9 10 -12 10 -18 0 -30 -18 -21 -5 -30 23 -18 17 8
37 7 75 -2 63 -17 162 -9 180 13 7 9 12 11 12 4 0 -7 17 -10 53 -8 28 2 62 0
74 -5 32 -12 60 36 54 93 -4 31 -6 36 -9 18 -2 -14 -9 -31 -15 -39 -10 -12 -9
-13 1 -7 10 6 13 3 10 -10 -3 -16 -15 -18 -113 -19 -61 -1 -119 -6 -130 -10
-18 -8 -18 -7 -7 8 11 12 35 17 105 19 50 2 92 8 94 13 7 21 -95 35 -173 24
-58 -9 -77 -9 -89 1 -14 12 -14 15 0 30 20 22 19 44 -2 61 -16 13 -17 12 -4
-3 8 -11 9 -18 3 -18 -6 0 -12 -10 -14 -22 -6 -40 -28 -33 -28 10 0 27 -5 42
-15 46 -14 5 -14 9 0 35 19 37 19 47 1 54 -9 4 -16 -3 -20 -16z m19 -114 c1
-21 -3 -29 -12 -26 -7 3 -13 -1 -13 -8 0 -11 -2 -11 -9 0 -5 8 -7 20 -5 28 2
7 6 20 9 29 8 26 30 10 30 -23z"/>
<path d="M2200 1006 c0 -2 16 -13 35 -25 25 -15 33 -25 28 -37 -4 -12 -3 -15
5 -10 7 4 12 2 12 -3 0 -6 3 -10 8 -9 4 1 17 -3 29 -10 18 -10 21 -9 19 6 -2
9 -11 17 -22 17 -10 0 -24 10 -30 23 -6 13 -14 23 -18 22 -3 0 -20 7 -36 15
-17 9 -30 14 -30 11z"/>
<path d="M2507 992 c17 -12 17 -14 1 -26 -15 -11 -15 -13 4 -25 15 -9 18 -9
13 0 -5 7 -3 10 6 7 8 -3 13 -12 11 -21 -3 -21 17 -32 31 -17 9 9 9 11 -3 8
-8 -2 -14 2 -15 7 0 6 -4 16 -8 23 -5 6 -5 12 -1 12 4 0 0 8 -9 18 -10 10 -15
21 -12 23 2 3 -5 5 -16 5 -19 0 -20 -1 -2 -14z"/>
<path d="M701 984 c-18 -13 -25 -14 -31 -4 -5 9 -8 8 -13 -2 -4 -11 7 -14 48
-14 50 1 64 11 40 28 -14 11 -18 10 -44 -8z"/>
<path d="M865 976 c12 -19 13 -25 3 -34 -7 -6 -16 -11 -20 -11 -5 -1 -8 -4 -7
-7 0 -4 -5 -11 -13 -15 -7 -5 -8 -9 -2 -9 6 0 24 11 39 24 28 24 28 25 11 50
-9 14 -19 26 -21 26 -3 0 1 -11 10 -24z"/>
<path d="M1200 969 c0 -6 -7 -8 -16 -5 -9 4 -13 2 -8 -6 4 -6 7 -24 6 -39 l-1
-29 21 20 c24 22 38 19 19 -4 -11 -13 -9 -13 13 -3 20 10 22 13 10 20 -13 7
-13 11 -2 25 11 15 10 14 -8 0 -11 -10 -26 -18 -32 -18 -20 0 -13 20 10 29 18
6 19 9 5 14 -10 4 -17 2 -17 -4z"/>
<path d="M170 945 c0 -9 -4 -14 -9 -11 -11 7 -7 -41 4 -52 4 -4 4 3 1 16 -4
12 -3 22 2 22 14 0 23 28 12 35 -6 4 -10 -1 -10 -10z"/>
<path d="M689 933 c9 -18 6 -25 -19 -46 -16 -14 -26 -27 -23 -30 3 -4 19 9 36
28 40 46 53 45 22 -1 -14 -20 -25 -43 -25 -50 0 -8 -4 -14 -10 -14 -5 0 -10
-5 -10 -11 0 -21 24 -2 33 27 6 16 18 41 28 55 17 24 17 28 4 39 -12 10 -15
10 -15 -1 0 -8 -6 -5 -16 7 -15 18 -15 18 -5 -3z"/>
<path d="M309 903 c-10 -12 -10 -14 -1 -9 21 13 13 -10 -13 -34 -13 -12 -22
-27 -19 -32 7 -12 44 20 44 38 0 7 6 11 14 8 8 -3 17 -1 21 5 4 7 0 8 -11 4
-13 -5 -16 -3 -11 10 9 23 -8 30 -24 10z"/>
<path d="M1104 875 c12 -19 14 -30 6 -44 -13 -25 -13 -31 0 -31 6 0 10 9 10
20 0 11 7 23 15 26 21 8 19 31 -4 44 -34 18 -45 12 -27 -15z"/>
<path d="M1245 883 c2 -10 4 -31 4 -46 1 -18 5 -26 12 -21 6 3 16 0 21 -7 6
-10 7 -6 2 11 -3 14 -13 32 -20 41 -8 9 -11 18 -8 21 3 3 1 9 -4 12 -6 3 -9
-2 -7 -11z"/>
<path d="M42 878 c-14 -14 -16 -48 -3 -48 8 0 23 51 17 57 -1 2 -8 -3 -14 -9z"/>
<path d="M896 875 c-11 -8 -16 -15 -11 -15 5 0 1 -6 -9 -13 -15 -11 -16 -15
-5 -19 9 -3 20 7 30 28 9 19 16 34 15 34 0 0 -10 -7 -20 -15z"/>
<path d="M2370 880 c-12 -8 -6 -17 33 -51 43 -37 55 -68 20 -55 -8 4 -11 1 -8
-5 4 -6 13 -8 20 -5 7 2 18 -1 24 -7 16 -16 13 5 -5 31 -11 16 -12 22 -3 22 7
0 -1 12 -19 26 -17 15 -29 30 -26 35 3 5 -3 6 -12 2 -12 -4 -15 -3 -10 5 9 14
6 15 -14 2z"/>
<path d="M1051 855 c0 -12 -14 -36 -30 -55 -35 -43 -30 -74 5 -33 27 31 38 62
31 90 -4 16 -5 16 -6 -2z"/>
<path d="M1818 845 c-4 -19 -2 -23 5 -16 6 6 30 11 54 11 25 0 43 5 43 11 0 8
-13 9 -42 5 -27 -4 -44 -3 -48 5 -4 6 -9 0 -12 -16z"/>
<path d="M2130 862 c0 -6 -7 -12 -17 -14 -14 -3 -14 -5 2 -18 11 -8 16 -10 12
-4 -3 6 0 11 7 11 9 0 12 -7 8 -16 -3 -9 -2 -13 3 -9 4 4 17 3 29 -3 20 -10
20 -9 2 5 -12 10 -16 21 -12 33 4 9 4 14 0 10 -4 -4 -13 -2 -21 4 -9 8 -13 8
-13 1z"/>
<path d="M424 837 c-3 -13 -4 -41 -1 -63 4 -38 4 -38 5 8 1 26 7 50 12 53 13
8 13 25 0 25 -5 0 -12 -11 -16 -23z"/>
<path d="M224 794 c-14 -31 -23 -63 -20 -71 3 -8 2 -11 -4 -8 -13 8 -24 -59
-17 -102 9 -51 30 -70 24 -21 -7 54 27 233 42 224 4 -3 7 4 7 15 0 29 -5 24
-32 -37z"/>
<path d="M802 838 c-7 -7 -12 -17 -12 -22 0 -6 7 -2 15 8 13 17 15 17 21 3 3
-9 10 -15 14 -12 5 3 13 -3 19 -12 6 -11 11 -13 11 -5 0 7 -7 20 -15 28 -8 9
-15 12 -15 8 0 -3 -6 -2 -13 5 -10 8 -17 7 -25 -1z"/>
<path d="M1194 822 c-12 -34 -7 -75 8 -66 7 5 9 1 5 -9 -3 -10 -2 -17 3 -17 6
0 10 -6 10 -13 0 -7 7 -22 15 -33 12 -15 12 -12 -1 21 -9 22 -18 62 -20 89 -4
59 -7 63 -20 28z"/>
<path d="M605 801 c-4 -8 -2 -16 5 -21 7 -4 9 -13 6 -19 -4 -6 -4 -11 1 -11 4
0 9 -15 10 -34 2 -19 7 -44 12 -57 9 -22 10 -21 10 13 1 20 -4 40 -9 43 -6 4
-8 10 -5 15 2 4 -1 25 -8 46 -9 26 -16 34 -22 25z"/>
<path d="M813 791 c-4 -9 -8 -20 -11 -25 -3 -5 0 -6 6 -2 6 3 14 1 18 -5 3 -6
1 -15 -6 -19 -7 -4 -9 -13 -5 -21 6 -9 11 -6 17 11 5 14 5 27 -2 34 -13 13
-13 27 1 24 6 -2 13 2 16 8 2 6 -4 11 -13 11 -9 0 -18 -7 -21 -16z"/>
<path d="M967 778 c-8 -20 -18 -56 -21 -80 -3 -24 -8 -52 -11 -63 -7 -27 8
-78 26 -83 11 -3 11 -2 1 6 -23 16 -15 130 9 124 10 -2 10 0 0 11 -12 16 -6
62 11 84 6 7 8 18 5 25 -2 7 -11 -4 -20 -24z"/>
<path d="M2240 779 c12 -16 24 -28 27 -25 3 3 16 1 29 -4 13 -5 24 -7 24 -5 0
6 -52 27 -60 25 -2 -1 -7 8 -12 19 -4 12 -12 21 -18 21 -6 0 -2 -14 10 -31z"/>
<path d="M572 743 c2 -50 5 -59 16 -51 7 6 9 14 5 17 -5 3 -10 24 -12 46 -5
65 -13 55 -9 -12z"/>
<path d="M650 780 c0 -6 5 -8 10 -5 6 3 10 2 10 -4 0 -5 -4 -13 -10 -16 -5 -3
-10 -11 -10 -16 0 -6 5 -7 12 -3 8 5 9 2 5 -10 -4 -9 -3 -15 2 -12 13 8 7 69
-7 74 -6 2 -12 -1 -12 -8z"/>
<path d="M2145 780 c6 -10 3 -12 -11 -7 -15 6 -14 3 5 -13 13 -11 32 -20 42
-20 10 0 19 -4 19 -10 0 -5 5 -10 10 -10 23 0 7 19 -25 30 -19 6 -33 15 -30
20 3 5 0 12 -6 16 -8 5 -9 3 -4 -6z"/>
<path d="M1725 760 c-18 -8 -18 -9 5 -8 14 0 36 4 50 8 24 8 24 8 -5 8 -16 0
-39 -3 -50 -8z"/>
<path d="M2537 764 c-6 -6 29 -84 38 -84 8 0 -15 65 -25 68 -6 2 -8 8 -4 13 6
10 0 12 -9 3z"/>
<path d="M1105 750 c-4 -6 -11 -8 -16 -5 -10 7 -11 4 -13 -52 -1 -23 -5 -45
-9 -49 -11 -12 -8 -21 8 -21 11 0 13 8 10 29 -3 18 -2 27 4 24 5 -4 8 -19 7
-34 -2 -15 -4 -32 -5 -39 0 -6 -7 -18 -14 -25 -12 -12 -57 -102 -57 -114 0
-11 25 21 36 46 10 24 11 24 11 -7 0 -18 -3 -30 -7 -28 -3 2 -11 -5 -18 -16
-7 -10 -9 -18 -5 -17 13 5 11 -16 -3 -37 -14 -19 -14 -19 -15 0 -1 11 -1 23 0
28 0 4 -4 7 -9 7 -6 0 -8 -11 -4 -27 10 -42 16 -47 27 -27 10 17 11 17 18 -1
4 -11 8 -40 9 -65 2 -42 2 -43 11 -15 4 16 6 40 2 54 -4 17 -2 22 6 17 6 -4
11 -4 10 1 -1 4 0 10 1 13 10 24 6 104 -5 127 -19 36 -19 43 1 43 10 0 14 6
10 15 -3 8 -1 15 4 15 6 0 10 14 10 30 0 17 5 30 12 30 6 0 2 9 -10 21 -12 11
-20 24 -17 30 4 5 1 9 -6 9 -7 0 -2 11 11 25 13 14 21 25 17 25 -3 0 -9 -5
-12 -10z m-25 -304 c0 -8 3 -21 6 -29 3 -8 -1 -17 -10 -20 -8 -3 -17 0 -20 8
-3 9 0 12 10 8 12 -4 13 -1 4 21 -6 17 -6 26 0 26 6 0 10 -6 10 -14z"/>
<path d="M2115 725 c0 -18 5 -25 19 -25 15 0 16 -3 6 -15 -9 -10 -9 -15 -1
-15 6 0 11 5 11 11 0 5 5 7 10 4 6 -4 8 -11 5 -16 -4 -5 -1 -9 5 -9 7 0 10 6
7 14 -8 21 29 27 46 7 7 -9 21 -28 30 -44 15 -23 21 -26 37 -17 17 9 20 7 20
-10 0 -11 5 -20 10 -20 21 0 0 44 -22 46 -34 3 -39 5 -32 16 5 7 3 8 -6 3 -10
-6 -12 0 -8 22 4 29 3 30 -31 28 -20 -2 -43 -4 -51 -6 -8 -2 -14 2 -12 9 1 6
-6 12 -15 13 -11 0 -13 3 -5 6 14 6 6 23 -11 23 -7 0 -12 -11 -12 -25z"/>
<path d="M2631 733 c-1 -16 -6 -21 -16 -17 -8 4 -15 1 -15 -5 0 -6 5 -10 11
-8 17 3 20 -40 4 -56 -12 -13 -11 -15 15 -19 28 -4 29 -4 13 14 -14 16 -12 22
9 19 3 0 2 16 -3 37 -15 54 -17 59 -18 35z"/>
<path d="M2296 713 c50 -46 74 -63 74 -55 0 4 -24 25 -52 46 -35 25 -42 28
-22 9z"/>
<path d="M2326 732 c-3 -6 3 -16 14 -22 11 -6 20 -8 20 -4 0 4 10 -2 23 -13
38 -34 54 -37 19 -3 -18 18 -36 29 -39 26 -3 -3 -11 2 -18 11 -8 11 -14 12
-19 5z"/>
<path d="M1990 709 c0 -6 -9 -8 -20 -4 -11 3 -20 2 -20 -4 0 -5 8 -12 18 -14
16 -4 16 -5 0 -6 -11 -1 -27 -19 -39 -46 -12 -25 -25 -43 -29 -40 -4 2 -7 -15
-7 -38 0 -38 1 -40 10 -17 6 14 11 29 11 34 1 5 8 13 17 19 20 13 53 2 43 -14
-5 -8 -3 -9 6 -4 10 6 7 13 -13 29 -25 20 -39 55 -17 41 6 -3 10 -2 10 2 0 5
13 23 29 41 20 21 25 32 15 32 -8 0 -14 -5 -14 -11z"/>
<path d="M737 703 c-4 -3 -7 -17 -7 -29 0 -15 -5 -22 -13 -18 -10 4 -12 -3 -9
-26 2 -16 0 -30 -5 -30 -13 0 -13 -25 -2 -90 15 -79 19 -90 32 -87 7 1 11 -6
11 -15 -1 -10 3 -15 8 -12 5 3 7 12 4 20 -3 8 -1 14 4 14 10 0 11 -5 14 -47 0
-12 5 -25 10 -30 5 -4 7 -1 4 7 -3 8 -1 23 3 32 6 12 3 28 -11 53 -22 38 -26
60 -10 50 6 -4 7 1 3 10 -3 10 0 21 8 27 11 8 10 8 -5 4 -15 -5 -17 -2 -13 15
3 11 1 34 -5 52 -18 50 -28 3 -11 -52 7 -24 11 -46 9 -49 -3 -2 -8 9 -12 24
-10 41 -15 48 -25 33 -5 -8 -2 -20 7 -31 9 -9 13 -22 8 -29 -4 -7 -3 -10 4 -5
7 4 10 -1 7 -14 -2 -11 0 -18 6 -15 5 4 9 -1 9 -9 0 -35 -19 -22 -30 22 -7 26
-17 52 -22 59 -6 7 -5 20 3 35 11 20 40 138 34 138 -1 0 -5 -3 -8 -7z"/>
<path d="M1197 691 c-3 -12 -2 -23 3 -26 4 -2 6 -17 4 -32 -2 -16 2 -9 8 15 7
29 8 46 1 53 -7 7 -12 4 -16 -10z"/>
<path d="M1894 696 c-9 -23 7 -38 26 -26 13 8 13 11 -2 26 -16 17 -18 17 -24
0z"/>
<path d="M543 636 c0 -36 3 -63 7 -61 7 4 5 114 -3 121 -2 3 -4 -24 -4 -60z"/>
<path d="M900 670 c-7 -16 -10 -38 -7 -49 2 -10 -1 -45 -7 -77 -11 -56 -3
-124 16 -124 3 0 4 -9 1 -20 -3 -12 0 -20 7 -20 11 0 9 94 -5 240 -1 14 2 36
7 49 13 35 3 37 -12 1z"/>
<path d="M1322 663 c-16 -53 -15 -130 1 -139 6 -4 9 -4 5 1 -4 4 -3 16 2 26 7
12 7 20 0 24 -6 4 -7 13 -1 23 4 9 6 23 4 30 -3 7 -1 18 5 25 5 7 6 20 3 31
-6 15 -10 10 -19 -21z"/>
<path d="M1435 690 c-18 -8 -18 -9 -2 -9 15 -1 16 -4 7 -22 -14 -26 -8 -32 29
-32 19 0 27 -5 24 -13 -8 -21 18 -27 35 -9 10 10 11 15 5 11 -7 -4 -13 -2 -13
4 0 6 -12 15 -26 20 -15 6 -22 14 -18 22 4 6 3 8 -3 5 -6 -4 -13 0 -16 7 -3 8
-1 17 6 20 7 2 8 4 2 5 -5 0 -19 -4 -30 -9z"/>
<path d="M597 674 c-6 -10 -4 -38 8 -91 4 -19 4 -33 -2 -33 -5 0 -18 -7 -29
-16 -18 -14 -18 -15 4 -4 13 6 31 9 39 6 14 -6 15 1 9 48 -7 63 -20 104 -29
90z"/>
<path d="M1775 670 c-4 -7 -2 -17 5 -23 10 -9 12 -9 8 3 -4 11 1 16 13 16 11
0 18 -5 15 -11 -2 -7 2 -12 10 -12 8 0 14 7 14 16 0 14 2 14 11 1 9 -13 10
-13 6 0 -4 18 -72 26 -82 10z"/>
<path d="M2133 653 c9 -2 15 -9 11 -14 -3 -5 9 -12 26 -15 17 -4 33 -11 36
-15 3 -5 10 -9 16 -9 16 0 -11 29 -43 46 -16 8 -36 13 -46 13 -17 -1 -17 -2 0
-6z"/>
<path d="M2398 650 c6 -7 12 -22 12 -32 0 -10 4 -18 9 -18 4 0 6 -11 3 -25 -2
-15 0 -25 7 -25 11 0 15 12 12 40 -2 13 -1 13 8 0 6 -8 11 -10 11 -4 0 5 -17
26 -37 45 -21 18 -32 27 -25 19z"/>
<path d="M994 627 c-3 -8 0 -30 5 -48 11 -33 11 -32 6 11 -4 32 -2 41 5 30 6
-9 10 -10 10 -3 0 18 -19 26 -26 10z"/>
<path d="M1272 593 c-11 -21 -22 -51 -25 -68 -6 -27 -5 -28 5 -7 6 12 15 22
19 22 5 0 6 7 3 15 -4 8 -1 15 5 15 6 0 8 7 4 17 -4 9 -2 14 3 10 5 -3 10 3
10 14 0 26 -3 24 -24 -18z"/>
<path d="M1774 618 c-4 -6 -2 -14 4 -16 7 -2 19 -11 28 -19 8 -8 17 -13 20
-10 3 2 -2 11 -10 20 -8 8 -12 18 -8 21 3 4 -2 4 -12 0 -14 -5 -17 -4 -12 4 4
7 5 12 2 12 -3 0 -8 -5 -12 -12z"/>
<path d="M2119 617 c6 -8 8 -16 5 -20 -3 -3 5 -4 18 -1 12 2 17 1 10 -2 -10
-5 -10 -9 -1 -20 18 -22 2 -29 -21 -9 -17 15 -20 16 -20 3 0 -9 7 -21 15 -28
8 -7 15 -9 15 -5 0 4 7 2 15 -5 8 -7 12 -17 8 -24 -3 -6 -3 -8 1 -4 8 7 61
-43 83 -78 12 -18 12 -18 5 1 -24 61 -53 116 -73 136 -16 16 -18 23 -9 29 9 6
4 13 -18 24 -38 20 -48 20 -33 3z"/>
<path d="M2602 583 c-2 -46 6 -73 20 -73 5 0 7 7 4 16 -4 10 -2 13 6 8 7 -5 9
0 5 15 -3 12 1 27 8 35 16 16 2 36 -25 36 -12 0 -17 -10 -18 -37z"/>
<path d="M1478 590 c12 -37 6 -77 -8 -45 -8 19 -9 19 -9 -2 -1 -31 12 -36 33
-12 23 27 26 22 16 -21 -4 -19 -8 -28 -9 -20 -1 13 -2 13 -11 0 -5 -8 -10 -19
-10 -25 0 -5 5 -3 10 5 5 8 10 11 10 6 0 -5 7 -3 15 4 8 7 12 16 9 21 -3 5 -2
14 2 20 4 8 9 7 15 -2 4 -7 12 -10 16 -5 4 4 -2 15 -15 24 l-23 15 23 26 c22
25 22 25 -8 -1 -31 -29 -55 -38 -35 -15 8 11 6 18 -10 33 -20 18 -20 18 -11
-6z"/>
<path d="M1588 584 c-16 -8 -28 -19 -28 -25 0 -6 -6 -7 -12 -3 -7 4 -5 -2 5
-13 21 -25 13 -61 -10 -42 -12 11 -12 9 -1 -15 7 -18 14 -23 17 -15 2 8 17 40
33 72 15 31 27 57 26 57 -2 -1 -15 -8 -30 -16z"/>
<path d="M1188 534 c-10 -29 -12 -53 -7 -58 5 -6 9 -17 9 -25 0 -14 -1 -14
-10 -1 -5 8 -10 10 -10 4 0 -6 8 -18 17 -25 10 -8 14 -9 10 -2 -4 6 -4 14 1
17 13 8 14 76 0 76 -7 0 -6 5 4 13 10 8 13 19 9 31 -6 15 -11 8 -23 -30z"/>
<path d="M1745 558 c9 -29 11 -31 24 -23 16 9 13 19 -10 33 -19 12 -20 12 -14
-10z"/>
<path d="M2455 524 c1 -25 7 -50 14 -57 14 -14 15 -41 1 -32 -6 3 -7 -1 -4 -9
8 -20 24 -21 24 -2 0 8 3 22 6 31 4 10 2 15 -7 13 -10 -2 -15 11 -17 50 -2 28
-7 52 -11 52 -5 0 -7 -20 -6 -46z"/>
<path d="M2548 553 c-3 -10 -6 -53 -7 -96 -1 -43 -4 -88 -6 -99 -4 -17 -2 -19
8 -9 6 6 12 15 12 19 1 4 7 18 14 31 7 13 8 21 3 17 -13 -8 -25 10 -17 24 4 6
12 7 18 3 18 -11 38 -12 31 -2 -3 5 -10 6 -16 3 -8 -5 -9 4 -5 27 6 32 6 33
-7 10 -10 -18 -15 -20 -21 -10 -5 8 -4 14 4 17 9 3 9 7 0 18 -10 12 -8 13 7 8
18 -5 18 -5 0 10 -17 14 -18 16 -3 16 10 0 14 5 11 15 -8 20 -21 19 -26 -2z"/>
<path d="M2245 537 c16 -25 44 -47 60 -47 7 0 -29 36 -59 60 -19 15 -19 14 -1
-13z"/>
<path d="M642 510 c-1 -28 11 -40 22 -22 7 11 -4 52 -14 52 -4 0 -7 -13 -8
-30z"/>
<path d="M1654 525 c-6 -14 -9 -14 -16 -3 -8 10 -9 10 -5 -2 2 -8 10 -14 16
-12 15 3 13 -9 -3 -31 -14 -18 -11 -57 5 -57 5 0 9 -5 9 -11 0 -5 -4 -8 -9 -5
-11 7 -8 -21 4 -31 4 -4 5 -2 1 5 -4 6 -2 12 5 12 6 0 9 -8 6 -20 -3 -11 -1
-18 3 -15 5 3 10 0 12 -7 3 -7 7 -2 10 10 4 12 2 20 -2 17 -21 -13 -34 114
-15 145 3 5 1 11 -5 15 -6 3 -13 -1 -16 -10z"/>
<path d="M2640 517 c-8 -12 -15 -26 -15 -32 0 -5 -4 -15 -8 -22 -4 -6 -3 -14
2 -18 6 -3 8 -12 5 -19 -3 -8 -1 -16 4 -20 5 -3 8 5 7 17 -1 12 1 27 6 32 4 6
6 20 5 30 -2 11 1 26 7 33 5 7 8 14 6 17 -3 2 -11 -6 -19 -18z"/>
<path d="M1696 515 c-3 -9 -3 -42 1 -73 5 -45 8 -52 13 -32 7 27 5 108 -3 116
-2 3 -7 -2 -11 -11z"/>
<path d="M1255 481 c-10 -21 -12 -37 -6 -54 5 -13 9 -32 8 -42 -1 -10 3 -20
10 -22 8 -3 12 6 10 26 -1 17 -6 31 -11 31 -4 0 -5 7 -2 16 4 9 2 13 -5 8 -7
-4 -10 -1 -7 7 3 8 10 13 16 12 5 -1 9 9 8 22 -1 31 -2 31 -21 -4z"/>
<path d="M1586 488 c-7 -13 -14 -38 -14 -56 -1 -28 2 -31 14 -22 7 7 12 16 9
20 -2 4 4 15 15 25 11 10 20 23 20 29 0 6 -4 5 -9 -3 -6 -9 -11 -10 -15 -2 -4
6 -4 16 -1 21 3 6 4 10 1 10 -3 0 -12 -10 -20 -22z"/>
<path d="M1830 507 c0 -16 33 -57 41 -51 5 3 9 0 9 -5 0 -6 -7 -11 -15 -11
-17 0 -20 -16 -6 -25 14 -8 34 34 25 53 -4 9 -6 20 -6 25 1 4 -2 7 -8 7 -5 0
-10 -6 -10 -12 0 -8 -7 -5 -15 6 -8 11 -15 17 -15 13z"/>
<path d="M2659 505 c0 -5 -2 -24 -5 -42 -2 -18 1 -35 6 -38 6 -4 10 -3 9 2 -4
21 3 22 29 7 l27 -17 -29 25 c-16 14 -27 29 -23 34 3 6 2 16 -4 24 -5 8 -9 11
-10 5z"/>
<path d="M2054 472 c19 -22 19 -22 -5 -50 l-24 -27 25 22 c18 16 30 19 40 13
31 -20 44 -11 20 15 -13 14 -26 23 -28 20 -3 -3 -15 3 -26 12 -21 18 -21 18
-2 -5z"/>
<path d="M2169 470 c14 -12 25 -31 26 -43 2 -12 8 -21 15 -19 7 2 10 -3 7 -12
-4 -9 -1 -18 5 -22 6 -4 8 -3 4 4 -3 5 0 13 6 15 10 4 10 7 0 15 -8 5 -13 12
-13 16 3 19 -2 26 -36 45 -37 21 -38 21 -14 1z"/>
<path d="M2012 471 c-7 -4 -10 -15 -6 -24 5 -15 7 -15 21 -1 18 17 5 38 -15
25z"/>
<path d="M1820 436 c-12 -24 -36 -25 -51 -3 -4 5 -11 -5 -17 -22 -8 -24 -8
-30 0 -25 8 5 9 2 5 -9 -9 -24 0 -21 14 4 8 15 8 19 0 15 -6 -4 -11 0 -11 9 0
24 19 8 33 -28 11 -26 14 -28 20 -14 4 11 3 16 -3 12 -13 -8 -13 6 0 25 8 12
11 13 19 1 6 -9 11 -10 15 -2 4 6 3 11 -3 11 -5 0 -8 11 -5 25 6 31 1 32 -16
1z"/>
<path d="M865 423 c1 -16 5 -40 10 -56 6 -23 5 -26 -9 -21 -9 3 -16 2 -16 -4
0 -5 7 -12 15 -16 8 -3 15 -14 15 -24 0 -22 26 -60 34 -51 8 8 -12 61 -26 70
-7 4 -7 13 0 26 8 14 8 23 1 30 -6 6 -11 24 -11 42 -1 17 -4 31 -9 31 -4 0 -6
-12 -4 -27z"/>
<path d="M951 394 c4 -31 13 -62 20 -68 9 -8 10 -8 4 3 -6 10 -4 12 4 6 9 -5
10 -10 2 -18 -15 -15 -14 -30 3 -24 7 3 19 0 25 -6 17 -17 13 -3 -11 42 -12
22 -25 38 -30 34 -6 -3 -8 10 -7 31 2 19 -1 40 -7 46 -8 8 -8 -6 -3 -46z"/>
<path d="M1452 408 c9 -44 32 -93 47 -103 5 -3 1 19 -10 50 -10 30 -19 61 -19
69 0 7 -6 16 -14 19 -11 4 -12 -2 -4 -35z"/>
<path d="M1896 414 c-9 -20 -14 -39 -11 -42 3 -3 5 0 5 7 0 7 5 9 10 6 6 -4 8
-11 4 -16 -3 -5 0 -8 7 -7 7 2 13 -2 14 -9 0 -6 4 -15 8 -19 5 -5 6 5 3 21 -2
17 -5 45 -5 63 -1 42 -13 41 -35 -4z"/>
<path d="M1962 423 c2 -17 9 -28 18 -28 8 0 20 -11 27 -25 7 -14 13 -18 13
-10 0 8 -9 26 -20 40 -11 14 -20 31 -20 38 0 6 -5 12 -11 12 -6 0 -9 -12 -7
-27z"/>
<path d="M2506 428 c-10 -37 -7 -48 12 -47 9 0 12 3 6 5 -6 2 -8 18 -6 34 5
35 -3 40 -12 8z"/>
<path d="M1217 420 c3 -13 2 -21 -3 -18 -5 4 -9 -7 -9 -22 0 -15 3 -26 8 -23
4 2 7 -8 6 -24 -2 -15 1 -39 5 -52 5 -14 4 -21 -1 -18 -5 3 -8 -7 -5 -22 2
-16 -1 -31 -6 -35 -14 -8 9 -68 24 -62 6 2 11 -2 11 -10 0 -7 -4 -11 -9 -8
-11 7 -10 1 4 -33 6 -15 10 -33 10 -39 -1 -6 10 -17 25 -25 16 -8 31 -18 35
-24 13 -17 9 -2 -17 74 -13 39 -33 83 -45 98 -21 27 -27 49 -11 38 5 -3 13 0
17 6 4 7 3 9 -3 6 -6 -4 -14 0 -17 9 -9 22 -7 31 3 16 5 -8 8 4 7 32 -1 25 -3
46 -6 46 -3 0 -6 21 -8 48 -2 26 -7 51 -12 56 -5 5 -6 -1 -3 -14z"/>
<path d="M2246 391 c-4 -5 0 -25 8 -43 l14 -33 -4 39 c-5 44 -9 52 -18 37z"/>
<path d="M797 364 c-3 -16 -3 -33 1 -38 9 -16 23 35 13 51 -6 12 -9 9 -14 -13z"/>
<path d="M1356 374 c-9 -22 -7 -36 3 -30 11 7 31 -38 31 -72 0 -27 18 -86 33
-109 10 -16 27 -17 27 -2 0 5 -4 8 -9 5 -5 -3 -8 10 -6 29 2 19 0 33 -5 30 -4
-2 -12 8 -17 23 -6 15 -16 43 -23 62 -7 19 -13 45 -14 58 -1 26 -11 29 -20 6z"/>
<path d="M2380 379 c0 -5 -4 -8 -8 -5 -4 2 -8 -3 -9 -12 -4 -45 -12 -92 -17
-101 -8 -13 27 -8 42 6 14 14 16 37 2 28 -5 -3 -10 -2 -10 4 0 5 6 12 13 14 6
3 7 6 2 6 -7 1 -9 16 -7 36 2 19 1 35 -2 35 -3 0 -6 -5 -6 -11z"/>
<path d="M1032 361 c-11 -7 -11 -16 2 -52 l16 -44 -3 52 c-1 29 -2 53 -2 53 0
0 -6 -4 -13 -9z"/>
<path d="M2444 318 c0 -25 4 -44 9 -41 4 2 7 -7 7 -20 0 -14 7 -27 15 -31 17
-6 21 9 4 19 -6 4 -8 13 -5 20 3 8 0 16 -7 19 -9 3 -8 5 1 5 7 1 16 -9 21 -21
8 -21 8 -21 13 5 3 14 1 24 -4 21 -5 -3 -8 -2 -7 3 1 4 0 15 -4 23 -3 8 -8 22
-10 30 -4 9 -6 6 -6 -7 -1 -13 -5 -23 -10 -23 -5 0 -12 10 -14 23 -3 12 -4 1
-3 -25z"/>
<path d="M2490 353 c1 -11 30 -44 60 -68 l25 -20 -25 30 c-37 45 -60 67 -60
58z"/>
<path d="M1085 314 c-4 -16 -8 -34 -10 -41 -2 -6 3 -17 11 -24 13 -10 17 -10
24 1 5 8 6 17 2 20 -4 3 -9 19 -11 35 -4 41 -9 43 -16 9z"/>
<path d="M1444 322 c4 -7 10 -24 12 -39 7 -35 12 -43 29 -43 12 0 12 5 3 28
-6 15 -20 36 -31 47 -11 11 -17 14 -13 7z"/>
<path d="M1756 314 c-8 -21 -9 -18 16 -45 18 -20 20 -21 13 -4 -4 11 -7 28 -7
37 1 24 -14 32 -22 12z"/>
<path d="M982 266 c-9 -19 -8 -25 4 -30 8 -3 14 -11 14 -18 0 -9 -3 -8 -10 2
-5 8 -10 11 -10 5 0 -5 4 -17 10 -25 8 -12 10 -12 16 3 5 13 10 15 19 7 7 -6
15 -7 18 -3 6 10 -7 45 -16 44 -32 -4 -38 0 -32 19 9 28 1 25 -13 -4z"/>
<path d="M928 239 c3 -25 9 -39 18 -39 8 0 14 5 14 11 0 5 -4 7 -10 4 -6 -4
-10 6 -10 24 0 16 -3 32 -8 35 -4 2 -6 -13 -4 -35z"/>
<path d="M1278 263 c5 -10 8 -26 7 -35 -2 -10 0 -20 4 -23 4 -2 8 4 9 13 1 30
-8 62 -19 62 -6 0 -6 -6 -1 -17z"/>
<path d="M1514 268 c-4 -6 -3 -8 3 -5 12 8 22 -12 16 -31 -3 -6 -10 -9 -16 -5
-7 4 -8 0 -4 -13 7 -19 7 -19 -8 0 -8 11 -17 17 -20 14 -3 -2 6 -15 20 -28 21
-20 27 -21 38 -10 10 10 9 11 -1 5 -10 -5 -13 -2 -10 11 2 11 10 18 16 16 9
-1 8 7 -3 28 -17 33 -21 35 -31 18z"/>
<path d="M1800 264 c0 -13 48 -59 55 -52 3 2 -9 17 -25 33 -17 16 -30 24 -30
19z"/>
<path d="M2235 249 c1 -13 -3 -31 -9 -39 -7 -10 -3 -9 10 3 20 16 21 16 19 0
-1 -10 -10 -35 -19 -55 -18 -42 -20 -52 -7 -44 5 3 12 -6 15 -19 4 -14 11 -23
16 -20 5 3 11 -3 15 -14 3 -11 12 -24 19 -30 20 -17 13 24 -8 48 -16 18 -16
20 0 29 17 9 12 32 -7 32 -6 0 -8 -4 -5 -9 3 -5 -1 -14 -8 -20 -11 -10 -14 -9
-12 4 1 8 8 21 14 27 7 7 12 26 11 42 -1 34 -16 90 -18 67 -1 -11 -4 -10 -14
4 -13 17 -14 16 -12 -6z"/>
<path d="M1120 242 c-17 -21 -25 -46 -11 -38 5 3 9 0 8 -7 -1 -36 4 -57 13
-52 9 6 5 63 -5 74 -2 2 0 12 6 22 12 24 8 24 -11 1z"/>
<path d="M2045 214 c8 -20 13 -39 11 -41 -2 -3 2 -20 10 -38 8 -19 14 -49 14
-67 0 -25 3 -29 10 -18 5 8 10 11 10 6 0 -5 9 -1 20 9 11 10 20 23 20 29 -1 6
-9 1 -20 -12 -24 -29 -26 -25 -33 68 -1 14 -5 27 -8 30 -3 3 -10 18 -16 34 -5
17 -15 32 -22 34 -9 3 -8 -6 4 -34z"/>
<path d="M2310 210 c5 -10 7 -20 4 -23 -3 -3 -2 -13 4 -22 8 -16 9 -16 15 -1
5 11 3 15 -5 10 -7 -4 -8 -3 -4 5 4 6 12 9 17 5 5 -3 7 -10 3 -15 -3 -6 0 -10
7 -8 29 3 40 -2 37 -17 -2 -10 2 -19 9 -21 19 -7 3 36 -18 48 -11 5 -19 18
-19 28 0 27 -11 33 -27 13 -12 -14 -14 -14 -10 -1 3 9 -1 16 -8 16 -10 0 -11
-5 -5 -17z"/>
<path d="M2425 210 c-3 -5 -3 -14 0 -20 3 -5 1 -10 -5 -10 -6 0 -8 -5 -4 -12
5 -8 11 -6 19 5 7 9 16 13 20 9 4 -4 2 3 -4 16 -13 25 -17 27 -26 12z"/>
<path d="M1162 164 c-7 -14 -8 -23 -3 -20 5 3 11 -1 15 -9 3 -8 1 -15 -5 -15
-6 0 -7 -5 -4 -10 4 -6 10 -8 15 -5 4 3 11 -1 13 -7 3 -7 6 -3 6 9 1 12 -6 28
-14 37 -8 8 -12 22 -9 30 10 26 -2 18 -14 -10z"/>
<path d="M1468 168 c7 -8 10 -22 7 -30 -7 -17 30 -53 64 -63 17 -5 21 -4 16 5
-4 7 -1 16 6 21 10 6 6 9 -13 9 -16 0 -28 -5 -28 -11 0 -5 -5 -7 -11 -4 -6 4
-8 13 -5 20 2 7 -1 18 -7 26 -7 7 2 4 18 -6 18 -11 25 -13 18 -4 -6 8 -26 23
-45 33 -24 15 -30 16 -20 4z"/>
<path d="M1820 144 c0 -44 13 -73 24 -55 4 6 4 17 -1 24 -4 6 -9 23 -11 37 -5
40 -12 37 -12 -6z"/>
<path d="M1 148 c-1 -15 3 -29 8 -32 4 -3 14 -27 21 -53 7 -27 17 -52 21 -57
16 -18 8 18 -21 94 -20 53 -29 67 -29 48z"/>
<path d="M2671 155 c0 -5 15 -32 34 -60 18 -27 32 -52 30 -55 -2 -3 4 -6 14
-6 18 0 17 1 -63 111 -8 11 -15 16 -15 10z"/>
<path d="M1859 104 c-5 -15 -13 -32 -16 -38 -4 -6 1 -5 10 3 10 8 17 9 17 3 0
-6 3 -19 7 -29 6 -16 5 -17 -13 -4 -18 14 -18 14 -2 -3 21 -24 42 -12 26 14
-9 15 -10 22 -1 31 9 9 17 1 32 -29 25 -50 42 -62 39 -29 -2 17 -7 23 -17 19
-11 -4 -13 -1 -7 13 4 11 4 16 0 12 -4 -4 -14 2 -22 14 -12 17 -16 18 -30 7
-13 -11 -15 -10 -10 15 7 34 0 35 -13 1z"/>
<path d="M2463 92 c0 -11 5 -18 9 -16 4 3 8 0 8 -6 0 -16 39 -70 50 -70 5 0
-7 24 -27 53 -43 65 -42 64 -40 39z"/>
<path d="M2652 94 c23 -50 44 -84 55 -88 15 -6 12 1 -21 49 -12 17 -19 32 -18
35 2 2 -2 6 -8 9 -7 2 -11 0 -8 -5z"/>
<path d="M2208 76 c-19 -14 -25 -32 -8 -21 5 3 7 0 5 -8 -3 -7 4 -22 15 -32
20 -18 20 -18 17 3 -2 12 -6 25 -10 28 -4 4 -7 11 -7 16 0 18 22 -5 36 -36 7
-17 13 -25 14 -17 0 11 -38 82 -43 81 -1 0 -10 -7 -19 -14z"/>
<path d="M2580 73 c0 -6 7 -18 15 -27 9 -8 17 -19 18 -23 1 -4 8 -7 15 -5 8 2
11 -1 7 -7 -3 -6 -1 -11 5 -11 6 0 10 8 8 18 -2 9 -9 17 -16 17 -7 0 -22 11
-32 25 -11 14 -20 20 -20 13z"/>
</g>
</svg>
