<?xml version="1.0" standalone="no"?>
<!DOCTYPE svg PUBLIC "-//W3C//DTD SVG 20010904//EN"
 "http://www.w3.org/TR/2001/REC-SVG-20010904/DTD/svg10.dtd">
<svg version="1.0" xmlns="http://www.w3.org/2000/svg"
 width="300.000000pt" height="300.000000pt" viewBox="0 0 300.000000 300.000000"
 preserveAspectRatio="xMidYMid meet">
<metadata>
Created by potrace 1.10, written by Peter Selinger 2001-2011
</metadata>
<g transform="translate(0.000000,300.000000) scale(0.100000,-0.100000)"
fill="#000000" stroke="none">
<path d="M1272 2971 c30 -39 42 -39 20 -1 -9 16 -23 30 -30 30 -9 0 -6 -10 10
-29z"/>
<path d="M1380 2993 c5 -2 10 -9 10 -14 0 -6 -5 -7 -11 -3 -6 3 -3 -5 6 -19 9
-15 15 -30 12 -34 -3 -4 2 -14 10 -22 13 -12 14 -11 8 8 -3 12 -2 21 3 21 12
0 10 26 -3 37 -4 4 -5 2 0 -6 5 -9 3 -12 -6 -9 -8 3 -14 13 -14 23 0 10 -6 19
-13 21 -7 1 -8 0 -2 -3z"/>
<path d="M1440 2996 c0 -3 5 -17 11 -33 6 -15 13 -41 14 -56 2 -15 6 -31 9
-35 10 -9 1 58 -12 88 -5 14 -8 28 -5 33 2 4 -1 7 -6 7 -6 0 -11 -2 -11 -4z"/>
<path d="M2180 2985 c0 -8 5 -15 11 -15 5 0 8 4 5 9 -3 4 5 6 18 4 13 -3 27 0
30 6 5 7 -5 11 -28 11 -25 0 -36 -4 -36 -15z"/>
<path d="M1233 2962 c10 -10 17 -23 17 -29 0 -6 7 -13 15 -17 13 -5 13 -2 -1
19 -9 14 -12 25 -8 25 12 0 -18 20 -30 20 -5 0 -2 -8 7 -18z"/>
<path d="M1508 2953 c6 -2 12 -18 12 -33 0 -16 5 -32 10 -35 7 -4 9 5 5 26 -7
40 -13 49 -28 48 -9 0 -9 -2 1 -6z"/>
<path d="M2297 2935 c-12 -11 -17 -12 -20 -2 -4 7 -6 6 -6 -4 -1 -12 7 -16 27
-16 15 0 20 2 12 5 -9 3 1 10 25 18 l40 12 -32 1 c-17 1 -38 -6 -46 -14z"/>
<path d="M800 2901 c0 -6 7 -11 15 -11 8 0 14 -6 13 -12 -2 -8 6 -12 20 -11
15 2 21 -1 16 -9 -4 -6 -3 -8 4 -4 6 3 14 2 17 -4 4 -6 16 -8 27 -4 14 4 18 2
14 -5 -9 -14 0 -14 27 1 20 10 21 10 8 -5 -7 -10 -10 -17 -5 -18 5 0 17 -2 27
-4 9 -2 17 1 17 6 0 5 4 9 9 9 6 0 8 -10 6 -21 -3 -12 -1 -19 2 -15 15 14 10
37 -9 47 -12 7 -18 7 -14 1 3 -5 -1 -13 -10 -16 -12 -4 -15 -2 -10 9 7 20 -28
38 -81 41 -23 2 -53 10 -67 20 -16 10 -26 12 -26 5z"/>
<path d="M1894 2903 c3 -3 2 -11 -4 -17 -5 -7 -6 -17 -2 -23 5 -8 13 -2 23 16
15 25 15 27 -4 28 -10 1 -17 -1 -13 -4z"/>
<path d="M1139 2889 c-7 -39 -6 -49 11 -64 11 -10 17 -21 15 -25 -3 -4 2 -10
10 -13 19 -8 8 20 -18 46 -19 19 -19 21 -3 27 16 5 17 7 2 19 -9 7 -16 12 -17
10z"/>
<path d="M1243 2824 c-15 -15 -17 -25 -4 -21 11 3 91 -87 91 -104 0 -7 3 -9 6
-6 11 11 -26 76 -57 99 -18 14 -25 24 -18 29 6 3 7 9 3 12 -5 3 -15 -1 -21 -9z"/>
<path d="M1756 2813 c-31 -33 -23 -53 10 -22 13 12 21 25 19 30 -3 4 1 10 7
12 10 4 10 6 1 6 -7 1 -23 -11 -37 -26z"/>
<path d="M1940 2781 c-8 -6 -18 -7 -24 -4 -5 3 -6 1 -2 -5 3 -6 -6 -20 -20
-31 -15 -12 -22 -21 -17 -21 5 0 27 16 49 35 38 34 44 44 14 26z"/>
<path d="M885 2760 c-6 -10 0 -11 64 -14 32 -1 33 9 1 17 -11 3 -18 1 -14 -4
7 -12 -3 -11 -26 1 -13 7 -21 7 -25 0z"/>
<path d="M2355 2750 c-4 -6 5 -10 22 -10 l28 0 -29 -15 c-41 -22 -109 -85 -91
-85 8 0 15 5 15 10 0 6 13 9 29 8 16 -1 27 -6 24 -11 -3 -5 0 -7 8 -5 8 3 13
11 11 17 -4 18 25 54 45 58 84 18 114 13 92 -14 -13 -15 -12 -15 9 -4 20 10
23 9 32 -11 8 -22 9 -22 9 -2 1 22 -27 54 -48 54 -7 0 -9 5 -5 11 4 8 1 8 -12
2 -20 -10 -105 -9 -122 1 -6 3 -13 2 -17 -4z"/>
<path d="M648 2738 c-27 -6 -48 -14 -48 -20 0 -5 -4 -7 -9 -4 -5 3 -11 0 -14
-7 -4 -11 8 -10 56 3 44 12 73 14 105 8 28 -5 60 -4 84 2 21 6 44 8 50 4 7 -4
8 -3 4 4 -4 6 -24 11 -44 10 -20 -1 -59 1 -87 4 -27 3 -71 1 -97 -4z"/>
<path d="M2210 2736 c-11 -5 -20 -13 -20 -18 0 -5 6 -6 13 -1 6 4 20 9 31 10
10 2 25 7 34 12 22 12 -30 10 -58 -3z"/>
<path d="M1180 2715 c16 -17 27 -22 34 -15 11 11 -19 39 -43 40 -10 0 -7 -8 9
-25z"/>
<path d="M1870 2691 c-6 -12 -15 -19 -20 -16 -5 3 -12 0 -15 -6 -4 -5 -13 -8
-19 -6 -7 3 -13 0 -13 -6 0 -7 17 -12 43 -12 33 0 40 3 32 12 -7 9 -7 18 2 28
7 9 10 18 7 21 -3 3 -10 -4 -17 -15z"/>
<path d="M795 2671 c22 -10 42 -14 44 -9 5 14 -1 17 -45 23 l-39 5 40 -19z"/>
<path d="M1208 2637 c15 -30 30 -52 34 -50 8 4 -43 103 -54 103 -4 0 5 -24 20
-53z"/>
<path d="M2083 2671 c-24 -9 -48 -22 -55 -29 -13 -13 -12 -13 82 31 46 21 27
20 -27 -2z"/>
<path d="M890 2675 c0 -3 13 -11 30 -20 21 -11 28 -20 24 -33 -5 -14 -4 -15 5
-2 10 14 12 13 15 -9 0 -5 17 -31 36 -57 19 -27 35 -52 35 -56 0 -11 15 -22
35 -25 20 -3 26 7 13 21 -5 4 -8 13 -8 19 0 7 -4 12 -10 12 -5 0 -21 8 -35 18
-13 9 -20 17 -15 17 5 0 0 6 -11 14 -10 8 -19 18 -19 23 -1 20 -39 62 -66 72
-16 5 -29 8 -29 6z"/>
<path d="M1088 2648 c12 -13 22 -31 22 -39 0 -8 14 -27 31 -44 35 -32 22 -49
-13 -19 -14 12 -18 14 -13 4 5 -8 10 -21 11 -29 2 -7 12 -22 23 -32 26 -25 26
-27 -1 -58 l-23 -24 27 19 c33 23 35 37 8 64 -20 20 -27 36 -12 26 4 -2 14 -1
22 4 11 7 10 13 -6 37 -10 15 -17 31 -16 36 1 4 -5 7 -13 7 -8 0 -14 3 -14 8
3 20 -3 31 -28 47 l-28 18 23 -25z"/>
<path d="M1028 2639 c15 -16 16 -33 1 -23 -8 4 -8 1 -1 -13 6 -10 23 -19 39
-20 27 -2 27 -2 8 13 -11 8 -19 19 -18 23 1 4 -8 13 -20 20 -18 11 -20 11 -9
0z"/>
<path d="M2109 2633 c-6 -6 -20 -14 -32 -16 -17 -3 -16 -5 6 -6 16 0 40 8 54
18 23 19 23 20 3 18 -12 -1 -26 -7 -31 -14z"/>
<path d="M466 2624 c-3 -9 -3 -21 1 -27 4 -6 0 -8 -10 -4 -9 3 -19 1 -23 -5
-4 -7 -3 -8 4 -4 15 9 15 8 -2 -57 -12 -45 -12 -63 -1 -110 7 -31 10 -58 7
-61 -3 -3 0 -6 7 -6 8 0 10 -8 7 -22 -3 -13 -3 -17 0 -9 5 11 8 11 16 0 7 -10
8 -9 3 6 -37 112 -36 175 4 254 17 32 18 41 7 50 -10 9 -15 8 -20 -5z"/>
<path d="M2378 2613 c-10 -2 -18 -9 -18 -15 0 -5 -7 -8 -15 -4 -8 3 -22 3 -30
0 -14 -6 -13 -8 2 -20 10 -7 22 -14 27 -14 6 0 1 6 -9 14 -17 12 -15 14 27 12
33 -1 44 2 37 10 -5 6 -6 14 -2 17 3 4 4 6 2 6 -2 -1 -12 -3 -21 -6z"/>
<path d="M1291 2587 c-1 -10 -5 -15 -11 -12 -6 4 -7 -1 -3 -12 6 -16 5 -16
-10 -5 -14 12 -17 10 -23 -15 -12 -54 -14 -68 -8 -55 3 6 11 9 16 6 7 -4 8 -2
4 4 -4 7 -3 12 1 12 13 0 46 67 40 82 -4 8 -6 7 -6 -5z"/>
<path d="M1966 2592 c-10 -16 11 -69 30 -76 7 -3 11 -12 8 -21 -3 -8 -1 -15 5
-15 6 0 16 -12 21 -26 6 -15 19 -39 30 -54 14 -20 16 -30 8 -38 -9 -9 -9 -12
0 -12 7 0 15 7 18 15 4 8 10 15 15 15 16 0 10 -41 -11 -70 l-20 -28 21 5 c12
3 18 11 15 19 -6 15 3 18 20 6 20 -12 20 -49 1 -70 -19 -21 -19 -21 15 -16 28
3 41 -2 69 -27 19 -17 33 -35 31 -40 -1 -5 5 -9 13 -9 8 0 15 -4 15 -8 0 -5
11 -15 25 -22 14 -7 24 -20 23 -29 -2 -8 7 -18 22 -22 l25 -7 -26 -1 c-15 -1
-26 -7 -26 -15 0 -11 4 -12 17 -3 22 13 54 1 47 -17 -4 -9 3 -16 18 -18 28 -6
28 22 -1 37 -11 6 -19 20 -18 33 1 12 -5 22 -12 22 -17 0 -17 5 -4 30 8 15 3
21 -33 39 -23 12 -62 33 -87 47 -33 19 -54 24 -80 20 l-35 -5 24 19 c24 21 46
27 36 10 -4 -6 1 -7 11 -3 10 3 15 2 12 -3 -3 -5 7 -9 23 -10 26 -1 27 0 11
12 -9 7 -22 14 -28 14 -15 0 -61 51 -69 77 -5 19 -3 22 12 18 10 -3 7 0 -7 7
-14 6 -42 29 -64 50 -33 34 -36 41 -25 55 12 14 12 15 1 9 -17 -10 -75 56 -82
93 -4 19 -8 22 -14 13z"/>
<path d="M1500 2564 c0 -9 9 -18 70 -70 24 -21 26 -21 26 -3 0 11 -16 34 -35
52 -19 17 -29 24 -22 15 17 -23 3 -23 -21 -1 -10 9 -18 12 -18 7z"/>
<path d="M1760 2544 c-13 -32 -13 -34 3 -34 7 0 14 13 15 30 3 37 -5 39 -18 4z"/>
<path d="M2224 2558 c-3 -4 -2 -8 3 -8 4 0 19 -3 33 -6 20 -5 22 -4 10 6 -12
10 -11 11 8 7 12 -3 22 -1 22 4 0 11 -69 9 -76 -3z"/>
<path d="M2536 2551 c10 -10 22 -17 26 -15 3 2 8 -1 10 -8 4 -10 10 -10 29 0
24 12 24 12 1 6 -18 -4 -25 -1 -28 13 -3 11 -15 20 -31 21 -26 2 -26 2 -7 -17z"/>
<path d="M834 2538 c-3 -4 3 -8 14 -8 17 0 55 -31 50 -41 -2 -2 3 2 9 10 10
12 9 17 -9 30 -25 17 -56 22 -64 9z"/>
<path d="M1679 2533 c-5 -25 -5 -143 0 -143 4 0 7 34 8 75 1 41 0 75 -3 75 -2
0 -5 -3 -5 -7z"/>
<path d="M1881 2527 c-1 -10 -5 -15 -11 -12 -5 3 -10 4 -10 2 0 -6 68 -47 78
-47 3 0 -4 7 -16 16 -13 9 -27 26 -32 38 -7 18 -9 18 -9 3z"/>
<path d="M750 2520 c-8 -5 -24 -8 -35 -6 -11 2 -14 1 -7 -1 7 -3 10 -9 6 -14
-3 -5 -11 -6 -17 -3 -7 4 -5 -1 4 -10 9 -10 28 -19 43 -20 26 -3 26 -3 11 20
-15 23 -14 24 12 30 45 9 50 12 23 13 -14 0 -32 -4 -40 -9z"/>
<path d="M1440 2524 c0 -12 -60 -48 -61 -37 -1 4 -1 13 1 18 1 6 -5 4 -12 -4
-10 -11 -10 -14 0 -18 6 -3 10 -9 7 -13 -9 -14 52 19 65 35 7 9 10 18 6 22 -3
3 -6 2 -6 -3z"/>
<path d="M987 2505 c-9 -23 -9 -27 3 -20 6 3 7 -1 4 -9 -3 -9 -1 -16 4 -16 18
0 21 14 8 39 -11 20 -14 21 -19 6z"/>
<path d="M2389 2491 c19 -19 66 -21 81 -4 3 3 -5 3 -18 0 -13 -3 -28 1 -36 9
-8 8 -22 14 -30 14 -13 0 -13 -3 3 -19z"/>
<path d="M2167 2493 c-3 -2 -19 -5 -36 -5 -17 -1 -31 -5 -31 -10 0 -5 27 -8
60 -7 57 2 71 11 31 22 -11 3 -22 3 -24 0z"/>
<path d="M795 2482 c26 -4 28 -5 10 -12 -19 -8 -19 -9 2 -9 12 -1 24 3 27 8 7
11 -18 22 -47 20 -15 -2 -12 -4 8 -7z"/>
<path d="M1100 2476 c0 -8 -3 -16 -7 -19 -5 -2 -2 -2 5 0 8 1 21 3 29 3 13 0
13 3 3 15 -16 19 -30 19 -30 1z"/>
<path d="M1220 2463 c0 -5 -15 -24 -33 -43 -17 -19 -43 -51 -57 -71 -14 -20
-50 -65 -80 -99 -30 -35 -61 -72 -69 -82 -12 -18 -14 -18 -32 -2 -18 16 -19
16 -13 1 3 -9 11 -17 17 -17 15 0 0 -13 -18 -16 -16 -2 -18 5 -16 46 l1 25
-13 -25 c-17 -29 -32 -114 -17 -90 5 8 10 26 10 39 0 25 10 24 14 -1 4 -30 16
-38 38 -27 17 9 18 13 7 20 -14 9 -10 11 26 13 12 1 19 7 17 17 -1 9 7 24 18
34 18 16 24 17 41 7 11 -7 19 -8 19 -2 0 5 -5 10 -11 10 -5 0 -7 5 -4 10 4 6
11 7 17 4 7 -5 8 -2 2 7 -11 18 -14 39 -6 39 12 -1 44 -50 32 -50 -5 0 -10 -5
-10 -11 0 -8 4 -9 13 0 8 6 18 7 22 3 4 -4 -2 8 -15 25 -27 37 -20 55 10 28
21 -19 21 -19 5 11 -18 35 -20 58 -3 48 8 -5 9 -2 5 9 -4 11 6 29 29 54 20 21
37 40 38 43 0 3 4 4 9 3 4 -2 7 4 7 13 0 8 5 12 10 9 6 -3 10 1 10 9 0 9 -4
16 -10 16 -5 0 -10 -3 -10 -7z"/>
<path d="M1630 2450 c0 -14 4 -19 12 -14 8 5 9 2 5 -10 -4 -10 -7 -20 -7 -24
0 -3 -7 3 -16 14 -8 10 -12 13 -8 5 4 -8 3 -12 -3 -8 -6 4 -18 0 -28 -7 -14
-10 -15 -15 -5 -21 9 -5 11 -4 6 3 -5 8 2 12 19 12 23 0 24 -2 15 -20 -6 -11
-15 -18 -20 -15 -15 10 11 -69 31 -91 11 -11 16 -24 12 -29 -5 -4 -2 -5 5 -1
8 5 21 1 32 -9 19 -17 20 -17 26 1 4 11 9 22 11 26 1 3 -6 4 -17 1 -11 -3 -20
0 -20 6 0 6 -5 11 -11 11 -5 0 -7 -4 -4 -10 10 -17 -4 -11 -24 9 -10 10 -22
33 -26 49 -5 25 -2 33 16 42 15 9 19 9 14 1 -3 -6 -1 -28 6 -49 7 -20 14 -32
16 -25 2 7 11 9 18 6 17 -6 89 63 75 72 -5 3 -13 -2 -18 -12 -9 -15 -12 -15
-28 -3 -16 14 -16 13 -6 -6 9 -16 7 -22 -9 -32 -13 -8 -19 -9 -19 -1 0 5 -4 7
-10 4 -6 -4 -10 6 -10 24 0 16 -4 32 -10 36 -6 4 -5 15 2 30 8 19 7 27 -6 40
-15 15 -16 15 -16 -5z"/>
<path d="M2214 2449 c-3 -5 10 -9 28 -10 30 -1 31 -2 8 -8 l-25 -7 26 -6 c20
-4 26 -1 24 11 -2 17 -52 34 -61 20z"/>
<path d="M779 2421 c11 -7 10 -10 -5 -14 -17 -4 -17 -5 -1 -6 10 0 15 -6 12
-11 -4 -6 -10 -8 -14 -6 -4 3 -8 -1 -8 -9 0 -22 12 -18 26 9 14 25 8 46 -12
46 -8 0 -7 -3 2 -9z"/>
<path d="M964 2395 c-1 -30 1 -32 17 -22 17 10 17 12 3 20 -12 7 -13 11 -4 17
9 5 8 8 -2 12 -9 4 -13 -4 -14 -27z"/>
<path d="M849 2405 c-15 -8 -30 -22 -33 -32 -6 -16 -6 -16 12 0 10 9 24 17 30
17 7 0 12 4 12 10 0 5 7 6 17 3 11 -4 14 -3 9 5 -9 15 -15 15 -47 -3z"/>
<path d="M2553 2386 c-14 -6 -23 -20 -23 -33 0 -14 -6 -23 -15 -23 -9 0 -18
-7 -22 -16 -4 -10 -13 -14 -26 -10 -19 5 -19 4 -2 -12 13 -13 19 -14 22 -4 3
6 12 12 21 12 15 0 15 2 2 10 -13 8 -13 10 1 10 9 0 28 18 43 40 14 22 25 39
24 39 -2 -1 -13 -6 -25 -13z"/>
<path d="M1074 2381 c5 -7 -7 -11 -33 -12 -51 -2 -52 -2 -76 -16 -11 -7 -15
-13 -10 -13 6 0 3 -5 -5 -10 -9 -6 -10 -10 -3 -10 6 0 19 7 28 16 11 12 19 14
27 6 7 -7 19 -7 35 -1 13 5 22 5 19 1 -3 -5 4 -8 16 -7 32 2 43 32 17 46 -15
7 -19 8 -15 0z"/>
<path d="M2415 2376 c10 -7 15 -18 11 -24 -12 -19 3 -14 27 9 17 17 18 21 5
16 -10 -4 -18 -3 -18 1 0 4 -10 8 -21 9 -20 2 -20 1 -4 -11z"/>
<path d="M817 2337 c-26 -14 -33 -23 -25 -29 20 -12 28 -9 22 7 -4 10 0 15 15
15 12 0 21 -5 21 -11 0 -5 -4 -7 -10 -4 -5 3 -10 1 -10 -4 0 -18 15 -12 37 13
18 21 19 25 6 30 -8 3 -15 6 -16 5 -1 0 -19 -10 -40 -22z"/>
<path d="M1779 2343 c-7 -7 -6 -14 2 -19 8 -5 9 -3 4 5 -5 10 4 12 37 10 24
-2 49 1 56 5 7 4 12 2 12 -4 0 -6 5 -8 11 -5 19 12 -1 19 -57 19 -31 1 -60 -4
-65 -11z"/>
<path d="M1926 2326 c4 -10 0 -13 -13 -10 -15 4 -19 0 -19 -23 -1 -15 -4 -37
-8 -48 -4 -11 0 -8 9 8 9 15 13 32 10 37 -9 14 38 13 52 -1 6 -6 17 -9 25 -6
9 4 6 8 -9 12 -12 4 -25 16 -28 26 -4 10 -10 19 -15 19 -5 0 -7 -6 -4 -14z"/>
<path d="M1407 2310 c-5 -19 12 -26 46 -21 4 0 7 -3 7 -8 0 -4 10 -6 23 -4 15
3 34 -6 60 -30 40 -37 43 -38 25 -4 -10 20 -10 21 6 8 14 -12 16 -12 10 3 -3
9 -10 16 -16 16 -5 0 -7 4 -4 9 4 5 -4 7 -16 3 -18 -4 -20 -2 -14 14 6 15 5
17 -5 7 -14 -14 -30 -17 -28 -5 3 18 -3 20 -28 7 -30 -16 -45 -12 -36 10 3 9
-1 15 -10 15 -8 0 -17 -9 -20 -20z"/>
<path d="M883 2309 c-4 -4 -26 -15 -48 -23 -22 -8 -32 -15 -22 -15 10 -1 15
-6 12 -11 -4 -6 -10 -8 -14 -6 -4 3 -8 -1 -8 -9 0 -30 42 -12 48 20 3 14 12
20 31 20 34 1 40 7 23 22 -7 7 -16 8 -22 2z"/>
<path d="M1004 2307 c-17 -7 -42 -20 -55 -29 -23 -16 -22 -16 21 -2 25 9 52
22 60 30 17 16 15 16 -26 1z"/>
<path d="M1792 2284 c-11 -8 -27 -11 -36 -8 -9 3 -16 1 -16 -6 0 -6 -7 -19
-16 -28 -12 -12 -13 -17 -4 -20 7 -3 16 1 20 7 17 28 110 61 110 39 0 -5 5 -6
10 -3 12 7 14 26 3 24 -5 -1 -10 0 -13 1 -21 8 -41 6 -58 -6z"/>
<path d="M2393 2283 c9 -2 15 -8 13 -12 -4 -6 41 -7 54 -1 8 4 -44 18 -65 18
-17 0 -17 -1 -2 -5z"/>
<path d="M544 2259 c16 -12 26 -30 26 -46 0 -22 2 -24 15 -13 14 11 14 15 0
36 -9 13 -12 24 -8 25 12 1 -30 17 -46 18 -7 1 -2 -8 13 -20z"/>
<path d="M1215 2246 c17 -14 34 -25 38 -26 5 0 6 -4 3 -8 -2 -4 4 -9 15 -9 15
-1 10 5 -18 26 -54 39 -73 48 -38 17z"/>
<path d="M529 2219 c-7 -52 7 -99 30 -99 23 0 31 -8 24 -26 -4 -12 -8 -12 -21
-2 -13 11 -15 10 -9 -4 4 -13 1 -18 -10 -18 -9 0 -13 -3 -9 -7 3 -4 -15 -30
-42 -57 -50 -52 -81 -106 -61 -106 6 0 8 -9 5 -20 -19 -66 -19 -66 -3 -50 9 8
18 31 20 51 2 20 7 41 11 47 15 24 53 68 99 112 45 43 52 47 98 46 33 -1 48 3
45 10 -2 6 1 18 7 25 10 11 9 11 -4 1 -20 -15 -33 -3 -16 16 10 13 9 14 -8 4
-11 -6 -28 -20 -38 -32 l-18 -21 -41 39 c-32 31 -43 50 -48 83 l-6 44 -5 -36z"/>
<path d="M1607 2233 c9 -27 24 -43 34 -37 13 8 11 34 -2 34 -6 0 -8 -7 -5 -16
3 -8 2 -12 -4 -9 -6 3 -10 15 -10 26 0 10 -4 19 -10 19 -5 0 -7 -8 -3 -17z"/>
<path d="M1792 2223 c13 -16 28 -16 51 1 16 12 13 14 -22 13 -32 -1 -38 -3
-29 -14z"/>
<path d="M2475 2230 c3 -6 -4 -10 -16 -10 -18 0 -19 -2 -9 -15 7 -9 15 -13 17
-11 3 3 16 1 29 -4 18 -7 22 -6 17 5 -3 8 -9 15 -15 15 -5 0 -7 4 -4 9 3 5 -1
12 -10 15 -8 3 -12 2 -9 -4z"/>
<path d="M792 2199 c-31 -20 -35 -21 -73 -6 -21 8 -39 11 -39 6 0 -5 7 -9 15
-9 8 0 15 -5 15 -11 0 -5 -4 -7 -10 -4 -5 3 -10 1 -10 -4 0 -6 4 -11 9 -11 5
0 17 -3 27 -7 10 -3 15 -2 12 3 -4 5 6 10 20 11 14 0 31 8 37 17 8 10 15 12
21 6 6 -6 10 -2 10 10 0 11 0 20 -1 20 0 0 -15 -10 -33 -21z"/>
<path d="M1449 2201 c-30 -24 -30 -85 1 -166 5 -14 6 -25 2 -25 -4 0 2 -6 13
-12 11 -7 21 -10 22 -7 1 2 8 -5 16 -15 9 -12 16 -15 21 -8 3 6 0 17 -8 25 -8
8 -12 18 -8 23 4 5 -1 2 -10 -5 -16 -12 -18 -10 -18 17 0 19 -7 36 -17 42 -17
11 -17 11 0 6 13 -4 22 4 34 29 9 19 21 35 25 35 5 0 4 9 -2 20 -6 10 -9 24
-8 31 6 22 -40 29 -63 10z m48 -42 c2 -29 -2 -42 -15 -46 -9 -4 -20 -11 -23
-16 -4 -5 -9 -5 -13 2 -4 6 -2 11 4 11 8 0 8 6 0 20 -9 17 -6 24 16 45 15 14
28 25 28 25 1 0 2 -18 3 -41z"/>
<path d="M1934 2205 c-4 -9 10 -48 31 -89 39 -77 40 -112 2 -79 -11 10 -17 12
-13 6 4 -7 5 -13 2 -13 -3 0 -12 12 -20 28 -11 20 -15 22 -16 9 0 -10 -4 -15
-10 -12 -5 3 -10 2 -10 -4 0 -5 5 -13 10 -16 6 -4 8 -11 5 -16 -4 -5 -2 -9 3
-9 12 0 21 -22 28 -67 6 -35 -9 -64 -29 -59 -7 1 -9 1 -4 -1 4 -3 5 -8 3 -12
-3 -4 0 -13 6 -21 8 -12 9 -12 4 2 -10 33 12 28 28 -6 21 -44 20 -53 -2 -33
-24 22 -35 11 -14 -13 12 -14 19 -17 29 -8 10 8 13 6 13 -6 0 -21 25 -48 35
-38 5 4 5 1 1 -6 -5 -8 0 -22 12 -35 11 -12 27 -46 37 -74 9 -29 21 -53 26
-53 5 0 10 -10 10 -22 1 -18 2 -19 6 -5 3 10 -1 24 -7 32 -6 8 -9 19 -6 24 4
5 -1 14 -10 19 -10 6 -15 16 -11 25 3 9 2 19 -4 22 -5 4 -6 12 -3 18 4 7 4 9
-1 5 -16 -15 -36 47 -38 114 l-2 69 38 10 c26 7 44 20 55 40 20 33 29 35 61
12 14 -9 21 -12 18 -6 -4 6 -1 14 5 17 11 5 11 7 0 12 -6 3 -10 10 -6 15 3 5
-2 9 -10 9 -10 0 -13 6 -10 15 4 8 1 15 -5 15 -6 0 -11 -4 -11 -8 0 -5 -17 -6
-37 -2 -27 5 -49 1 -75 -12 -35 -17 -37 -17 -32 -1 5 15 4 16 -4 3 -12 -18
-19 -170 -9 -187 4 -6 3 -14 -2 -17 -12 -7 -22 7 -26 37 -2 12 -6 33 -9 47
-10 48 -14 140 -6 140 5 0 10 -6 12 -12 3 -9 10 -8 22 5 10 9 21 15 24 13 4
-2 8 9 9 26 2 22 -1 29 -12 24 -8 -3 -17 -1 -20 4 -5 9 7 14 26 12 4 -1 5 8 2
18 -6 23 -14 25 -32 8 -11 -11 -12 -10 -5 2 14 25 14 42 -1 36 -24 -9 -27 12
-5 34 11 11 19 20 18 21 -31 10 -59 7 -64 -6z m169 -221 c7 -8 -11 -56 -24
-65 -6 -3 -22 -4 -36 -1 -18 3 -21 7 -11 13 10 7 10 9 1 9 -7 0 -13 5 -13 10
0 6 7 10 15 10 9 0 18 7 21 15 6 15 35 21 47 9z"/>
<path d="M1345 2200 c-3 -5 -1 -11 5 -15 17 -10 11 -25 -7 -18 -11 4 -14 3 -9
-5 9 -16 -7 -15 -22 0 -9 9 -12 9 -12 0 0 -11 5 -14 33 -16 17 -1 42 -38 39
-57 -3 -16 36 -34 47 -23 3 3 -5 7 -17 11 -23 5 -26 31 -7 45 6 5 4 8 -5 8 -9
0 -16 9 -16 19 0 11 4 17 8 15 4 -3 8 4 8 14 0 20 -36 37 -45 22z"/>
<path d="M1705 2200 c-4 -6 -2 -16 3 -23 5 -7 12 -32 15 -56 3 -25 12 -48 21
-53 11 -6 12 -15 7 -36 -6 -19 -4 -31 5 -40 8 -7 14 -24 14 -37 0 -14 5 -25
11 -25 6 0 8 -8 4 -19 -3 -11 -1 -22 5 -26 6 -4 8 -15 5 -24 -7 -22 28 -70 39
-53 3 6 -4 20 -16 31 -20 19 -20 21 -3 21 18 0 18 1 1 13 -12 8 -16 21 -12 39
3 16 -1 32 -10 39 -18 15 -19 63 -1 53 8 -5 8 -3 -2 9 -7 9 -17 14 -22 11 -13
-8 -11 7 6 40 12 23 13 26 1 17 -9 -7 -17 -8 -20 -2 -10 15 5 41 23 42 11 0
12 2 3 6 -10 4 -9 8 5 19 17 12 16 13 -4 7 -13 -3 -23 -12 -23 -20 0 -13 -3
-13 -15 -3 -10 8 -13 22 -9 39 4 20 3 23 -5 11 -10 -13 -11 -13 -12 0 -1 8 -1
18 0 23 2 10 -7 9 -14 -3z"/>
<path d="M1831 2186 c-13 -16 -6 -42 15 -50 12 -5 12 -2 3 15 -14 28 -4 36 13
10 7 -12 22 -21 33 -21 16 0 14 4 -12 21 -18 12 -30 25 -27 30 9 14 -12 10
-25 -5z"/>
<path d="M2070 2193 c0 -2 12 -8 28 -14 25 -10 26 -12 7 -20 -19 -8 -19 -8 2
-15 13 -3 20 -11 16 -17 -4 -6 2 -8 15 -5 12 4 20 3 17 -1 -2 -5 7 -19 20 -31
14 -13 25 -19 25 -13 0 6 -7 13 -15 17 -8 3 -12 12 -9 21 3 8 2 15 -3 15 -5 0
-18 7 -29 16 -10 8 -12 12 -4 8 8 -3 4 5 -10 18 -21 20 -60 34 -60 21z"/>
<path d="M1596 2173 c-11 -11 -6 -24 7 -17 6 4 3 -4 -8 -17 -19 -22 -26 -81
-12 -96 3 -2 -4 -14 -16 -26 -15 -15 -17 -22 -8 -25 7 -2 18 1 23 6 14 14 18
72 6 72 -5 0 -4 9 2 19 7 14 6 21 -3 24 -7 2 -3 8 11 16 22 12 29 35 13 45 -4
3 -11 3 -15 -1z"/>
<path d="M2027 2174 c-11 -12 -8 -24 6 -21 7 1 14 -14 17 -39 4 -35 7 -40 18
-28 7 8 9 14 5 14 -5 0 -9 8 -10 18 -4 49 -19 73 -36 56z"/>
<path d="M840 2145 c-7 -13 -20 -27 -29 -30 -9 -3 -25 -18 -36 -35 -11 -16
-25 -30 -32 -30 -14 0 -53 -53 -53 -72 0 -11 2 -11 9 0 4 8 12 13 17 12 5 -1
10 4 12 12 2 9 0 8 -7 -2 -7 -9 -11 -10 -11 -3 0 23 20 24 29 1 5 -13 7 -26 5
-29 -2 -3 3 -6 11 -6 18 0 20 14 3 19 -7 3 -9 14 -4 33 4 16 10 25 14 19 11
-15 29 -14 29 1 0 8 -3 12 -7 10 -3 -2 -6 5 -7 15 -2 28 16 35 25 9 7 -19 11
-14 30 36 24 61 25 82 2 40z"/>
<path d="M2493 2152 c-9 -15 -7 -21 8 -31 11 -6 18 -15 15 -20 -3 -4 7 -20 23
-35 22 -21 30 -24 34 -13 4 10 -2 17 -16 22 -22 6 -22 6 -2 15 14 6 15 9 5 9
-8 1 -21 5 -29 10 -12 8 -12 12 -2 25 11 13 11 16 -2 16 -8 0 -17 5 -19 10 -2
6 -8 2 -15 -8z"/>
<path d="M855 2095 c-19 -56 -18 -69 6 -60 9 3 15 24 16 60 1 30 1 55 -1 55
-1 0 -11 -25 -21 -55z"/>
<path d="M1874 2103 c0 -9 -9 -17 -21 -19 -13 -2 -23 1 -23 6 0 6 -4 10 -10
10 -5 0 -10 -6 -10 -13 0 -13 60 -41 69 -32 2 3 -2 5 -9 5 -9 0 -6 8 9 24 18
19 19 25 8 29 -9 3 -14 -1 -13 -10z"/>
<path d="M2431 2112 c-1 -8 -6 -10 -13 -6 -7 5 5 -13 26 -39 21 -26 34 -47 30
-47 -5 0 -2 -5 6 -10 8 -5 15 -13 15 -17 0 -4 9 -21 20 -38 10 -16 19 -31 19
-32 1 -1 15 -4 31 -8 26 -5 28 -4 15 7 -19 17 -34 41 -59 96 -11 23 -26 42
-33 42 -14 0 -42 28 -51 51 -4 11 -6 11 -6 1z"/>
<path d="M2076 2072 c2 -3 -1 -11 -7 -19 -6 -7 -8 -13 -4 -13 4 0 -3 -9 -16
-20 l-24 -20 32 17 c21 12 28 20 20 25 -8 5 -4 8 10 8 12 0 25 5 29 12 5 7 2
9 -8 5 -9 -3 -20 -2 -25 3 -6 4 -8 5 -7 2z"/>
<path d="M1299 2057 c-1 -7 -1 -18 0 -24 1 -7 -4 -13 -10 -13 -15 0 -2 -15 14
-16 7 0 23 8 37 17 22 15 28 15 45 3 22 -16 59 -19 50 -4 -3 6 -17 10 -30 10
-13 0 -27 5 -30 10 -3 6 -1 10 6 10 7 0 9 3 6 6 -12 13 -87 13 -88 1z"/>
<path d="M1255 2009 c-4 -6 -13 -8 -21 -5 -8 3 -14 1 -14 -5 0 -6 -5 -7 -12
-3 -7 4 -8 3 -4 -4 4 -7 2 -13 -3 -13 -6 -1 -15 -2 -21 -3 -5 0 -14 -6 -21
-13 -6 -6 -18 -9 -25 -6 -8 3 -14 1 -14 -5 0 -13 24 -10 44 7 9 7 16 11 16 7
0 -4 18 3 40 14 23 11 45 18 50 15 6 -3 7 1 4 9 -7 19 -11 20 -19 5z"/>
<path d="M1305 1986 c-22 -6 -58 -18 -79 -25 -36 -12 -38 -15 -22 -27 14 -10
24 -10 44 -1 21 10 26 9 30 -2 3 -8 16 -25 30 -38 20 -18 36 -23 79 -23 52 0
54 -1 66 -32 6 -18 10 -37 9 -41 -1 -4 4 -18 13 -29 10 -15 11 -25 4 -34 -7
-8 -6 -14 1 -19 6 -4 17 1 25 11 12 16 11 19 -1 22 -9 2 -13 10 -10 18 3 9 1
12 -4 9 -6 -3 -10 0 -10 8 0 22 40 9 68 -20 17 -19 20 -28 12 -44 -7 -11 -7
-19 -1 -19 5 0 11 6 14 13 2 6 4 -2 3 -20 -1 -17 -5 -31 -11 -30 -5 1 -9 -2
-10 -8 0 -5 -4 -16 -9 -24 -7 -10 -5 -12 5 -7 8 4 7 2 -2 -6 -9 -7 -18 -17
-20 -23 -2 -5 -10 -9 -16 -9 -7 1 -10 -2 -7 -7 3 -5 1 -9 -3 -9 -5 0 -14 -10
-22 -22 -13 -22 -13 -22 5 -6 16 14 22 15 38 3 25 -19 27 -75 4 -93 -20 -15
-24 -42 -7 -42 6 0 9 7 6 15 -4 8 -2 17 2 20 17 10 21 -40 4 -52 -10 -8 -12
-13 -5 -13 8 0 10 -9 6 -25 -5 -20 -2 -25 12 -25 15 0 16 -2 5 -9 -7 -5 -22
-6 -32 -4 -10 3 -19 1 -19 -4 0 -5 16 -10 36 -11 22 -2 45 -12 60 -27 26 -26
65 -25 43 1 -6 8 -8 14 -3 14 5 0 2 4 -6 10 -9 5 -19 5 -27 -1 -9 -8 -11 -5
-8 11 3 16 0 20 -10 16 -17 -6 -22 12 -28 96 -3 43 -1 61 11 70 8 7 17 12 19
11 3 -3 3 -2 2 25 0 10 -3 12 -6 5 -2 -7 -11 -13 -19 -13 -9 0 -13 4 -9 9 3 5
-4 12 -15 16 -16 5 -17 9 -7 20 6 7 16 10 21 7 5 -3 6 0 2 6 -4 6 0 22 9 35 8
13 20 49 26 80 11 55 11 56 -16 79 -27 24 -27 25 -9 43 17 17 17 18 2 12 -10
-3 -18 -2 -18 3 0 6 -6 10 -13 10 -19 0 -47 33 -47 54 0 10 -7 24 -16 33 -8 9
-13 21 -10 28 11 31 -93 51 -159 31z m99 -37 c14 -20 13 -23 -9 -41 -18 -14
-29 -16 -49 -8 -14 5 -27 14 -27 20 -1 5 -2 16 -3 23 -4 33 66 37 88 6z"/>
<path d="M1593 1993 c-16 -6 -17 -34 -2 -30 6 1 14 -4 17 -12 3 -9 0 -11 -9
-6 -8 5 -11 5 -7 0 4 -4 3 -16 -3 -27 -9 -17 -8 -18 8 -10 10 5 33 9 51 8 19
0 39 5 45 14 10 13 10 13 -5 2 -13 -10 -17 -10 -21 0 -3 10 -9 11 -25 1 -20
-12 -21 -11 -13 10 5 12 16 21 25 21 9 -1 16 5 16 13 0 8 5 11 10 8 6 -3 10
-1 10 4 0 14 -17 14 -25 1 -4 -6 -10 -8 -15 -5 -5 3 -13 -3 -19 -12 -9 -15
-12 -16 -20 -3 -5 8 -7 18 -5 22 6 9 5 9 -13 1z"/>
<path d="M1868 1994 c-4 -3 2 -14 13 -25 20 -20 26 -45 8 -33 -7 4 -6 -3 2
-17 8 -15 14 -19 17 -11 3 10 7 10 18 1 8 -7 14 -7 14 -1 0 5 -7 13 -16 16 -8
3 -13 10 -9 16 7 11 -38 64 -47 54z"/>
<path d="M2403 1983 c9 -2 17 -9 17 -14 0 -6 -6 -7 -12 -4 -7 4 -2 -3 12 -15
16 -14 19 -20 8 -16 -12 3 -15 1 -11 -10 5 -14 8 -14 22 1 13 12 13 17 3 24
-7 4 -10 15 -6 24 5 14 0 17 -22 16 -17 -1 -22 -3 -11 -6z"/>
<path d="M633 1963 c-7 -2 -13 -10 -13 -17 0 -6 -18 -29 -40 -49 -23 -20 -36
-37 -31 -37 5 0 13 5 16 10 4 6 12 7 18 4 7 -4 9 -4 5 0 -9 11 14 36 26 28 5
-3 6 0 2 6 -3 6 -2 13 4 17 9 6 35 46 28 44 -2 0 -9 -3 -15 -6z"/>
<path d="M1085 1950 c5 -9 -16 -15 -38 -11 -5 1 -6 -3 -3 -8 4 -5 0 -12 -6
-15 -7 -3 -2 -3 12 0 40 10 70 44 39 44 -5 0 -7 -4 -4 -10z"/>
<path d="M2306 1939 c3 -5 9 -7 13 -5 4 3 25 -12 45 -33 21 -22 56 -47 77 -57
24 -10 35 -20 28 -24 -8 -6 -8 -9 0 -14 6 -4 11 -2 11 3 0 6 8 11 18 12 11 0
7 5 -13 14 -19 8 -24 14 -15 17 8 3 7 4 -4 2 -22 -3 -108 65 -99 79 3 6 1 7
-5 3 -7 -4 -18 -4 -24 1 -19 11 -39 13 -32 2z"/>
<path d="M667 1926 c-4 -9 -3 -23 0 -33 4 -10 2 -14 -5 -9 -6 3 -14 1 -18 -5
-4 -8 -9 -7 -15 2 -6 10 -9 10 -9 2 0 -16 17 -26 25 -14 3 6 12 8 19 5 8 -3
15 4 18 20 6 30 -6 55 -15 32z"/>
<path d="M2165 1920 c-4 -6 -1 -10 5 -10 6 0 9 -4 5 -10 -3 -5 -12 -7 -20 -4
-9 4 -12 0 -9 -13 4 -16 -3 -22 -36 -32 -22 -6 -38 -16 -35 -20 3 -5 -2 -11
-10 -15 -8 -3 -14 -13 -14 -23 1 -16 2 -16 6 -1 4 18 30 31 43 23 4 -3 11 3
14 12 5 13 9 14 15 5 6 -9 14 -6 34 12 14 13 30 26 36 27 14 5 2 46 -15 53 -7
3 -16 1 -19 -4z"/>
<path d="M722 1899 c2 -7 -4 -13 -12 -14 -9 0 -15 -9 -15 -22 0 -12 -6 -28
-14 -35 -12 -11 -13 -10 -7 6 5 16 4 17 -9 6 -8 -7 -22 -10 -30 -6 -11 4 -14
2 -9 -6 5 -8 0 -9 -17 -5 -23 6 -23 5 -5 -8 11 -8 22 -11 25 -7 3 5 16 8 29 7
13 -1 25 2 28 7 3 4 10 6 15 3 8 -5 13 18 7 29 -2 2 5 13 15 24 12 13 15 22 7
27 -6 3 -9 1 -8 -6z"/>
<path d="M1216 1894 c-17 -12 -17 -14 -4 -14 9 0 20 -5 24 -12 5 -7 2 -8 -7
-3 -8 4 -4 -2 8 -14 24 -23 39 -28 27 -9 -4 7 -3 8 4 4 7 -4 12 -14 12 -22 0
-8 6 -13 13 -11 6 1 11 -6 11 -15 -2 -19 12 -25 18 -8 2 6 13 12 26 15 12 2
20 0 17 -4 -2 -5 2 -14 10 -21 7 -6 11 -19 8 -28 -4 -14 -3 -15 5 -2 6 8 8 19
4 25 -12 19 -10 34 4 28 8 -3 11 -10 7 -16 -3 -5 -2 -8 3 -5 5 3 15 0 22 -8
11 -12 10 -14 -3 -14 -16 0 -17 -5 -19 -55 -1 -17 -7 -30 -13 -30 -7 0 -13 -3
-13 -7 0 -5 0 -11 0 -14 0 -4 7 -1 15 6 33 27 24 1 -10 -29 -20 -17 -33 -31
-29 -31 3 0 1 -7 -6 -15 -14 -17 -34 -9 -26 11 3 8 0 11 -9 8 -14 -6 -9 -34 6
-34 4 0 6 -7 2 -16 -4 -11 -2 -15 6 -13 7 3 13 9 14 14 1 11 9 22 54 72 23 26
30 41 25 57 -10 29 -9 50 3 54 33 11 33 24 1 53 -19 16 -41 29 -50 29 -25 0
-77 28 -111 60 -27 26 -32 27 -49 14z"/>
<path d="M2550 1897 c18 -19 70 -33 70 -19 0 5 -10 12 -22 15 -13 2 -32 8 -43
12 -18 7 -18 6 -5 -8z"/>
<path d="M1595 1890 c-11 -5 -14 -9 -7 -9 6 -1 12 -7 12 -15 0 -8 7 -21 15
-30 9 -8 14 -19 13 -23 -2 -4 5 -9 15 -11 9 -2 17 2 17 8 0 6 -4 9 -9 6 -17
-11 -19 19 -2 39 8 11 9 15 2 8 -19 -16 -40 -5 -34 18 6 21 6 21 -22 9z"/>
<path d="M2280 1879 c0 -6 -6 -9 -14 -6 -10 4 -12 0 -8 -16 3 -12 7 -16 10 -9
3 10 7 10 18 1 12 -9 18 -9 27 0 7 7 8 12 2 11 -23 -5 -34 1 -29 15 4 8 3 15
0 15 -3 0 -6 -5 -6 -11z"/>
<path d="M1673 1863 c-3 -10 -8 -21 -10 -25 -4 -8 37 -2 45 7 3 3 -2 5 -11 5
-25 0 -21 18 6 23 l22 4 -23 2 c-13 0 -25 -6 -29 -16z"/>
<path d="M2595 1823 c15 -26 35 -56 43 -66 8 -9 16 -34 18 -55 1 -34 29 -112
39 -112 6 0 -16 62 -27 77 -5 7 -4 13 3 15 8 3 10 11 4 24 -4 10 -8 29 -8 42
0 12 -4 22 -8 22 -5 0 -16 17 -25 39 -9 22 -26 43 -41 50 l-25 12 27 -48z"/>
<path d="M2363 1845 c0 -9 19 -36 42 -60 47 -51 47 -56 -3 -19 -26 21 -32 22
-24 8 6 -11 20 -25 31 -33 11 -8 18 -18 15 -23 -7 -11 45 -30 59 -21 6 4 8 0
4 -9 -4 -11 1 -15 19 -15 l24 0 -24 18 c-13 11 -29 19 -36 19 -6 0 -8 6 -4 13
6 10 4 10 -7 0 -19 -18 -34 -16 -19 2 8 10 24 14 39 12 14 -2 19 -2 11 1 -9 3
0 10 25 19 30 10 32 12 10 8 -16 -2 -39 -7 -50 -10 -21 -6 -80 39 -71 54 3 5
-5 18 -18 30 -18 17 -23 18 -23 6z"/>
<path d="M523 1821 c-18 -15 -33 -31 -33 -36 0 -5 -7 -17 -17 -27 -18 -20 -29
-78 -12 -61 6 6 11 20 12 32 1 11 7 21 15 21 7 0 10 4 7 10 -3 5 4 20 17 33
28 28 52 57 47 57 -2 -1 -19 -13 -36 -29z"/>
<path d="M1715 1811 c3 -3 -9 -13 -27 -24 -18 -10 -25 -16 -15 -13 9 3 17 1
17 -4 0 -5 7 -7 16 -3 11 4 12 8 4 13 -8 5 -4 9 9 13 24 6 28 24 6 24 -8 0
-13 -3 -10 -6z"/>
<path d="M421 1783 c-21 -44 -41 -185 -29 -206 5 -10 7 -26 5 -35 -3 -12 -5
-10 -6 6 0 13 -5 20 -11 17 -6 -4 -7 1 -3 12 5 14 3 16 -7 6 -11 -10 -11 -15
-1 -27 10 -12 10 -23 3 -46 -7 -18 -7 -32 -1 -35 5 -4 9 -13 9 -22 0 -13 -2
-14 -17 -2 -16 13 -17 12 -4 -3 7 -10 17 -15 22 -13 4 3 9 -14 11 -37 3 -41 4
-41 8 14 3 31 2 54 -1 52 -7 -4 -19 20 -19 39 0 6 6 2 14 -8 11 -16 13 -7 15
71 2 49 2 98 2 108 0 10 7 44 14 74 17 62 15 76 -4 35z"/>
<path d="M606 1791 c2 -2 -1 -10 -7 -18 -9 -10 -15 -10 -25 -2 -15 12 -38 3
-29 -12 4 -5 0 -12 -8 -15 -8 -3 -17 -15 -20 -26 -3 -11 -10 -17 -16 -14 -5 4
-13 1 -17 -5 -4 -8 -3 -9 4 -5 7 4 12 2 12 -5 0 -7 17 3 38 22 20 20 54 43 74
53 48 21 53 31 18 31 -16 0 -26 -2 -24 -4z"/>
<path d="M759 1772 c-10 -13 -22 -21 -28 -18 -5 3 -11 -1 -14 -8 -12 -30 19
-21 42 12 15 22 26 30 31 23 5 -9 10 -9 18 1 8 11 6 14 -10 14 -11 0 -28 -11
-39 -24z"/>
<path d="M2284 1793 c4 -7 2 -13 -3 -13 -12 0 -14 -32 -5 -67 8 -28 20 -30 20
-3 0 11 -4 20 -8 20 -4 0 -8 8 -8 19 0 14 6 17 28 15 15 -2 21 -1 14 2 -6 3
-9 11 -5 17 3 7 3 9 -2 5 -4 -4 -15 -2 -23 5 -13 9 -14 9 -8 0z"/>
<path d="M1771 1761 c-11 -7 -7 -13 17 -25 18 -9 34 -16 37 -16 39 1 55 -2 50
-10 -3 -6 1 -7 9 -4 21 8 20 19 -1 22 -20 2 -55 9 -63 13 -3 1 -12 3 -20 3 -8
1 -14 7 -12 14 2 14 1 14 -17 3z"/>
<path d="M366 1717 c-11 -23 -21 -45 -23 -48 -7 -12 26 -18 33 -7 4 7 3 8 -4
4 -15 -9 -15 -6 4 39 21 52 13 63 -10 12z"/>
<path d="M823 1748 c-19 -7 -33 -18 -33 -27 0 -10 3 -12 8 -5 7 12 52 29 65
26 4 -1 7 3 7 8 0 12 -4 11 -47 -2z"/>
<path d="M640 1739 c0 -6 -6 -9 -14 -6 -10 4 -14 0 -11 -14 3 -12 -2 -19 -13
-19 -12 0 -13 -3 -5 -11 9 -9 16 -8 28 5 9 9 13 16 9 16 -3 0 -1 7 6 15 7 9
19 14 27 11 8 -3 11 -1 8 4 -8 14 -35 13 -35 -1z"/>
<path d="M2075 1741 c-3 -5 -1 -12 5 -16 6 -4 7 -11 4 -17 -4 -7 -2 -8 4 -4 7
4 12 2 12 -4 0 -6 4 -9 9 -5 5 3 9 -8 9 -25 -1 -17 4 -36 10 -42 15 -15 28 -2
14 14 -7 10 -4 20 13 40 13 15 26 24 29 20 12 -12 33 -10 33 3 0 7 -8 12 -18
10 -10 -2 -21 0 -24 6 -4 5 -12 9 -18 9 -7 0 -6 -4 3 -10 11 -7 11 -10 2 -10
-7 0 -10 -4 -7 -10 10 -17 -12 -11 -31 8 -10 9 -22 17 -28 17 -6 1 -10 6 -8
13 2 14 -4 16 -13 3z"/>
<path d="M1917 1711 c2 -9 16 -22 30 -28 48 -23 43 6 -6 30 -25 13 -28 12 -24
-2z"/>
<path d="M686 1712 c-4 -7 -4 -12 0 -12 4 0 0 -8 -9 -18 -13 -14 -14 -21 -5
-30 15 -15 38 3 38 30 0 12 4 17 12 12 7 -4 8 -3 4 5 -4 6 -11 9 -16 6 -4 -3
-10 0 -12 7 -3 9 -6 9 -12 0z"/>
<path d="M1345 1700 c-3 -10 -2 -28 4 -38 7 -13 6 -23 -2 -32 -10 -12 -9 -12
5 -1 14 10 15 17 5 38 -9 21 -9 27 1 31 14 4 16 22 3 22 -5 0 -12 -9 -16 -20z"/>
<path d="M2356 1701 c5 -19 3 -23 -10 -18 -24 9 -20 -5 14 -51 37 -52 49 -56
15 -6 -28 42 -23 64 8 37 22 -18 22 -18 6 2 -9 11 -22 29 -28 40 -11 19 -11
18 -5 -4z"/>
<path d="M1464 1671 c1 -18 -7 -39 -22 -57 -18 -21 -22 -24 -18 -9 5 15 4 17
-4 9 -6 -6 -12 -18 -14 -26 -1 -8 -10 -23 -20 -33 -12 -13 -14 -21 -7 -28 16
-16 13 -30 -4 -23 -10 3 -15 -1 -15 -12 0 -10 -5 -23 -12 -30 -9 -9 -9 -12 0
-12 7 0 16 8 19 18 4 9 14 22 22 28 12 9 13 15 4 26 -17 20 24 55 62 51 20 -1
25 1 16 6 -8 5 -21 7 -29 4 -12 -5 -12 -3 -1 16 8 11 17 21 22 21 4 0 5 -5 1
-12 -4 -7 -3 -8 4 -4 6 4 9 14 6 24 -2 9 1 7 7 -5 13 -25 24 -29 34 -14 3 6
-3 15 -14 20 -13 7 -18 19 -16 41 2 19 -2 30 -10 30 -8 0 -12 -11 -11 -29z"/>
<path d="M190 1627 c-14 -17 -19 -27 -11 -22 11 6 13 4 7 -10 -5 -15 -4 -16 9
-5 9 7 14 19 11 25 -2 7 1 18 7 24 6 6 9 12 6 15 -2 2 -15 -10 -29 -27z"/>
<path d="M827 1632 c-3 -15 -1 -34 4 -42 9 -16 11 -12 13 33 2 37 -10 44 -17
9z"/>
<path d="M1800 1640 l25 -20 -38 4 c-21 2 -40 -1 -43 -6 -3 -5 -11 -5 -19 2
-9 7 -16 6 -26 -7 -11 -13 -11 -17 -1 -20 6 -3 10 -9 6 -14 -7 -11 3 -10 43 4
18 7 33 17 34 22 0 6 7 9 15 7 8 -2 24 5 37 14 13 10 15 14 5 11 -9 -3 -22 1
-28 9 -7 8 -18 14 -24 14 -6 0 0 -9 14 -20z"/>
<path d="M590 1624 c-25 -11 -31 -17 -21 -23 7 -5 23 -6 34 -3 20 5 20 6 1 13
-18 7 -17 8 4 8 12 1 22 6 22 11 0 12 3 13 -40 -6z"/>
<path d="M2195 1610 c15 -17 16 -24 5 -50 -7 -16 -17 -30 -23 -30 -6 0 -7 3
-4 7 4 3 0 17 -8 30 -9 13 -13 29 -9 36 5 9 4 9 -5 1 -9 -8 -8 -21 3 -55 17
-49 21 -87 5 -54 -8 18 -9 17 -5 -4 3 -14 1 -31 -5 -37 -7 -9 -7 -19 0 -32 6
-11 7 -22 4 -26 -3 -3 -1 -6 6 -6 7 0 9 -5 5 -12 -4 -6 -3 -8 4 -4 5 3 12 3
15 -1 2 -5 2 -1 -1 7 -2 8 -5 20 -5 27 0 7 -4 10 -9 7 -4 -3 -8 0 -8 5 0 6 4
11 9 11 10 0 17 17 25 60 2 14 11 42 20 62 21 49 20 51 -10 65 -26 12 -26 12
-9 -7z"/>
<path d="M1836 1602 c-5 -9 0 -11 48 -15 19 -1 31 3 33 13 4 13 3 13 -6 1 -8
-12 -14 -13 -36 -3 -31 14 -32 14 -39 4z"/>
<path d="M2014 1584 c3 -9 6 -18 6 -20 0 -2 7 -4 16 -4 14 0 14 3 4 15 -11 13
-10 14 5 9 13 -5 16 -4 11 4 -11 19 -49 15 -42 -4z"/>
<path d="M1163 1559 c8 -20 15 -25 22 -18 7 7 5 13 -5 19 -12 8 -13 10 -1 10
17 0 6 13 -13 16 -11 1 -11 -4 -3 -27z"/>
<path d="M1590 1575 c0 -9 12 -20 26 -25 36 -14 36 -13 8 15 -29 29 -34 31
-34 10z"/>
<path d="M746 1568 c4 -6 0 -14 -7 -19 -11 -6 -10 -9 4 -14 13 -6 14 -11 7
-26 -8 -14 -6 -25 6 -44 9 -14 19 -23 22 -21 2 3 -2 16 -11 29 -10 16 -12 28
-5 40 5 10 6 27 3 40 -5 18 -4 19 5 7 9 -12 11 -12 8 -1 -2 8 -12 15 -21 17
-10 1 -14 -2 -11 -8z"/>
<path d="M885 1570 c-3 -5 -12 -7 -20 -3 -8 3 -15 0 -15 -7 0 -6 4 -9 9 -6 5
3 9 -6 9 -19 0 -22 107 -179 155 -227 9 -8 13 -19 9 -23 -4 -5 -2 -5 5 -1 7 4
25 -10 44 -34 18 -22 35 -38 37 -35 3 3 13 -2 22 -10 16 -15 50 -11 50 4 0 4
-20 18 -45 30 -25 12 -45 27 -45 32 0 6 -5 7 -12 3 -7 -5 -9 -2 -5 8 5 15 -23
33 -46 29 -5 -1 -6 3 -2 9 9 14 -17 38 -34 32 -8 -3 -11 0 -7 6 9 15 -4 42
-20 42 -15 0 -17 7 -16 55 1 21 -2 25 -8 15 -5 -8 -6 -18 -4 -22 3 -4 0 -8 -5
-8 -6 0 -11 7 -11 15 0 8 -8 23 -18 33 -28 28 -32 47 -16 71 8 11 11 21 5 21
-5 0 -12 -4 -16 -10z"/>
<path d="M215 1550 c-3 -5 -3 -15 0 -20 9 -15 -14 -41 -29 -33 -8 4 -7 2 1 -7
6 -7 9 -19 6 -28 -4 -10 -2 -13 6 -8 6 4 10 13 9 19 -2 7 8 28 22 47 18 27 20
31 5 20 -17 -14 -18 -13 -12 3 7 18 2 23 -8 7z"/>
<path d="M628 1538 c-22 -22 -16 -23 24 -2 33 17 59 6 42 -19 -5 -7 -1 -4 9 6
9 11 17 23 17 28 0 16 -75 6 -92 -13z"/>
<path d="M1855 1551 c-4 -7 1 -8 11 -4 11 4 15 3 11 -4 -5 -7 0 -9 12 -6 11 3
21 -2 25 -12 3 -9 10 -14 15 -11 5 3 12 -1 15 -10 5 -12 1 -14 -17 -9 -17 5
-19 4 -7 -4 10 -7 11 -11 3 -11 -7 0 -13 -4 -13 -9 0 -5 11 -4 25 2 14 7 25
16 25 20 0 12 -34 52 -45 53 -6 1 -20 5 -32 8 -12 4 -24 2 -28 -3z"/>
<path d="M2057 1554 c-10 -11 -8 -26 2 -19 5 3 13 -5 16 -17 4 -13 16 -32 26
-43 17 -19 17 -22 2 -53 -16 -33 -16 -33 -28 -10 -13 26 -10 26 -88 8 -51 -12
-64 -11 -111 3 -61 19 -96 22 -96 6 0 -5 -8 -9 -17 -8 -36 3 -43 -1 -43 -26 0
-22 3 -24 19 -15 11 5 27 10 36 10 21 0 66 -49 63 -69 -1 -9 2 -18 7 -21 6 -3
11 5 13 18 3 16 -7 33 -32 57 -35 33 -51 60 -21 35 12 -10 19 -10 27 -2 8 8
17 7 32 -2 11 -7 38 -12 59 -12 20 1 37 -3 37 -8 0 -4 11 -1 25 8 44 29 57 18
21 -16 -37 -36 -58 -92 -31 -82 8 4 15 11 15 18 0 7 3 6 9 -2 6 -11 10 -10 15
4 6 16 8 16 27 -2 14 -12 18 -13 14 -3 -3 9 3 18 17 24 30 13 46 49 51 111 5
56 -2 80 -23 79 -8 0 -20 7 -26 17 -5 10 -13 15 -17 12z"/>
<path d="M1080 1522 c-14 -14 -19 -22 -12 -18 7 4 20 0 30 -11 9 -11 14 -14
10 -8 -4 7 -5 15 -1 18 3 4 0 7 -7 7 -9 0 -8 5 5 13 10 8 14 16 9 19 -5 2 -20
-7 -34 -20z"/>
<path d="M1290 1525 c-7 -8 -16 -12 -21 -9 -5 3 -9 2 -8 -3 3 -20 -2 -27 -10
-14 -11 18 -48 24 -56 11 -3 -6 3 -10 13 -10 19 0 37 -25 33 -43 -1 -5 3 -6 9
-2 6 3 7 11 4 17 -5 7 -2 9 8 5 10 -3 15 0 14 11 0 10 5 16 14 14 8 -2 12 0 8
4 -4 4 -3 13 3 21 6 7 9 13 6 13 -2 0 -10 -7 -17 -15z"/>
<path d="M1705 1530 c4 -6 11 -7 17 -4 6 4 8 -1 6 -12 -2 -11 -10 -19 -18 -19
-8 0 -14 6 -12 13 3 17 -23 15 -39 -4 -11 -14 -11 -18 4 -29 19 -14 57 -9 69
8 3 6 17 12 29 14 26 4 35 10 26 19 -4 4 -12 2 -20 -4 -10 -8 -16 -6 -25 9 -7
10 -19 19 -28 19 -8 0 -12 -5 -9 -10z"/>
<path d="M1964 1525 c3 -9 6 -24 6 -33 0 -13 2 -13 13 3 8 10 19 15 25 11 7
-4 12 -5 12 -2 0 3 -14 13 -31 22 -30 15 -31 15 -25 -1z"/>
<path d="M2258 1518 c8 -8 8 -15 1 -24 -7 -8 -7 -14 1 -19 5 -3 10 -17 10 -30
0 -17 4 -23 14 -19 12 5 12 10 -2 35 -15 26 -15 31 -2 39 11 7 11 10 2 10 -7
0 -10 5 -7 10 3 6 -2 10 -11 10 -14 0 -15 -3 -6 -12z"/>
<path d="M810 1480 c8 -5 11 -10 6 -10 -5 0 -3 -7 4 -15 7 -8 10 -15 6 -15 -3
0 4 -10 15 -21 17 -17 19 -23 8 -31 -11 -8 -10 -9 4 -4 9 3 17 1 17 -3 0 -5 9
-7 20 -4 15 4 19 2 14 -10 -3 -9 3 -24 13 -34 15 -15 17 -22 7 -31 -7 -7 -15
-8 -18 -3 -8 13 -56 20 -56 8 0 -5 -6 -5 -14 2 -14 12 -46 5 -46 -10 0 -5 -10
-9 -22 -9 -17 0 -19 -3 -10 -12 9 -9 17 -7 36 11 26 25 48 21 40 -7 -5 -16 -5
-16 9 1 19 23 33 22 62 -7 23 -23 24 -24 22 -4 -1 11 4 23 12 26 8 3 11 0 7
-7 -4 -6 -2 -11 4 -11 8 0 10 -10 6 -27 -5 -19 -4 -24 3 -14 7 11 10 8 14 -15
3 -20 4 -15 4 14 -1 23 -5 42 -10 42 -5 0 -7 7 -4 15 4 9 -6 23 -25 37 -18 12
-26 24 -19 26 18 6 -7 32 -32 32 -11 0 -18 3 -14 6 3 3 -3 16 -15 28 -11 11
-24 31 -29 44 -5 12 -14 22 -21 22 -9 0 -8 -3 2 -10z"/>
<path d="M313 1450 c-6 -17 -17 -29 -25 -28 -8 2 -12 -4 -10 -15 2 -9 -4 -20
-12 -23 -9 -3 -13 -10 -10 -15 3 -5 11 -3 18 3 22 23 58 88 54 98 -2 6 -9 -3
-15 -20z"/>
<path d="M2356 1471 c-4 -6 -2 -11 3 -11 6 0 12 -21 12 -47 2 -47 2 -47 9 -13
8 37 13 32 12 -10 -1 -18 1 -20 5 -7 2 10 10 16 17 14 6 -3 12 4 12 14 0 11
-6 17 -13 15 -6 -3 -20 9 -31 26 -12 19 -22 26 -26 19z"/>
<path d="M648 1441 c-13 -14 -18 -22 -11 -18 6 4 13 2 15 -4 3 -8 10 -5 22 6
15 15 19 16 26 5 5 -8 6 -19 3 -25 -3 -5 0 -4 8 3 23 21 33 13 13 -10 l-19
-23 22 18 c11 10 20 26 18 35 -2 9 -4 23 -4 29 -2 22 -67 10 -93 -16z"/>
<path d="M1396 1430 c-17 -16 -24 -30 -18 -34 6 -3 13 -2 17 4 3 5 3 10 -1 10
-3 0 4 9 17 19 13 11 22 21 19 24 -3 2 -18 -8 -34 -23z"/>
<path d="M1597 1418 c3 -18 24 -48 47 -71 23 -22 40 -43 39 -47 -3 -12 49 -2
57 10 13 21 58 0 65 -30 3 -15 15 -37 26 -49 41 -44 46 -124 11 -163 -22 -25
-269 -148 -297 -148 -27 0 -41 -15 -23 -24 7 -3 3 -3 -9 0 -16 4 -21 1 -19
-12 2 -13 14 -18 45 -19 23 -1 45 3 48 8 3 6 1 7 -5 3 -7 -4 -12 -2 -12 3 0 6
15 11 33 11 17 0 39 5 47 10 13 8 12 10 -3 10 -28 0 -11 17 23 24 17 3 29 10
26 15 -3 5 3 7 14 4 13 -3 20 0 21 8 0 8 4 4 9 -9 10 -24 -5 -72 -23 -72 -5 0
-7 -12 -4 -26 3 -19 1 -24 -10 -20 -19 8 -28 -21 -13 -39 10 -12 10 -18 1 -29
-8 -10 -9 -25 -3 -48 l8 -33 6 27 c3 15 1 25 -3 22 -12 -7 -11 3 1 26 7 12 7
28 0 47 -9 25 -9 26 4 10 14 -17 15 -17 21 5 4 13 13 27 19 31 6 5 3 6 -9 2
-17 -5 -17 -3 4 16 16 15 26 19 29 11 2 -7 11 -5 25 9 18 16 20 23 9 39 -20
32 -14 40 16 23 26 -15 28 -21 24 -57 -2 -23 -10 -48 -18 -57 -18 -20 -18 -37
1 -72 11 -21 12 -34 5 -48 -13 -24 -15 -24 -41 4 -22 21 -21 21 1 -18 13 -22
27 -42 30 -45 6 -5 11 -36 14 -82 0 -16 6 -28 12 -28 6 0 10 12 7 28 -3 24 -2
25 7 7 9 -17 9 -16 5 8 -4 19 -2 26 5 22 6 -4 10 6 9 27 -1 18 -3 25 -6 15
-11 -43 -24 -4 -28 84 -4 84 -2 98 15 116 10 12 17 23 14 25 -2 3 3 5 11 5 8
0 17 -7 20 -15 4 -12 8 -12 21 -1 13 10 17 10 24 -1 7 -11 11 -11 24 2 13 14
13 16 -7 17 -54 3 -71 7 -74 18 -3 7 4 10 19 6 17 -3 19 -2 9 5 -11 8 -11 10
0 15 8 3 0 3 -17 0 -37 -6 -86 21 -77 43 4 10 0 12 -11 8 -18 -7 -20 3 -7 25
5 8 19 12 35 9 21 -4 26 -1 26 13 0 17 3 17 20 7 25 -16 26 -29 3 -22 -10 3 2
-6 27 -19 25 -14 45 -30 45 -35 0 -13 49 -52 65 -52 6 0 8 6 4 13 -4 7 -3 8 2
4 5 -5 9 -15 9 -24 0 -9 8 -21 17 -26 26 -17 61 18 45 44 -6 10 -23 19 -36 19
-16 0 -38 14 -60 38 -20 21 -57 53 -84 72 -30 21 -46 39 -43 49 2 9 7 37 11
63 5 36 11 47 28 52 18 4 57 51 57 69 0 9 -28 1 -44 -12 -18 -15 -21 -8 -6 19
9 16 8 18 -6 13 -11 -4 -15 -15 -12 -34 4 -26 2 -29 -23 -29 -22 0 -33 8 -46
33 -9 17 -16 36 -14 42 1 5 0 7 -4 3 -4 -3 -27 2 -52 13 -25 10 -49 17 -54 13
-17 -10 -31 7 -18 22 8 9 8 14 1 14 -6 0 -26 16 -45 35 -44 46 -69 47 -60 3z
m183 -448 c-15 -9 -13 -20 7 -43 19 -20 12 -32 -13 -23 -9 3 -14 12 -10 21 3
8 1 15 -4 15 -17 0 -11 39 8 49 20 11 32 -7 12 -19z"/>
<path d="M416 1378 c1 -35 6 -84 11 -111 6 -27 7 -50 2 -53 -11 -7 -29 40 -26
68 1 11 -4 23 -11 25 -9 4 -11 -5 -6 -34 4 -21 7 -44 7 -51 0 -6 3 -10 5 -7 9
9 32 -17 25 -28 -3 -5 -1 -7 5 -3 5 3 12 0 15 -6 11 -32 14 3 6 62 -5 36 -12
95 -16 133 -7 84 -19 88 -17 5z"/>
<path d="M1272 1418 c-7 -7 -12 -21 -12 -32 0 -16 3 -17 12 -8 7 7 21 12 32
12 20 0 20 0 0 -16 -12 -10 -13 -14 -4 -11 30 10 45 14 37 10 -4 -3 -5 -9 -1
-14 3 -5 2 -9 -3 -9 -4 0 -9 -24 -10 -53 -3 -47 -2 -50 11 -34 8 11 12 25 9
33 -3 8 0 20 6 28 6 7 9 15 6 17 -2 3 4 5 14 6 18 2 91 41 91 50 0 2 -10 1
-21 -2 -16 -5 -19 -4 -14 5 5 9 4 11 -4 6 -6 -4 -9 -11 -6 -16 3 -4 -8 -13
-24 -18 -25 -9 -29 -8 -24 4 4 10 -2 14 -21 14 -16 0 -30 7 -34 18 -9 21 -25
25 -40 10z"/>
<path d="M2453 1413 c9 -2 17 -8 17 -13 0 -4 9 -6 20 -3 23 6 53 -20 39 -34
-6 -6 -4 -10 5 -10 8 0 13 4 10 9 -3 4 2 11 10 14 31 12 -12 37 -67 40 -29 1
-44 0 -34 -3z"/>
<path d="M500 1369 c-6 -24 -13 -51 -16 -59 -3 -9 -2 -11 4 -5 12 13 35 96 28
102 -2 3 -10 -15 -16 -38z"/>
<path d="M2263 1398 c-6 -7 -18 -30 -28 -51 -10 -22 -23 -36 -30 -33 -10 3
-10 -3 -2 -30 9 -31 14 -34 46 -33 22 1 28 3 16 6 -26 7 -36 24 -23 40 6 8 8
16 5 19 -3 4 3 24 14 46 20 40 21 60 2 36z"/>
<path d="M2329 1395 c-5 -60 -3 -71 14 -72 9 -1 17 3 17 8 0 6 -5 7 -12 3 -8
-5 -9 -2 -5 9 3 10 2 17 -4 17 -5 0 -7 11 -3 25 3 14 3 25 0 25 -3 0 -7 -7 -7
-15z"/>
<path d="M75 1374 c-9 -15 -12 -23 -6 -20 6 4 11 3 11 -2 0 -17 -13 -22 -29
-9 -14 11 -14 10 -2 -6 11 -13 17 -15 28 -6 7 7 12 17 10 23 -3 6 2 19 11 29
8 9 10 17 5 17 -6 0 -18 -12 -28 -26z"/>
<path d="M1125 1392 c-26 -19 -13 -31 28 -26 27 3 37 1 28 -4 -17 -12 -2 -42
34 -70 14 -11 25 -25 25 -31 0 -6 9 -11 20 -11 17 0 18 3 8 25 -6 13 -16 21
-22 18 -6 -4 -4 2 4 12 14 17 13 18 -12 12 -24 -6 -28 -4 -34 17 -3 14 -3 30
1 35 6 11 -14 16 -44 11 -8 -1 -17 3 -20 9 -4 5 -11 7 -16 3z"/>
<path d="M2425 1360 c-18 -8 -18 -9 -2 -9 10 -1 15 -5 12 -11 -4 -6 1 -7 11
-3 11 4 15 3 10 -5 -9 -15 11 -25 30 -14 13 7 10 11 -15 22 -17 7 -28 16 -25
21 6 10 5 10 -21 -1z"/>
<path d="M324 1335 c-10 -20 -9 -27 5 -37 14 -11 14 -11 4 3 -16 19 -5 33 14
18 9 -8 13 -8 13 -1 0 6 -5 14 -10 17 -6 4 -8 11 -5 16 4 5 3 9 -2 9 -4 0 -13
-11 -19 -25z"/>
<path d="M2157 1340 c3 -12 0 -20 -6 -20 -7 0 -9 5 -6 10 3 6 1 10 -4 10 -6 0
-11 -7 -11 -15 0 -8 -11 -22 -25 -31 -14 -9 -22 -20 -19 -26 3 -5 12 -4 20 3
8 6 14 8 14 3 0 -5 5 -1 11 9 6 9 14 15 20 12 5 -4 9 -1 9 6 0 7 8 21 18 32 9
11 11 17 5 13 -7 -4 -13 -2 -13 3 0 6 -4 11 -9 11 -5 0 -7 -9 -4 -20z"/>
<path d="M2377 1343 c-12 -11 25 -43 50 -43 13 0 31 -9 40 -20 10 -11 23 -20
31 -20 7 0 10 -5 6 -12 -4 -6 -3 -8 4 -4 6 3 30 -13 52 -36 23 -24 39 -37 35
-31 -3 7 -8 23 -10 34 -5 24 -15 38 -15 21 0 -7 -24 6 -52 28 -29 22 -63 43
-75 46 -13 4 -23 10 -23 16 0 5 -8 8 -17 6 -10 -2 -17 3 -15 10 2 13 -1 15
-11 5z"/>
<path d="M1408 1330 c-15 -4 -29 -6 -31 -4 -2 3 -9 -1 -15 -9 -19 -23 45 -20
75 3 27 21 17 24 -29 10z"/>
<path d="M558 1303 c8 -3 9 -9 4 -16 -20 -27 -33 -102 -22 -127 10 -25 10 -25
5 3 -3 17 -2 26 4 23 5 -3 7 2 4 12 -2 11 3 36 11 57 16 38 14 56 -7 54 -8 0
-8 -2 1 -6z"/>
<path d="M664 1278 c-26 -18 -50 -39 -52 -47 -3 -9 0 -11 8 -6 8 5 11 4 6 -3
-4 -6 -14 -8 -23 -5 -11 4 -14 2 -11 -8 3 -8 11 -13 17 -11 7 1 10 -2 7 -7 -3
-5 -1 -20 4 -33 10 -23 10 -23 6 0 -2 12 -1 22 3 22 4 0 8 11 9 26 3 38 18 61
53 78 40 20 43 20 34 -1 -5 -14 -3 -15 6 -6 11 11 5 33 -10 33 -5 0 -30 -15
-57 -32z"/>
<path d="M75 1277 c-4 -17 -3 -33 3 -39 6 -6 8 -18 5 -27 -4 -13 -3 -14 5 -1
8 10 8 18 0 27 -8 10 -6 13 6 13 9 0 16 5 16 10 0 6 -4 10 -9 10 -5 0 -11 8
-14 18 -3 12 -6 10 -12 -11z"/>
<path d="M1479 1269 c-8 -5 -29 -9 -46 -9 -18 0 -33 -5 -33 -10 0 -14 82 -3
92 13 5 8 8 6 8 -6 0 -14 7 -18 32 -15 32 3 53 28 24 28 -9 0 -16 -4 -16 -10
0 -5 -5 -10 -11 -10 -5 0 -8 4 -5 9 8 12 -29 20 -45 10z"/>
<path d="M724 1249 c-14 -15 -15 -20 -4 -17 8 2 14 -3 13 -9 -2 -7 2 -13 8
-13 6 0 8 7 5 16 -5 13 -4 14 7 6 10 -9 18 -8 33 3 18 15 17 15 -11 13 -20 -2
-29 2 -27 10 3 17 -2 15 -24 -9z"/>
<path d="M997 1254 c-3 -4 1 -17 10 -30 9 -14 14 -38 11 -59 -2 -19 -1 -35 3
-35 16 0 39 13 39 22 0 5 -4 6 -10 3 -5 -3 -12 7 -16 22 -9 41 -30 84 -37 77z"/>
<path d="M1670 1251 c0 -7 -4 -10 -9 -7 -11 7 -83 -22 -93 -38 -6 -8 -8 -7 -8
2 0 9 -7 11 -20 7 -11 -4 -20 -2 -20 4 0 6 -5 11 -12 11 -6 0 -8 -3 -5 -7 4
-3 1 -13 -6 -21 -9 -13 -9 -14 1 -8 7 4 12 2 12 -5 0 -9 3 -9 14 0 7 6 21 9
29 5 9 -3 24 1 33 10 8 9 19 14 23 12 4 -3 27 1 50 8 37 11 41 14 27 25 -12
10 -16 10 -16 2z"/>
<path d="M331 1228 c-8 -21 5 -58 20 -58 10 0 7 35 -4 42 -7 4 -6 12 2 22 10
11 10 16 2 16 -6 0 -15 -10 -20 -22z"/>
<path d="M2310 1241 c8 -6 11 -11 6 -11 -5 0 -3 -7 4 -15 6 -8 8 -20 4 -26 -4
-8 -3 -9 4 -5 7 4 12 2 12 -3 0 -6 4 -11 9 -11 14 0 7 30 -10 40 -8 5 -14 15
-14 21 0 7 -7 14 -15 16 -13 4 -13 3 0 -6z"/>
<path d="M2379 1217 c18 -19 44 -38 58 -42 13 -3 21 -9 18 -14 -2 -5 2 -12 11
-15 8 -3 12 -10 9 -16 -3 -5 -1 -10 5 -10 6 0 8 -5 4 -11 -9 -14 -25 10 -17
26 3 5 0 5 -6 -1 -10 -9 -5 -22 22 -60 18 -27 40 -64 47 -81 7 -18 16 -33 21
-33 5 0 1 17 -10 39 -11 21 -17 41 -14 45 4 3 1 6 -6 6 -7 0 -9 5 -5 12 5 7 3
8 -6 3 -10 -6 -12 -4 -7 8 3 9 3 16 -1 14 -7 -2 -12 6 -12 18 0 3 10 1 23 -5
21 -11 21 -10 3 4 -11 9 -17 18 -14 22 8 7 -54 61 -112 98 l-45 29 34 -36z"/>
<path d="M2050 1228 c0 -7 9 -19 21 -26 12 -8 18 -9 15 -4 -3 6 1 13 10 16 12
4 15 2 10 -9 -3 -9 0 -15 9 -15 36 0 0 42 -41 47 -15 2 -24 -1 -24 -9z"/>
<path d="M2214 1229 c-7 -12 13 -29 35 -29 11 0 9 4 -5 16 -18 14 -18 15 4 4
12 -6 28 -8 35 -4 9 6 8 3 -1 -8 -9 -12 -10 -18 -2 -23 8 -5 8 -11 1 -19 -6
-7 -8 -16 -4 -19 3 -4 1 -7 -5 -7 -7 0 -13 5 -13 10 -1 6 -2 16 -3 23 -2 17
-31 15 -31 -3 -1 -8 -6 -14 -13 -12 -18 3 -14 -25 5 -32 9 -4 21 -2 26 3 12
12 50 -5 42 -19 -3 -5 0 -12 6 -16 7 -4 9 -3 6 3 -4 6 0 14 9 17 13 5 15 2 11
-16 -6 -22 -5 -22 8 -4 16 21 20 37 8 34 -5 -2 -19 5 -31 14 -22 15 -23 17 -5
27 10 6 12 11 6 11 -7 0 -13 7 -13 16 0 9 5 12 13 8 6 -4 3 2 -7 14 -20 23
-70 30 -82 11z"/>
<path d="M1714 1220 c-5 -5 -27 -16 -49 -23 -34 -12 -36 -14 -17 -19 13 -4 31
1 46 13 28 22 41 25 30 7 -5 -9 -2 -9 9 1 9 7 17 17 17 22 0 12 -24 11 -36 -1z"/>
<path d="M2000 1208 c0 -5 -8 -7 -17 -4 -15 6 -15 4 2 -14 22 -24 26 -25 18
-5 -4 12 2 11 30 -5 26 -16 37 -18 43 -9 4 8 3 9 -4 5 -7 -4 -12 -4 -12 1 0 4
-14 16 -30 25 -17 10 -30 13 -30 6z"/>
<path d="M1096 1182 c1 -15 3 -31 3 -36 1 -10 36 -2 96 24 66 28 51 34 -26 10
-72 -22 -80 -24 -59 -10 13 8 13 11 0 25 -14 13 -15 12 -14 -13z"/>
<path d="M1782 1200 c2 -8 -5 -22 -16 -32 -21 -17 -21 -17 5 -18 22 0 26 4 23
26 -1 14 -6 29 -10 32 -4 4 -5 0 -2 -8z"/>
<path d="M1252 1195 c3 -3 27 -6 54 -7 27 0 60 -6 74 -13 14 -7 50 -16 80 -19
51 -6 54 -6 35 9 -12 9 -29 14 -42 10 -14 -3 -23 -1 -23 6 0 8 -4 8 -15 -1
-12 -10 -16 -10 -20 1 -4 10 -27 15 -77 17 -39 1 -69 0 -66 -3z"/>
<path d="M579 1163 c0 -25 -1 -26 -9 -8 -8 19 -9 19 -9 -2 -1 -31 17 -29 29 3
12 32 12 34 0 34 -5 0 -10 -12 -11 -27z"/>
<path d="M455 1149 c-13 -24 -14 -31 -4 -27 10 4 14 -4 13 -32 0 -28 3 -37 13
-33 10 4 11 19 7 62 -4 31 -8 58 -10 59 -1 2 -10 -11 -19 -29z"/>
<path d="M837 1160 c-7 -27 9 -35 22 -11 14 26 14 31 -3 31 -7 0 -16 -9 -19
-20z"/>
<path d="M912 1158 c-12 -12 -5 -38 10 -38 5 0 6 5 2 12 -5 8 -2 9 9 5 21 -8
22 0 3 18 -9 10 -16 11 -24 3z"/>
<path d="M1186 1150 c-22 -10 -43 -17 -49 -13 -6 3 -7 1 -3 -5 3 -6 -2 -17
-13 -24 -19 -14 -19 -14 1 -27 17 -10 18 -15 7 -21 -25 -16 -1 -22 28 -7 15 8
43 17 61 20 58 11 172 49 172 57 0 7 -76 -13 -110 -28 -8 -4 -36 -7 -62 -7
-27 1 -48 -3 -48 -7 0 -4 -9 -7 -20 -5 -37 6 -33 16 8 23 23 4 39 10 37 14 -3
5 3 6 14 3 11 -3 24 3 32 15 8 10 21 21 29 25 8 3 1 6 -15 6 -17 1 -48 -8 -69
-19z"/>
<path d="M2316 1161 c-7 -11 17 -21 47 -21 21 1 21 1 -3 15 -30 17 -37 18 -44
6z"/>
<path d="M685 1121 c-3 -5 5 -22 18 -37 14 -16 24 -21 24 -13 0 8 3 24 7 37 5
13 3 22 -3 22 -6 0 -11 -9 -11 -20 0 -11 -4 -20 -10 -20 -9 0 -14 14 -11 33 1
10 -7 9 -14 -2z"/>
<path d="M1603 1122 c-45 -4 -42 -17 4 -17 21 1 37 4 36 9 -2 11 -4 12 -40 8z"/>
<path d="M1380 1100 c-8 -5 -28 -12 -45 -16 -18 -4 -24 -9 -14 -11 9 -2 38 5
65 16 27 11 40 20 29 20 -11 0 -27 -4 -35 -9z"/>
<path d="M1434 1097 c-8 -9 2 -13 40 -14 28 -2 60 0 71 4 18 5 16 7 -9 14 -20
6 -35 4 -45 -4 -11 -9 -15 -9 -18 1 -6 15 -25 15 -39 -1z"/>
<path d="M2107 1095 c-9 -21 4 -24 37 -10 l28 12 -23 6 c-34 9 -36 9 -42 -8z"/>
<path d="M2343 1094 c-7 -19 20 -44 46 -44 9 1 3 7 -14 16 l-30 14 28 -5 c15
-3 37 -13 48 -23 65 -52 73 -61 67 -67 -4 -4 -24 6 -45 21 -21 15 -32 22 -25
14 15 -18 16 -34 0 -24 -7 4 -8 3 -4 -5 4 -7 13 -10 19 -8 7 2 28 -5 47 -16
19 -10 30 -13 23 -7 -6 7 -9 18 -7 25 3 7 -13 28 -35 45 -22 18 -38 36 -36 40
3 4 -3 14 -12 21 -12 10 -14 10 -9 2 11 -19 -19 -16 -38 3 -15 14 -17 14 -23
-2z"/>
<path d="M2244 1072 c0 -9 -10 -19 -24 -23 -22 -6 -23 -7 -4 -8 12 -1 27 6 34
14 7 8 16 12 21 9 5 -3 9 -1 9 4 0 5 -8 12 -19 15 -12 3 -18 -1 -17 -11z"/>
<path d="M960 1071 c0 -5 7 -12 16 -15 8 -3 13 -9 10 -14 -2 -4 4 -8 15 -8 11
0 15 4 10 9 -5 5 -8 15 -7 21 2 6 1 8 -1 4 -3 -5 -13 -3 -24 2 -11 6 -19 7
-19 1z"/>
<path d="M1365 1065 c-25 -12 -26 -14 -5 -9 14 4 27 7 30 7 12 2 79 -27 75
-33 -7 -12 73 -16 85 -4 5 5 -8 10 -31 11 -21 2 -58 12 -81 23 -23 11 -42 20
-42 20 -1 -1 -14 -7 -31 -15z"/>
<path d="M1245 1060 c-4 -7 -16 -10 -26 -7 -11 3 -17 2 -14 -3 3 -4 -7 -16
-22 -26 -15 -9 -35 -27 -45 -38 -13 -16 -18 -17 -18 -6 -1 8 -6 4 -11 -9 -5
-13 -7 -26 -4 -29 3 -3 5 0 5 6 0 7 5 12 11 12 5 0 7 -5 3 -12 -4 -7 -3 -8 5
-4 6 4 9 12 6 17 -4 5 1 9 9 9 9 0 16 5 16 11 0 6 7 8 16 5 8 -3 13 -2 9 3 -5
9 20 32 61 57 11 7 16 15 13 18 -4 4 -10 2 -14 -4z"/>
<path d="M1583 1063 c-22 -8 -14 -19 14 -18 14 0 28 5 30 10 3 11 -23 16 -44
8z"/>
<path d="M2295 1060 c3 -5 0 -10 -7 -10 -8 0 -6 -5 5 -11 10 -6 23 -6 32 -1
13 7 11 10 -10 20 -15 7 -24 8 -20 2z"/>
<path d="M2683 1056 c-13 -15 -6 -59 8 -50 5 3 9 0 9 -7 0 -7 3 -9 6 -6 4 4 1
13 -5 21 -7 8 -10 24 -6 36 7 23 5 25 -12 6z"/>
<path d="M2116 1035 c-16 -24 -15 -25 3 -25 10 0 21 7 25 15 3 8 1 15 -5 15
-6 0 -7 5 -4 10 14 22 -4 8 -19 -15z"/>
<path d="M475 1042 c-5 -4 -10 -17 -11 -29 -2 -75 -5 -94 -13 -88 -5 3 -12 1
-15 -4 -7 -10 20 -9 30 2 4 4 7 21 6 39 l-1 33 15 -28 c8 -15 12 -32 9 -37 -3
-6 -1 -10 5 -10 6 0 11 10 10 23 -5 52 1 62 15 27 17 -43 19 -26 3 21 l-12 34
-12 -30 -12 -29 -7 32 c-3 17 -4 36 0 42 7 12 4 13 -10 2z"/>
<path d="M1339 1031 c-13 -10 -31 -21 -39 -25 -8 -3 -3 -4 12 -1 15 3 30 1 33
-5 3 -5 0 -7 -8 -4 -8 3 -19 -2 -26 -10 -11 -13 -9 -14 21 -5 18 6 39 11 46
12 6 0 12 4 12 9 0 4 3 7 8 6 4 0 18 4 32 9 l25 11 -28 11 c-40 16 -61 14 -88
-8z m77 -2 c4 -7 -1 -9 -12 -7 -11 2 -24 -3 -30 -11 -7 -8 -16 -11 -24 -6 -10
6 -9 11 5 22 23 16 51 17 61 2z"/>
<path d="M567 990 c3 -30 9 -58 12 -63 10 -10 4 51 -8 88 -8 24 -9 19 -4 -25z"/>
<path d="M2273 1024 c9 -11 15 -24 12 -27 -3 -4 -2 -5 2 -2 3 3 12 0 20 -7 7
-6 16 -9 19 -6 3 3 26 -15 52 -41 26 -26 37 -35 24 -20 -13 15 -25 35 -26 45
-2 10 -17 23 -37 29 -19 7 -29 14 -24 17 6 2 4 3 -4 1 -8 -2 -23 5 -35 14 -21
18 -21 18 -3 -3z"/>
<path d="M383 995 c-1 -19 3 -35 8 -35 5 0 9 16 9 35 0 19 -4 35 -8 35 -4 0
-8 -16 -9 -35z"/>
<path d="M711 1023 c-1 -6 -4 -20 -7 -30 -5 -15 -4 -15 5 -3 9 12 11 11 11
-10 1 -23 2 -23 11 -6 7 12 8 21 2 25 -6 3 -13 13 -16 21 -3 8 -6 10 -6 3z"/>
<path d="M1037 996 c-11 -9 -14 -17 -8 -21 7 -4 7 -13 -2 -28 -6 -12 -13 -23
-14 -25 0 -2 -9 -5 -20 -6 -10 -2 -18 -9 -18 -17 0 -8 -5 -14 -12 -14 -6 0
-14 -3 -18 -7 -16 -16 26 0 46 18 l22 19 -12 -22 c-10 -20 -9 -23 6 -23 15 0
16 -2 3 -11 -13 -9 -13 -10 0 -7 8 3 15 13 16 24 0 10 2 30 3 44 l3 25 8 -25
c8 -25 8 -25 10 5 1 17 1 38 0 49 -1 11 3 15 9 12 6 -4 11 0 11 8 0 19 -9 20
-33 2z"/>
<path d="M1422 995 c-18 -8 -47 -24 -63 -36 -24 -17 -27 -24 -18 -35 6 -8 15
-12 19 -9 5 3 6 -3 3 -14 -3 -10 0 -21 5 -25 5 -3 12 6 15 19 2 14 0 28 -4 31
-11 6 3 20 49 53 46 32 52 20 8 -16 -20 -15 -36 -32 -36 -37 0 -5 9 -1 20 9
11 10 20 14 20 8 0 -5 11 -15 25 -21 15 -7 25 -8 25 -2 0 6 -7 10 -15 10 -8 0
-15 7 -15 15 0 8 5 15 11 15 5 0 7 -6 4 -12 -4 -7 1 -4 10 7 9 11 21 19 26 17
6 -1 20 4 32 13 l21 15 -22 0 c-12 0 -22 -4 -22 -10 0 -5 -7 -7 -15 -4 -8 4
-15 1 -15 -5 0 -6 -7 -11 -16 -11 -13 0 -14 3 -5 13 10 13 6 28 -8 27 -3 -1
-21 -7 -39 -15z"/>
<path d="M2161 975 c0 -22 -2 -50 -5 -63 -3 -13 -1 -20 5 -17 5 4 9 14 9 23 0
13 2 14 9 4 7 -11 10 -10 15 3 3 9 3 22 -1 28 -4 7 -8 18 -10 26 -1 7 -6 18
-12 24 -8 8 -11 0 -10 -28z"/>
<path d="M2198 997 c7 -8 9 -17 6 -20 -4 -4 3 -4 15 -2 13 2 24 -2 28 -10 3
-8 9 -12 14 -9 5 3 9 0 9 -6 0 -6 12 -23 27 -38 15 -15 21 -19 13 -9 -10 13
-10 21 -2 29 9 9 17 4 34 -18 13 -15 23 -32 23 -37 0 -5 8 -14 17 -21 10 -7
15 -16 11 -19 -3 -4 -2 -7 4 -7 6 0 10 -8 9 -17 0 -10 5 -18 12 -19 6 -1 17
-2 22 -3 7 -1 7 -8 -1 -22 -6 -12 -7 -19 -1 -15 12 7 22 -16 22 -55 0 -16 4
-29 9 -29 9 0 7 38 -4 68 -2 6 1 12 8 12 9 0 9 2 0 8 -11 7 -19 31 -22 65 -1
4 -5 7 -11 7 -5 0 -7 -8 -4 -17 5 -17 5 -17 -6 0 -6 9 -8 21 -5 26 3 6 -2 14
-11 19 -9 5 -15 12 -15 16 1 3 -15 20 -34 37 -19 17 -33 35 -30 39 3 5 0 12
-6 16 -8 4 -9 3 -5 -4 11 -18 -5 -14 -27 6 -11 9 -17 11 -13 5 11 -19 -8 -16
-35 5 -13 10 -33 22 -43 26 -15 5 -17 4 -8 -7z"/>
<path d="M1240 988 c0 -5 -4 -7 -9 -4 -5 3 -12 -1 -15 -10 -3 -8 -10 -13 -15
-10 -5 3 -20 -3 -32 -15 -13 -11 -18 -17 -11 -14 9 5 15 -1 19 -14 6 -23 18
-27 29 -9 4 7 3 8 -4 4 -8 -5 -12 0 -12 13 0 28 28 27 40 -1 8 -22 9 -22 9 5
1 16 5 26 11 22 6 -3 10 -1 10 6 0 7 2 10 5 8 2 -3 0 -21 -5 -39 -8 -29 -8
-32 4 -20 8 8 16 31 18 50 3 30 0 35 -19 36 -13 1 -23 -3 -23 -8z"/>
<path d="M350 959 c0 -5 -4 -8 -8 -5 -5 3 -8 -5 -7 -17 3 -33 -6 -49 -23 -42
-9 3 -13 3 -9 -1 4 -4 -1 -16 -10 -26 -18 -20 -27 -52 -12 -42 5 3 7 10 4 15
-4 5 -1 9 4 9 6 0 11 -8 12 -17 0 -12 4 -8 11 10 5 15 14 25 19 21 5 -3 9 5
10 18 0 21 1 21 8 4 5 -13 10 -16 14 -9 4 7 3 14 -2 17 -5 4 -7 22 -4 41 3 19
3 35 -1 35 -3 0 -6 -5 -6 -11z"/>
<path d="M2455 951 c19 -23 19 -24 1 -17 -14 5 -16 3 -8 -6 20 -26 52 -89 53
-106 0 -13 3 -11 12 6 8 19 8 25 -4 33 -8 5 -10 9 -6 9 5 0 0 12 -11 28 -11
15 -18 35 -16 45 1 11 0 16 -3 13 -4 -3 -13 0 -22 6 -9 7 -7 2 4 -11z"/>
<path d="M2638 928 c-3 -24 -8 -52 -13 -62 -6 -14 -5 -17 3 -12 8 5 12 -2 12
-23 0 -16 7 -36 15 -45 8 -8 15 -20 15 -27 0 -7 3 -10 6 -7 3 4 -3 35 -14 70
-15 52 -16 66 -6 76 16 15 44 16 44 1 0 -6 -7 -8 -16 -5 -10 4 -13 2 -8 -6 4
-7 3 -8 -4 -4 -21 13 -13 -22 9 -43 20 -19 22 -49 5 -92 -4 -9 1 -26 12 -39
17 -21 19 -21 25 -6 4 10 3 15 -3 11 -6 -3 -10 -3 -10 2 0 4 -3 19 -7 32 -4
18 -3 22 6 16 10 -5 12 1 8 26 -7 47 -17 70 -29 63 -6 -4 -5 4 2 16 8 16 18
20 33 17 22 -6 22 -5 0 10 -13 8 -23 24 -23 34 0 21 -15 25 -26 7 -4 -7 -3 -8
4 -4 7 4 12 2 12 -4 0 -15 -25 -7 -26 8 -1 7 -2 17 -3 22 0 6 -5 10 -10 10 -5
0 -11 -19 -13 -42z"/>
<path d="M2200 900 c0 -5 5 -10 12 -10 6 0 8 -3 5 -6 -6 -7 40 -94 55 -104 4
-3 6 -21 3 -39 -4 -32 -4 -32 21 -17 16 11 24 13 24 5 0 -7 3 -10 6 -6 3 3 2
12 -2 19 -5 7 -9 16 -9 20 0 3 -3 9 -6 13 -4 3 -6 -4 -5 -16 0 -12 -3 -24 -9
-26 -5 -1 -11 12 -11 30 -2 46 -84 181 -84 137z"/>
<path d="M666 880 c9 -33 46 -112 50 -107 3 3 -8 30 -44 107 l-12 25 6 -25z"/>
<path d="M865 880 c4 -13 2 -20 -6 -20 -7 0 -9 -3 -6 -7 4 -3 0 -11 -9 -18
-18 -13 -27 -130 -13 -174 6 -19 8 -6 8 44 1 107 4 125 18 125 12 0 12 -17 -1
-65 -2 -5 0 -19 4 -30 6 -16 8 -13 7 13 0 18 3 35 6 39 11 10 8 -67 -3 -87 -6
-12 -7 -21 -1 -25 14 -8 25 59 17 111 -3 27 -2 44 4 44 6 0 4 13 -4 29 -9 16
-12 31 -9 35 4 3 1 6 -6 6 -8 0 -10 -7 -6 -20z"/>
<path d="M1104 860 c2 -22 -1 -37 -5 -34 -5 3 -6 -2 -3 -9 6 -17 29 -16 46 1
14 14 19 54 6 46 -5 -4 -7 -12 -4 -19 3 -8 -2 -19 -10 -25 -21 -18 -19 28 3
54 10 12 11 15 3 9 -19 -17 -31 -16 -24 2 4 8 1 15 -4 15 -6 0 -9 -17 -8 -40z"/>
<path d="M1460 885 c-7 -8 -16 -13 -20 -10 -5 3 -11 -4 -15 -15 -7 -23 -15
-25 -35 -7 -12 10 -12 9 -2 -4 6 -9 9 -19 5 -22 -9 -9 20 -8 32 1 12 9 57 72
52 72 -3 0 -10 -7 -17 -15z"/>
<path d="M565 867 c4 -19 2 -26 -5 -22 -15 9 -12 -21 4 -34 11 -9 16 -9 22 0
5 8 3 9 -6 4 -9 -5 -10 -2 -6 12 4 11 2 31 -4 44 -10 23 -10 23 -5 -4z"/>
<path d="M2152 851 c-8 -4 -25 -6 -40 -4 -21 4 -24 2 -12 -6 19 -14 57 -14 65
0 9 14 2 20 -13 10z"/>
<path d="M1004 822 c-41 -36 -50 -57 -59 -149 -4 -33 -2 -53 4 -53 6 0 8 7 5
15 -4 8 -3 23 1 32 4 10 8 34 10 54 4 42 20 73 55 106 35 32 22 28 -16 -5z"/>
<path d="M1037 815 c-9 -19 -21 -35 -27 -35 -5 0 -7 -7 -3 -16 5 -14 7 -14 16
2 14 26 34 44 39 38 3 -3 3 7 1 21 -3 14 -6 25 -7 25 -1 0 -10 -16 -19 -35z"/>
<path d="M1441 824 c-12 -16 -27 -24 -35 -21 -10 4 -13 1 -9 -9 3 -7 8 -14 12
-14 8 0 44 37 55 58 12 21 -2 13 -23 -14z"/>
<path d="M1915 840 c-4 -6 1 -22 10 -36 14 -21 14 -28 3 -42 -8 -10 -9 -13 -1
-9 7 5 17 -2 24 -15 7 -13 12 -24 11 -25 -6 -8 -1 -23 7 -23 8 0 8 23 0 40 -1
3 -3 10 -3 15 -1 6 -7 20 -14 32 -7 12 -8 23 -3 25 5 2 1 13 -9 26 -12 14 -21
18 -25 12z"/>
<path d="M2580 811 c0 -12 4 -19 10 -16 6 3 10 1 10 -4 0 -6 -5 -11 -11 -11
-8 0 -9 -4 0 -13 6 -8 8 -17 4 -20 -3 -4 -2 -7 4 -7 5 0 11 -15 12 -32 3 -55
4 -57 13 -52 4 3 8 -2 8 -10 0 -8 9 -20 19 -26 22 -11 41 -13 26 -2 -6 4 -21
21 -33 39 -22 31 -22 34 -7 57 20 30 11 53 -13 34 -13 -11 -15 -10 -9 5 4 11
3 16 -3 12 -6 -3 -10 -2 -10 4 0 5 5 11 11 13 6 2 1 14 -10 27 l-21 24 0 -22z"/>
<path d="M768 790 c-12 -21 -13 -30 -5 -34 8 -3 7 -5 -2 -5 -9 -1 -10 -5 -3
-13 5 -7 12 -22 16 -33 3 -12 4 -8 2 8 -2 16 0 45 5 65 10 46 8 48 -13 12z"/>
<path d="M2130 810 l-25 -7 29 -8 c26 -7 28 -9 12 -21 -16 -11 -16 -13 3 -19
12 -3 19 -10 16 -14 -2 -5 8 -6 23 -4 17 3 22 1 15 -4 -9 -7 -5 -19 15 -48 30
-45 62 -62 40 -23 -7 13 -11 27 -10 31 1 5 -3 5 -9 1 -9 -5 -10 -2 -6 9 4 10
2 16 -5 14 -7 -1 -12 4 -13 12 0 8 -16 19 -35 26 -32 11 -33 12 -15 23 11 6
14 12 7 12 -7 0 -11 4 -7 9 8 14 -7 19 -35 11z"/>
<path d="M1200 786 c0 -12 5 -38 11 -55 9 -25 14 -30 21 -19 6 9 7 5 3 -12 -6
-20 -5 -23 5 -13 14 13 6 48 -8 39 -5 -3 -10 9 -11 27 -3 54 -4 57 -13 57 -4
0 -8 -11 -8 -24z"/>
<path d="M2353 782 c3 -17 47 -69 47 -54 0 10 -38 72 -45 72 -3 0 -4 -8 -2
-18z"/>
<path d="M421 757 c-1 -21 3 -36 8 -33 15 9 22 -25 9 -41 -17 -21 -18 -55 -1
-48 8 3 17 5 19 5 7 0 4 76 -3 84 -5 4 -13 22 -20 39 l-11 32 -1 -38z"/>
<path d="M640 786 c0 -5 8 -18 17 -29 11 -12 17 -34 17 -60 -1 -36 0 -38 10
-19 10 19 11 17 11 -19 0 -31 6 -45 25 -59 14 -10 25 -22 26 -27 0 -4 4 -15 8
-24 4 -9 6 -22 4 -30 -2 -8 4 -13 14 -13 10 1 16 -2 13 -6 -3 -5 -1 -11 5 -15
6 -4 8 -12 4 -18 -3 -7 1 -4 10 7 13 16 13 20 -5 39 -11 12 -17 27 -14 35 2 7
0 10 -5 7 -6 -3 -10 1 -10 9 0 8 -6 21 -13 28 -23 22 -38 58 -31 70 4 7 3 8
-4 4 -7 -4 -12 -1 -12 7 0 26 -69 138 -70 113z"/>
<path d="M1651 777 c0 -10 -5 -15 -11 -12 -5 3 -10 3 -11 -2 0 -4 -2 -17 -3
-29 -1 -11 4 -26 12 -34 12 -11 13 -10 7 9 -4 12 -2 28 5 36 6 8 10 22 7 32
-4 17 -5 17 -6 0z"/>
<path d="M1100 761 c-18 -14 -24 -28 -23 -55 1 -20 -3 -33 -8 -30 -5 3 -9 -2
-9 -10 0 -10 6 -13 16 -9 11 4 14 14 10 34 -4 21 0 32 17 46 26 21 42 43 30
43 -4 0 -19 -9 -33 -19z"/>
<path d="M625 720 c1 -22 5 -43 8 -47 4 -3 7 -15 7 -25 0 -10 5 -18 10 -18 6
0 10 5 10 11 0 14 -30 119 -34 119 -2 0 -2 -18 -1 -40z"/>
<path d="M1388 748 c-10 -6 -10 -8 2 -9 8 -1 18 -1 23 0 4 0 7 -3 7 -9 0 -18
29 -11 40 10 12 22 1 27 -18 8 -7 -7 -12 -8 -12 -2 0 13 -24 14 -42 2z"/>
<path d="M1475 720 c-21 -22 -31 -27 -37 -18 -6 10 -8 10 -8 1 0 -6 5 -15 10
-18 6 -4 7 -11 4 -17 -4 -7 -2 -8 4 -4 7 4 12 14 12 21 0 8 8 19 19 24 10 6
21 17 25 26 8 21 4 19 -29 -15z"/>
<path d="M2115 743 c3 -7 0 -13 -7 -13 -7 -1 -1 -8 15 -16 15 -8 27 -17 27
-20 0 -3 -5 -2 -11 2 -8 4 -7 0 1 -15 6 -12 16 -18 22 -15 8 5 9 1 5 -10 -4
-10 -3 -15 3 -11 6 3 10 3 10 -2 0 -4 10 -19 21 -33 15 -19 14 -14 -5 21 -14
25 -26 55 -26 67 0 14 -6 22 -16 22 -9 0 -23 8 -31 18 -8 9 -12 11 -8 5z"/>
<path d="M2553 701 c1 -28 -2 -51 -6 -51 -11 0 2 -41 19 -58 12 -11 14 -11 14
0 0 8 -5 19 -12 26 -8 8 -8 12 -1 12 6 0 13 9 16 20 3 12 0 20 -8 20 -8 0 -11
7 -8 20 3 11 9 17 14 14 15 -9 10 1 -11 26 l-20 22 3 -51z"/>
<path d="M1577 693 c-15 -27 -16 -66 -2 -86 17 -24 20 -16 5 12 -6 11 -6 30 0
50 8 29 7 41 -3 24z"/>
<path d="M1604 673 c-3 -16 -7 -34 -10 -40 -2 -7 0 -13 5 -13 5 0 11 13 14 30
5 23 10 28 24 23 17 -6 17 -6 1 10 -22 23 -27 22 -34 -10z"/>
<path d="M1666 678 c-3 -13 -6 -33 -6 -45 0 -12 -5 -25 -12 -29 -7 -4 -8 -3
-4 4 4 7 3 12 -3 12 -5 0 -11 6 -14 13 -2 6 -2 -1 1 -18 2 -16 8 -31 13 -33 5
-2 9 -11 9 -20 0 -12 3 -13 12 -4 9 9 20 142 12 142 -1 0 -4 -10 -8 -22z"/>
<path d="M1929 683 c6 -12 11 -32 12 -45 0 -22 1 -22 9 -3 10 24 13 51 3 42
-3 -4 -12 1 -20 11 -13 15 -13 15 -4 -5z"/>
<path d="M1509 683 c0 -5 -3 -17 -5 -28 -7 -26 -6 -86 1 -93 3 -3 5 11 5 31 0
40 8 67 20 67 5 0 7 -17 4 -37 -4 -37 -4 -37 7 -10 8 21 8 35 0 53 -10 23 -30
33 -32 17z"/>
<path d="M891 618 c0 -38 -5 -68 -10 -68 -7 0 -1 -43 17 -109 4 -13 13 -26 21
-29 10 -3 11 0 5 9 -9 15 -10 17 -22 164 -9 95 -9 96 -11 33z"/>
<path d="M1094 658 c-5 -7 -7 -25 -6 -39 2 -14 -4 -31 -12 -39 -9 -7 -16 -19
-16 -26 0 -24 32 -94 42 -94 7 0 6 5 -1 14 -8 10 -8 21 -1 40 12 34 12 36 0
36 -5 0 -9 -3 -9 -7 1 -5 0 -17 -1 -28 -1 -15 -4 -13 -11 10 -5 19 -5 31 2 36
11 7 33 99 25 106 -2 3 -8 -2 -12 -9z"/>
<path d="M1318 650 c-4 -14 -8 -34 -8 -45 1 -19 1 -19 11 -2 6 10 9 30 7 45
l-3 27 -7 -25z"/>
<path d="M1786 646 c4 -16 2 -26 -5 -26 -19 0 -12 -36 11 -56 l22 -19 -17 25
c-20 28 -22 44 -5 34 7 -5 8 -3 3 6 -6 10 -4 12 7 7 13 -4 15 -1 9 21 -4 14
-13 28 -19 30 -9 3 -11 -4 -6 -22z"/>
<path d="M860 607 c0 -26 4 -47 8 -47 8 0 6 79 -3 88 -3 3 -5 -16 -5 -41z"/>
<path d="M990 640 c-8 -5 -10 -10 -5 -10 6 0 11 -18 12 -40 1 -22 7 -48 13
-57 9 -15 10 -14 4 7 -4 14 -7 44 -6 68 0 23 -1 42 -1 42 -1 0 -9 -5 -17 -10z"/>
<path d="M2088 633 c-2 -4 1 -24 8 -43 13 -36 18 -33 14 10 -2 27 -15 47 -22
33z"/>
<path d="M2297 628 c9 -15 12 -29 17 -81 6 -63 22 -63 18 0 -4 59 -16 93 -33
93 -6 0 -7 -6 -2 -12z"/>
<path d="M2440 611 c0 -4 5 -22 11 -38 8 -24 7 -39 -5 -67 -11 -26 -12 -36 -3
-36 9 0 9 -2 0 -8 -8 -5 -7 -14 4 -32 8 -14 12 -17 9 -8 -3 9 -1 18 5 20 21 7
9 178 -12 178 -5 0 -9 -4 -9 -9z"/>
<path d="M1984 568 c5 -50 7 -55 15 -34 9 23 3 66 -9 66 -5 0 -7 -15 -6 -32z"/>
<path d="M2530 574 c0 -21 7 -32 23 -40 18 -8 24 -8 24 2 0 7 -4 11 -9 8 -4
-3 -8 4 -8 14 0 11 -7 25 -15 32 -13 11 -15 8 -15 -16z"/>
<path d="M1740 568 c0 -14 6 -31 14 -37 12 -10 14 -8 11 14 -4 38 -25 57 -25
23z"/>
<path d="M2149 572 c7 -13 14 -33 16 -44 3 -11 7 -23 11 -27 4 -3 4 2 1 11
-13 36 12 26 32 -12 22 -43 12 -64 -13 -28 -11 15 -16 18 -16 8 0 -18 37 -43
50 -35 6 4 10 1 10 -6 0 -7 3 -9 6 -6 8 7 -22 74 -43 99 -8 9 -12 21 -9 27 4
5 1 13 -5 17 -8 4 -9 3 -5 -4 11 -18 -5 -14 -27 6 -19 17 -20 16 -8 -6z"/>
<path d="M1190 529 c4 -64 1 -81 -12 -73 -10 6 -10 5 -1 -8 7 -8 11 -18 8 -21
-3 -4 -2 -5 1 -3 15 11 30 -21 27 -56 -3 -43 19 -108 38 -108 8 0 6 7 -5 19
-10 11 -15 25 -11 30 3 6 2 11 -3 11 -5 0 -8 19 -6 42 2 26 -2 48 -11 58 -13
15 -17 60 -5 60 11 0 2 74 -9 78 -9 3 -12 -7 -11 -29z"/>
<path d="M2715 549 c-4 -5 -1 -18 7 -27 8 -9 20 -28 26 -42 7 -14 19 -36 27
-50 l14 -25 -2 31 c-1 20 -6 30 -14 27 -7 -3 -14 0 -14 6 -3 26 -4 30 -11 37
-13 12 -9 26 5 18 6 -4 3 2 -7 14 -22 25 -23 26 -31 11z"/>
<path d="M2516 513 c-4 -10 -4 -14 0 -10 4 4 17 -1 28 -10 20 -17 20 -17 7 0
-10 12 -10 17 -2 17 7 0 9 5 6 10 -10 16 -32 12 -39 -7z"/>
<path d="M1740 476 c0 -9 5 -16 10 -16 6 0 9 -3 8 -7 -5 -14 30 -55 37 -44 3
6 1 11 -4 11 -6 0 -11 5 -11 11 0 6 -9 22 -20 36 -15 19 -20 21 -20 9z"/>
<path d="M1025 463 c11 -27 11 -52 0 -50 -5 1 -9 7 -9 13 1 6 -4 11 -11 11 -9
0 -8 -11 2 -41 23 -68 23 -69 29 -63 3 3 0 15 -6 27 -10 18 -9 25 5 39 16 15
17 14 12 -7 -3 -14 0 -25 8 -28 7 -3 11 -15 9 -27 -2 -12 -2 -16 2 -9 3 6 10
10 15 6 5 -3 5 6 -1 20 -5 14 -7 33 -3 43 4 10 2 14 -4 10 -6 -4 -18 10 -27
33 -9 22 -19 40 -22 40 -3 0 -3 -8 1 -17z"/>
<path d="M2680 476 c0 -5 9 -24 21 -42 20 -34 18 -60 -4 -48 -7 4 -8 3 -4 -2
5 -5 12 -9 15 -9 4 0 14 -4 22 -10 13 -8 13 -7 0 10 -14 17 -13 18 4 11 19 -7
19 -6 2 13 -10 11 -15 25 -10 32 4 7 3 10 -4 5 -6 -4 -18 5 -26 21 -8 15 -15
24 -16 19z"/>
<path d="M1245 440 c3 -19 10 -37 15 -38 6 -2 8 -8 4 -13 -3 -5 0 -9 6 -9 6 0
5 -14 -5 -37 -12 -30 -12 -34 -1 -20 10 13 15 15 19 5 3 -7 4 3 2 22 -1 19
-13 55 -25 80 -21 44 -21 45 -15 10z"/>
<path d="M2337 436 c1 -16 6 -32 9 -35 4 -3 4 4 1 16 -3 13 -1 26 4 29 5 3 9
0 9 -5 0 -6 4 -11 9 -11 6 0 9 8 8 19 -1 12 -8 18 -22 17 -18 -1 -21 -6 -18
-30z"/>
<path d="M845 450 c-3 -5 -1 -19 5 -30 6 -11 8 -24 5 -29 -6 -11 22 -8 32 4 5
4 2 5 -6 0 -11 -6 -13 -4 -8 9 4 10 1 19 -9 23 -8 3 -13 12 -10 19 6 16 0 19
-9 4z"/>
<path d="M2406 430 c2 -49 3 -50 31 -76 15 -14 20 -22 10 -18 -13 5 -16 2 -11
-10 3 -9 10 -16 14 -16 16 0 18 28 5 47 -20 25 -18 38 3 22 15 -12 15 -11 -1
7 -15 16 -19 17 -27 4 -8 -12 -10 -10 -10 8 0 13 4 20 10 17 6 -4 5 5 -2 19
-15 34 -23 33 -22 -4z"/>
<path d="M1457 413 c2 -21 5 -46 7 -56 1 -10 10 -25 19 -34 15 -16 16 -16 12
3 -26 107 -47 154 -38 87z"/>
<path d="M1651 379 c17 -32 32 -59 35 -59 3 0 0 9 -6 20 -6 11 -8 20 -4 20 3
0 1 6 -5 14 -6 7 -9 20 -5 29 3 8 -1 19 -8 23 -33 21 -35 8 -7 -47z"/>
<path d="M967 383 c-13 -12 -7 -39 13 -56 12 -10 17 -23 14 -34 -5 -14 -4 -15
4 -4 8 11 5 25 -8 52 -11 20 -16 39 -13 43 4 3 4 6 1 6 -2 0 -8 -3 -11 -7z"/>
<path d="M2372 381 c-8 -4 -14 -12 -14 -16 0 -4 6 -12 14 -16 10 -7 10 -9 0
-9 -19 0 -35 -49 -21 -66 6 -7 17 -10 25 -7 11 4 12 8 3 19 -7 8 -9 17 -5 21
3 3 6 2 6 -4 0 -5 7 -10 15 -10 8 0 15 6 15 14 0 7 -4 13 -9 13 -6 0 -11 16
-13 35 -2 26 -6 32 -16 26z"/>
<path d="M1914 333 c0 -26 4 -37 9 -30 5 7 7 1 4 -16 -3 -20 -1 -25 6 -18 7 7
6 25 -5 58 l-15 48 1 -42z"/>
<path d="M2028 340 c2 -17 8 -27 13 -25 4 3 12 -3 18 -12 16 -28 13 -10 -5 25
-21 43 -31 47 -26 12z"/>
<path d="M2249 343 c0 -25 -1 -26 -10 -8 -6 15 -8 7 -5 -28 2 -26 8 -53 14
-59 8 -8 7 -21 -5 -47 -8 -20 -16 -49 -18 -64 -2 -22 1 -27 14 -23 11 4 11 2
-3 -9 -15 -12 -17 -18 -8 -27 15 -15 44 -20 36 -6 -15 23 -12 58 3 58 13 0 15
8 9 46 -3 26 -6 59 -6 73 0 21 -2 23 -10 11 -7 -11 -9 -2 -4 30 3 25 7 50 9
57 2 7 0 15 -5 18 -6 4 -10 -6 -11 -22z"/>
<path d="M2163 310 c2 -28 7 -53 11 -55 3 -3 4 -2 1 1 -2 4 0 15 6 25 5 11 6
19 1 19 -5 0 -8 14 -7 30 1 17 -2 30 -7 30 -5 0 -7 -23 -5 -50z"/>
<path d="M2742 351 c-8 -4 -13 -11 -13 -15 3 -24 -1 -27 -17 -13 -10 10 -23
17 -28 17 -5 -1 0 -9 12 -18 11 -10 20 -24 19 -33 -2 -8 6 -30 16 -49 10 -19
18 -31 19 -27 0 5 -5 17 -10 28 -7 12 -7 19 -1 19 9 0 27 -38 23 -52 -3 -12
27 -17 34 -6 4 6 3 8 -3 5 -6 -4 -14 0 -17 9 -10 25 -7 27 12 13 15 -13 16
-12 3 3 -7 10 -17 15 -22 12 -5 -3 -9 -1 -9 5 0 5 -3 17 -7 27 -5 13 -3 15 8
9 8 -5 7 -1 -3 12 -27 30 -21 40 7 13 14 -13 25 -18 25 -11 0 7 5 9 11 5 7 -4
7 2 -1 17 -18 34 -24 38 -15 9 8 -25 7 -25 -13 -6 -12 10 -19 23 -16 27 6 11
3 11 -14 0z"/>
<path d="M2863 352 c-42 -4 -63 -27 -22 -26 16 1 58 2 94 3 49 1 65 5 65 15 0
14 -47 17 -137 8z"/>
<path d="M1435 319 c1 -17 8 -35 16 -40 8 -5 10 -9 4 -9 -5 0 11 -20 35 -45
24 -25 49 -45 55 -45 5 0 2 5 -7 11 -10 5 -18 17 -18 26 0 9 -3 13 -7 10 -3
-4 -12 3 -19 16 -18 30 -37 71 -38 79 -1 4 -6 12 -12 18 -7 7 -10 2 -9 -21z"/>
<path d="M1630 327 c0 -9 50 -97 55 -97 2 0 2 6 1 13 -2 14 -56 95 -56 84z"/>
<path d="M1821 282 c-1 -24 6 -53 15 -67 9 -14 14 -34 11 -45 -3 -13 0 -20 9
-20 15 0 19 -12 7 -23 -3 -4 -15 0 -25 10 -11 9 -18 11 -18 5 0 -7 5 -12 11
-12 5 0 8 -4 5 -9 -8 -12 4 -41 16 -41 5 0 6 5 3 11 -4 5 0 18 9 28 16 18 12
47 -15 106 -5 11 -13 38 -18 60 l-9 40 -1 -43z"/>
<path d="M1272 280 c0 -8 5 -31 13 -50 l13 -35 -1 37 c-1 20 -4 35 -8 32 -4
-2 -10 4 -12 13 -3 12 -5 13 -5 3z"/>
<path d="M2675 257 c2 -16 9 -34 15 -42 7 -9 9 -22 4 -32 -11 -26 -13 -53 -2
-47 4 3 6 10 3 15 -4 5 0 18 8 29 14 20 15 19 41 -18 14 -21 26 -41 26 -44 0
-4 5 -19 12 -35 6 -15 12 -30 13 -33 8 -30 18 -50 26 -50 5 0 9 5 9 11 0 5 4
8 9 4 5 -3 13 0 17 6 4 8 3 9 -4 5 -17 -11 -15 9 3 24 8 7 15 17 15 22 0 5
-12 -4 -26 -19 -14 -15 -23 -22 -19 -16 3 7 2 13 -3 13 -6 0 -8 9 -5 20 3 11
1 20 -5 20 -5 0 -12 12 -15 28 -7 34 -45 84 -58 76 -6 -3 -13 4 -16 16 -3 12
-11 19 -19 16 -7 -3 -11 0 -8 7 2 7 -2 21 -10 32 -13 18 -14 17 -11 -8z"/>
<path d="M2293 255 c3 -11 8 -37 12 -59 5 -30 9 -36 18 -26 9 10 9 14 0 17 -7
3 -13 17 -13 31 0 15 -5 34 -11 42 -8 12 -9 11 -6 -5z"/>
<path d="M1388 243 c-4 -13 -2 -23 4 -23 6 0 17 -8 24 -17 12 -17 13 -16 14 5
0 12 -6 22 -14 22 -8 0 -16 8 -18 18 -3 14 -5 13 -10 -5z"/>
<path d="M2047 234 c-11 -11 -8 -36 3 -29 6 4 7 -1 3 -12 -5 -14 -3 -16 7 -6
9 9 11 19 4 33 -5 12 -13 18 -17 14z"/>
<path d="M2096 204 c-3 -8 -2 -12 4 -9 6 3 10 3 10 -2 0 -4 4 -25 9 -46 10
-43 -8 -49 -20 -6 -4 14 -7 17 -8 7 -1 -9 -6 -20 -13 -24 -6 -4 -8 -3 -4 4 3
5 0 13 -6 15 -10 4 -10 6 0 6 18 1 15 21 -4 21 -13 0 -15 -7 -9 -41 6 -32 4
-40 -5 -34 -9 5 -11 4 -6 -4 4 -6 11 -9 16 -6 5 3 11 -3 15 -14 3 -11 13 -22
22 -25 14 -6 14 -4 2 10 -7 9 -14 22 -15 30 -3 18 16 30 25 15 4 -6 15 -9 23
-6 15 6 14 13 -4 66 -11 32 -21 59 -23 59 -2 0 -6 -7 -9 -16z"/>
<path d="M1214 185 c1 -12 9 -21 22 -23 11 -2 28 -17 38 -35 13 -25 15 -27 10
-7 -9 34 -23 50 -45 50 -9 0 -19 8 -22 18 -3 13 -4 12 -3 -3z"/>
<path d="M1450 187 c0 -2 18 -16 40 -31 25 -17 38 -31 34 -39 -4 -7 -3 -9 1
-4 5 4 18 -1 29 -10 12 -10 7 -2 -11 17 -29 32 -93 78 -93 67z"/>
<path d="M2850 158 c6 -7 10 -21 10 -31 0 -17 -2 -18 -17 -6 -13 10 -13 8 2
-10 l20 -23 3 27 c2 16 -3 33 -12 41 -9 8 -11 9 -6 2z"/>
<path d="M1886 98 c-11 -35 -16 -102 -7 -93 5 6 11 31 13 58 3 46 1 59 -6 35z"/>
<path d="M2699 79 c-5 -26 -3 -59 4 -59 4 0 5 -5 2 -10 -3 -6 -2 -10 4 -10 6
0 7 15 4 37 -5 34 -12 53 -14 42z"/>
<path d="M2956 37 c-8 -40 -3 -43 23 -16 26 28 26 35 2 42 -15 4 -20 -2 -25
-26z"/>
<path d="M1930 49 c0 -5 4 -8 9 -5 4 3 6 -6 3 -19 -3 -17 0 -25 10 -25 10 0
13 8 10 30 -4 27 -32 44 -32 19z"/>
<path d="M2892 26 c2 -19 5 -22 15 -14 18 14 16 38 -2 38 -10 0 -14 -9 -13
-24z"/>
</g>
</svg>
